<svg xmlns="http://www.w3.org/2000/svg" width="650" height="288" viewBox="0 0 650 288" fill="none">
	<path d="M453.618 51.8808C453.404 51.8808 453.195 51.7837 453.054 51.601L435.046 27.7691L413.71 16.8298C413.434 16.7367 413.205 16.5014 413.185 16.2097C413.162 15.8213 413.387 15.4929 413.776 15.4694L413.92 15.4619C414.044 15.4559 414.169 15.479 414.281 15.5375L435.831 26.5898C435.924 26.6383 436.006 26.706 436.072 26.7916L454.178 50.7521C454.411 51.0629 454.353 51.5039 454.042 51.7391C453.913 51.8343 453.766 51.8808 453.618 51.8808Z" fill="white" />
	<path d="M478.965 93.1359C478.884 93.1359 478.798 93.1203 478.717 93.0893L466.88 88.6463C466.519 88.5106 466.332 88.1042 466.468 87.7409C466.605 87.3755 467.009 87.1948 467.378 87.3289L478.172 91.381L475.607 60.2846L453.365 51.8365C453.004 51.6984 452.821 51.2904 452.961 50.9271C453.093 50.5637 453.505 50.385 453.867 50.5191L476.524 59.1264C476.777 59.2235 476.952 59.4568 476.975 59.7266L479.669 92.3721C479.688 92.6129 479.583 92.8461 479.393 92.9938C479.265 93.0873 479.117 93.1359 478.965 93.1359Z" fill="white" />
	<path d="M476.278 60.4895C476.002 60.4895 475.741 60.3283 475.629 60.062L467.035 40.0254L435.262 27.8734C434.897 27.7353 434.718 27.3274 434.854 26.964C434.994 26.6026 435.402 26.4199 435.764 26.5576L467.82 38.8167C467.995 38.8828 468.139 39.0209 468.212 39.1956L476.923 59.5064C477.079 59.8638 476.912 60.2797 476.554 60.4333C476.465 60.47 476.371 60.4895 476.278 60.4895Z" fill="white" />
	<path d="M490.499 99.3851C490.382 99.3851 490.266 99.356 490.165 99.2995L478.632 93.0496C478.29 92.8629 478.161 92.4374 478.348 92.0951C478.531 91.7513 478.966 91.6251 479.301 91.8118L490.067 97.6438L497.461 72.1231L475.938 60.4041C475.596 60.2178 475.472 59.7884 475.654 59.4481C475.841 59.1062 476.268 58.9796 476.611 59.1663L498.631 71.1551C498.922 71.3147 499.062 71.6526 498.973 71.9714L491.175 98.876C491.117 99.0798 490.965 99.247 490.771 99.3286C490.686 99.3656 490.592 99.3851 490.499 99.3851Z" fill="white" />
	<path d="M498.293 72.4784H498.278C497.893 72.4688 497.582 72.1461 497.59 71.7596L497.932 56.4124C497.94 56.0295 498.255 55.7246 498.636 55.7246H498.651C499.04 55.7342 499.347 56.055 499.339 56.4434L499.001 71.7886C498.993 72.1735 498.678 72.4784 498.293 72.4784Z" fill="white" />
	<path d="M501.313 107.213C501.169 107.213 501.026 107.169 500.905 107.079L490.087 99.251C489.773 99.0237 489.703 98.5823 489.932 98.2675C490.154 97.9491 490.6 97.883 490.911 98.1103L501.212 105.565L517.891 86.8347L497.881 72.3444C497.57 72.1171 497.496 71.6761 497.726 71.3613C497.951 71.0465 498.39 70.9764 498.705 71.2037L519.345 86.1505C519.508 86.2671 519.613 86.4458 519.633 86.644C519.656 86.8422 519.594 87.0385 519.462 87.1881L501.838 106.978C501.702 107.132 501.508 107.213 501.313 107.213Z" fill="white" />
	<path d="M518.937 87.4272C518.762 87.4272 518.583 87.3611 518.447 87.2329C518.167 86.9627 518.156 86.5177 518.428 86.2359L527.224 77.0224C527.493 76.7386 527.94 76.7287 528.219 76.9989C528.503 77.2672 528.511 77.7122 528.242 77.994L519.442 87.2075C519.306 87.3535 519.12 87.4272 518.937 87.4272Z" fill="white" />
	<path d="M511.023 116.338C510.848 116.338 510.677 116.272 510.541 116.146L500.831 107.021C500.547 106.757 500.535 106.31 500.8 106.028C501.064 105.745 501.511 105.731 501.799 105.997L511.166 114.805L536.234 103.903L518.455 87.2359C518.171 86.9697 518.155 86.5243 518.42 86.2389C518.688 85.9552 519.135 85.9436 519.415 86.2079L537.979 103.605C538.15 103.768 538.232 104.007 538.189 104.24C538.15 104.474 537.995 104.672 537.781 104.765L511.307 116.28C511.213 116.319 511.12 116.338 511.023 116.338Z" fill="white" />
	<path d="M537.498 104.824C537.149 104.824 536.846 104.566 536.799 104.208C536.748 103.823 537.024 103.471 537.409 103.421L553.851 101.332C554.267 101.283 554.586 101.557 554.64 101.944C554.687 102.328 554.415 102.68 554.026 102.731L537.588 104.82C537.557 104.822 537.526 104.824 537.498 104.824Z" fill="white" />
	<path d="M519.271 126.432C519.061 126.432 518.859 126.336 518.727 126.173L510.479 116.079C510.234 115.778 510.277 115.335 510.58 115.088C510.879 114.843 511.326 114.884 511.567 115.187L519.586 124.999L551.942 122.78L536.953 104.566C536.708 104.265 536.747 103.822 537.05 103.575C537.354 103.326 537.789 103.371 538.042 103.672L553.897 122.941C554.064 123.147 554.103 123.425 553.998 123.668C553.893 123.911 553.664 124.074 553.4 124.092L519.318 126.43C519.306 126.43 519.291 126.432 519.271 126.432Z" fill="white" />
	<path d="M565.922 144.591C565.884 144.591 565.837 144.587 565.794 144.58L525.626 137.121C525.432 137.084 525.26 136.966 525.156 136.792L518.668 126.092C518.466 125.76 518.575 125.327 518.909 125.124C519.236 124.924 519.671 125.029 519.873 125.363L526.197 135.794L564.496 142.907L552.754 123.76C552.547 123.428 552.652 122.994 552.983 122.789C553.309 122.588 553.749 122.687 553.95 123.022L566.525 143.519C566.669 143.756 566.661 144.057 566.506 144.286C566.37 144.481 566.152 144.591 565.922 144.591Z" fill="white" />
	<path d="M594.32 158.976C594.211 158.976 594.102 158.951 594.001 158.9L565.606 144.516C565.257 144.338 565.117 143.917 565.295 143.569C565.471 143.221 565.894 143.087 566.24 143.258L592.404 156.514L575.938 129.849L553.176 124.073C552.802 123.978 552.569 123.593 552.667 123.218C552.764 122.839 553.156 122.613 553.526 122.707L576.564 128.554C576.739 128.597 576.89 128.712 576.988 128.867L594.918 157.901C595.086 158.17 595.051 158.515 594.837 158.749C594.701 158.898 594.514 158.976 594.32 158.976Z" fill="white" />
	<path d="M574.737 165.62C574.652 165.62 574.562 165.605 574.477 165.572L529.966 148.005C529.791 147.935 529.648 147.795 529.574 147.617L525.104 136.695C524.956 136.335 525.127 135.923 525.488 135.776C525.854 135.628 526.258 135.801 526.406 136.162L530.763 146.806L573.443 163.648L565.272 144.157C565.125 143.8 565.292 143.388 565.649 143.236C566.019 143.087 566.423 143.256 566.57 143.615L575.386 164.645C575.495 164.905 575.441 165.206 575.239 165.411C575.107 165.546 574.924 165.62 574.737 165.62Z" fill="white" />
	<path d="M607.052 188.916C606.907 188.916 606.764 188.871 606.639 188.784L574.327 165.488C574.012 165.261 573.942 164.82 574.167 164.505C574.393 164.188 574.84 164.116 575.151 164.346L605.415 186.164L593.672 158.546C593.52 158.189 593.688 157.777 594.045 157.623C594.411 157.47 594.815 157.639 594.97 157.997L607.7 187.936C607.821 188.226 607.735 188.564 607.491 188.761C607.362 188.863 607.207 188.916 607.052 188.916Z" fill="white" />
	<path d="M626.511 216.497C626.289 216.497 626.072 216.394 625.935 216.2L606.477 188.617C606.252 188.3 606.329 187.861 606.644 187.636C606.963 187.414 607.402 187.486 607.628 187.805L627.086 215.388C627.311 215.705 627.237 216.144 626.919 216.369C626.794 216.457 626.655 216.497 626.511 216.497Z" fill="white" />
	<path d="M579.425 186.452C579.301 186.452 579.176 186.419 579.068 186.353L532.143 158.702C531.972 158.601 531.852 158.434 531.813 158.242L529.539 147.497C529.458 147.116 529.702 146.742 530.08 146.661C530.468 146.577 530.833 146.824 530.915 147.203L533.127 157.647L578.38 184.314L574.049 165.073C573.964 164.692 574.205 164.315 574.582 164.231C574.975 164.136 575.336 164.385 575.425 164.762L580.113 185.593C580.172 185.865 580.067 186.151 579.837 186.316C579.717 186.406 579.569 186.452 579.425 186.452Z" fill="white" />
	<path d="M614.019 218.762C613.844 218.762 613.673 218.697 613.541 218.573L578.942 186.262C578.658 185.996 578.643 185.551 578.907 185.267C579.175 184.985 579.622 184.97 579.902 185.232L612.806 215.961L606.365 188.373C606.276 187.994 606.509 187.615 606.886 187.527C607.279 187.434 607.648 187.675 607.733 188.052L614.707 217.897C614.777 218.2 614.641 218.513 614.373 218.666C614.264 218.73 614.139 218.762 614.019 218.762Z" fill="white" />
	<path d="M579.724 206.327C579.568 206.327 579.413 206.275 579.288 206.176L532.034 168.812C531.867 168.678 531.766 168.474 531.766 168.258L531.797 158.094C531.797 157.705 532.112 157.391 532.5 157.391C532.885 157.393 533.204 157.709 533.204 158.096L533.177 167.92L578.997 204.149L578.717 185.759C578.713 185.37 579.024 185.049 579.413 185.043H579.424C579.805 185.043 580.12 185.35 580.128 185.735L580.427 205.612C580.431 205.884 580.28 206.133 580.034 206.254C579.937 206.302 579.829 206.327 579.724 206.327Z" fill="white" />
	<path d="M614.824 247.465C614.622 247.465 614.428 247.377 614.288 247.216L579.188 206.078C578.935 205.782 578.97 205.339 579.27 205.087C579.569 204.836 580.004 204.867 580.261 205.164L614.066 244.784L613.316 218.077C613.304 217.688 613.611 217.363 614 217.352C614.385 217.419 614.715 217.651 614.727 218.038L615.528 246.739C615.535 247.039 615.357 247.309 615.077 247.416C614.995 247.449 614.91 247.465 614.824 247.465Z" fill="white" />
	<path d="M636.706 290.223C636.446 290.223 636.197 290.079 636.076 289.838L614.201 247.079C614.022 246.734 614.162 246.308 614.508 246.131C614.853 245.956 615.277 246.092 615.452 246.438L635.89 286.375L634.72 253.454L613.419 218.422C613.217 218.09 613.322 217.656 613.656 217.454C613.986 217.256 614.422 217.359 614.624 217.689L636.018 252.878C636.076 252.984 636.111 253.1 636.119 253.221L637.41 289.492C637.421 289.822 637.204 290.116 636.881 290.198C636.823 290.213 636.765 290.223 636.706 290.223Z" fill="white" />
	<path d="M575.537 224.493C575.346 224.493 575.167 224.417 575.031 224.281L529.615 177.948C529.444 177.771 529.374 177.519 529.437 177.28L531.792 168.083C531.893 167.708 532.278 167.481 532.647 167.576C533.028 167.673 533.253 168.058 533.156 168.435L530.902 177.245L575.136 222.378L579.042 205.463C579.128 205.088 579.513 204.847 579.886 204.936C580.263 205.026 580.5 205.403 580.411 205.782L576.221 223.947C576.162 224.197 575.976 224.396 575.727 224.466C575.661 224.485 575.599 224.493 575.537 224.493Z" fill="white" />
	<path d="M609.234 273.948C609.004 273.948 608.783 273.835 608.651 273.64L574.954 224.183C574.736 223.862 574.818 223.423 575.137 223.206C575.459 222.99 575.899 223.067 576.12 223.39L608.888 271.483L614.139 246.614C614.221 246.237 614.586 246.003 614.975 246.069C615.352 246.151 615.597 246.524 615.515 246.905L609.922 273.39C609.863 273.666 609.65 273.882 609.37 273.934C609.327 273.944 609.28 273.948 609.234 273.948Z" fill="white" />
	<path d="M630.026 323.972C629.746 323.972 629.486 323.803 629.376 323.539L608.581 273.514C608.433 273.155 608.6 272.742 608.962 272.593C609.32 272.449 609.736 272.614 609.879 272.974L629.785 320.855L636.012 289.38C636.086 288.999 636.467 288.743 636.84 288.826C637.22 288.902 637.469 289.273 637.392 289.654L630.717 323.405C630.655 323.708 630.407 323.937 630.096 323.968C630.072 323.97 630.049 323.972 630.026 323.972Z" fill="white" />
	<path d="M566.9 240.218C566.682 240.218 566.476 240.115 566.34 239.94L524.936 185.744C524.765 185.517 524.745 185.206 524.889 184.961L529.511 177.098C529.709 176.76 530.144 176.647 530.475 176.847C530.813 177.043 530.922 177.475 530.728 177.809L526.343 185.266L566.803 238.226L574.919 223.448C575.11 223.108 575.537 222.984 575.875 223.17C576.217 223.357 576.341 223.786 576.151 224.124L567.518 239.85C567.405 240.06 567.192 240.196 566.954 240.214C566.939 240.216 566.919 240.218 566.9 240.218Z" fill="white" />
	<path d="M597.234 297.144C596.973 297.144 596.733 297 596.612 296.771L566.278 239.844C566.095 239.5 566.227 239.075 566.569 238.89C566.907 238.706 567.339 238.838 567.521 239.18L597.226 294.922L608.611 272.921C608.79 272.575 609.226 272.441 609.556 272.618C609.902 272.797 610.038 273.222 609.859 273.566L597.86 296.761C597.739 296.994 597.498 297.142 597.242 297.144H597.234Z" fill="white" />
	<path d="M554.042 252.832C554.011 252.832 553.976 252.83 553.945 252.824C553.731 252.797 553.541 252.669 553.432 252.482L518.141 191.881C517.978 191.595 518.029 191.232 518.274 191.008L525.014 184.799C525.302 184.537 525.749 184.554 526.009 184.84C526.273 185.126 526.254 185.571 525.97 185.835L519.642 191.659L554.194 250.989L566.403 239.008C566.687 238.736 567.13 238.744 567.402 239.018C567.674 239.296 567.67 239.743 567.394 240.015L554.536 252.63C554.404 252.76 554.225 252.832 554.042 252.832Z" fill="white" />
	<path d="M579.059 316.023C579.013 316.023 578.966 316.019 578.923 316.009C578.69 315.964 578.492 315.801 578.403 315.578L553.386 252.388C553.242 252.027 553.421 251.616 553.782 251.473C554.147 251.331 554.552 251.508 554.696 251.869L579.312 314.042L596.722 295.951C596.994 295.674 597.437 295.664 597.721 295.932C598.001 296.202 598.009 296.649 597.741 296.929L579.569 315.807C579.433 315.945 579.25 316.023 579.059 316.023Z" fill="white" />
	<path d="M537.374 261.758C537.292 261.758 537.215 261.745 537.141 261.715C536.95 261.649 536.799 261.508 536.725 261.325L509.481 196.093C509.337 195.751 509.485 195.356 509.815 195.191L518.441 190.896C518.79 190.719 519.21 190.863 519.385 191.213C519.556 191.561 519.416 191.984 519.07 192.157L511.036 196.159L537.724 260.068L553.711 251.507C554.049 251.324 554.481 251.452 554.667 251.795C554.85 252.139 554.718 252.564 554.376 252.749L537.708 261.675C537.603 261.729 537.491 261.758 537.374 261.758Z" fill="white" />
	<path d="M555.223 329.672C555.129 329.672 555.036 329.655 554.946 329.618C554.745 329.534 554.597 329.359 554.538 329.147L536.689 261.233C536.596 260.856 536.817 260.471 537.195 260.372C537.583 260.27 537.953 260.499 538.058 260.874L555.67 327.9L578.708 314.706C579.046 314.512 579.478 314.628 579.672 314.968C579.866 315.305 579.75 315.734 579.411 315.928L555.573 329.579C555.464 329.641 555.343 329.672 555.223 329.672Z" fill="white" />
	<path d="M517.47 266.543C517.155 266.543 516.872 266.331 516.79 266.016L499.256 198.182C499.209 197.995 499.24 197.799 499.341 197.636C499.442 197.473 499.605 197.358 499.792 197.317L509.98 195.133C510.369 195.045 510.734 195.296 510.816 195.673C510.897 196.054 510.656 196.427 510.275 196.509L500.807 198.54L517.979 264.992L537.205 260.369C537.57 260.275 537.966 260.509 538.056 260.89C538.149 261.267 537.912 261.647 537.539 261.739L517.637 266.523C517.583 266.537 517.528 266.543 517.47 266.543Z" fill="white" />
	<path d="M526.513 337.34C526.376 337.34 526.236 337.3 526.124 337.222C525.953 337.107 525.84 336.926 525.813 336.726L516.776 265.93C516.725 265.544 516.997 265.192 517.386 265.141C517.813 265.089 518.125 265.366 518.171 265.749L527.111 335.749L555.039 328.29C555.412 328.187 555.801 328.413 555.898 328.788C556.004 329.162 555.778 329.549 555.401 329.648L526.695 337.317C526.637 337.333 526.575 337.34 526.513 337.34Z" fill="white" />
	<path d="M495.101 266.902C494.739 266.902 494.432 266.623 494.397 266.262L487.878 198.037C487.859 197.839 487.925 197.643 488.061 197.497C488.193 197.351 488.384 197.266 488.582 197.266H488.586L499.944 197.303C500.332 197.303 500.644 197.619 500.644 198.01C500.644 198.397 500.329 198.712 499.94 198.712L489.355 198.679L495.738 265.483L517.462 265.135H517.47C517.855 265.135 518.17 265.444 518.178 265.829C518.182 266.217 517.875 266.538 517.482 266.544L495.112 266.902H495.101Z" fill="white" />
	<path d="M494.02 338.51C493.838 338.51 493.659 338.438 493.53 338.307C493.391 338.171 493.313 337.987 493.317 337.794L494.397 266.186C494.401 265.799 494.716 265.492 495.101 265.492H495.112C495.501 265.498 495.808 265.817 495.804 266.207L494.739 337.073L526.488 335.933C526.831 335.913 527.204 336.222 527.219 336.611C527.231 337 526.928 337.326 526.539 337.34L494.047 338.508C494.04 338.51 494.032 338.51 494.02 338.51Z" fill="white" />
	<path d="M495.099 266.9C495.06 266.9 495.018 266.894 494.975 266.888L471.031 262.718C470.674 262.656 470.421 262.331 470.452 261.968L475.793 195.637C475.808 195.439 475.909 195.256 476.065 195.134C476.228 195.012 476.43 194.967 476.624 195.002L488.709 197.278C489.09 197.35 489.347 197.717 489.273 198.099C489.199 198.48 488.849 198.735 488.449 198.661L477.134 196.531L471.905 261.441L495.22 265.501C495.601 265.569 495.857 265.932 495.791 266.315C495.733 266.657 495.434 266.9 495.099 266.9Z" fill="white" />
	<path d="M494.021 338.509C493.986 338.509 493.951 338.507 493.912 338.499L458.956 332.939C458.77 332.909 458.603 332.807 458.494 332.653C458.385 332.499 458.342 332.309 458.373 332.124L470.462 261.905C470.524 261.521 470.893 261.258 471.274 261.33C471.659 261.396 471.916 261.76 471.85 262.143L459.881 331.66L494.134 337.109C494.519 337.169 494.779 337.531 494.721 337.914C494.662 338.262 494.363 338.509 494.021 338.509Z" fill="white" />
	<path d="M471.153 262.731C471.075 262.731 471.002 262.717 470.924 262.69L446.409 254.104C446.059 253.982 445.861 253.606 445.966 253.249L463.492 191.066C463.546 190.877 463.671 190.72 463.846 190.631C464.025 190.543 464.227 190.527 464.409 190.594L476.735 195.032C477.1 195.164 477.291 195.569 477.159 195.934C477.023 196.301 476.618 196.486 476.257 196.357L464.642 192.176L447.497 252.992L471.387 261.361C471.756 261.489 471.946 261.891 471.822 262.259C471.717 262.548 471.445 262.731 471.153 262.731Z" fill="white" />
	<path d="M459.066 332.95C458.992 332.95 458.914 332.937 458.84 332.911L422.936 320.724C422.761 320.664 422.613 320.534 422.532 320.367C422.45 320.196 422.438 320.001 422.5 319.824L445.978 253.207C446.107 252.837 446.511 252.645 446.876 252.775C447.242 252.905 447.436 253.307 447.304 253.673L424.063 319.62L459.295 331.578C459.661 331.704 459.859 332.103 459.734 332.472C459.633 332.765 459.361 332.95 459.066 332.95Z" fill="white" />
	<path d="M475.016 137.471C474.732 137.471 474.464 137.296 474.358 137.018L454.756 85.7748C454.621 85.4114 454.799 85.0051 455.165 84.8669C455.526 84.7233 455.93 84.9099 456.074 85.2733L473.228 130.121L466.433 88.1008C466.371 87.7163 466.631 87.3565 467.016 87.2944C467.408 87.2068 467.758 87.4926 467.824 87.8775L475.711 136.655C475.77 137.012 475.548 137.353 475.198 137.448C475.14 137.463 475.078 137.471 475.016 137.471Z" fill="white" />
	<path d="M475.015 137.471C474.996 137.471 474.976 137.471 474.953 137.469C474.564 137.434 474.28 137.092 474.315 136.705L478.261 92.3683C478.3 91.9834 478.58 91.6841 479.027 91.7291C479.415 91.7641 479.699 92.106 479.668 92.4929L475.718 136.829C475.683 137.195 475.377 137.471 475.015 137.471Z" fill="white" />
	<path d="M475.016 137.471C474.93 137.471 474.837 137.456 474.752 137.419C474.394 137.273 474.219 136.863 474.363 136.502L489.845 98.4166C489.989 98.0552 490.405 97.8805 490.762 98.0302C491.124 98.1758 491.299 98.5858 491.151 98.9472L475.669 137.032C475.56 137.306 475.296 137.471 475.016 137.471Z" fill="white" />
	<path d="M475.015 137.47C474.852 137.47 474.689 137.414 474.553 137.299C474.261 137.042 474.23 136.597 474.487 136.304L500.782 106.047C501.035 105.753 501.482 105.722 501.773 105.977C502.065 106.233 502.1 106.676 501.843 106.97L475.548 137.227C475.408 137.388 475.214 137.47 475.015 137.47Z" fill="white" />
	<path d="M475.017 137.471C474.776 137.471 474.542 137.346 474.41 137.123C474.212 136.787 474.325 136.357 474.659 136.159L510.669 115.027C511.007 114.834 511.434 114.943 511.633 115.277C511.827 115.613 511.714 116.045 511.38 116.243L475.374 137.376C475.262 137.44 475.141 137.471 475.017 137.471Z" fill="white" />
	<path d="M475.015 137.47C474.7 137.47 474.412 137.256 474.335 136.936C474.238 136.559 474.467 136.178 474.844 136.083L519.098 125.044C519.486 124.945 519.86 125.18 519.953 125.557C520.046 125.934 519.817 126.315 519.44 126.41L475.186 137.451C475.128 137.464 475.07 137.47 475.015 137.47Z" fill="white" />
	<path d="M475.016 137.47C474.631 137.47 474.317 137.159 474.313 136.77C474.309 136.381 474.623 136.065 475.012 136.061L525.75 135.723C526.166 135.73 526.457 136.031 526.461 136.422C526.465 136.811 526.15 137.13 525.761 137.132L475.024 137.47H475.016Z" fill="white" />
	<path d="M530.228 148.054C530.182 148.054 530.139 148.05 530.096 148.043L474.885 137.459C474.504 137.385 474.251 137.016 474.325 136.635C474.399 136.252 474.768 135.995 475.149 136.075L530.361 146.657C530.742 146.731 530.994 147.1 530.92 147.483C530.854 147.819 530.559 148.054 530.228 148.054Z" fill="white" />
	<path d="M532.503 158.8C532.421 158.8 532.339 158.786 532.258 158.757L474.773 137.426C474.408 137.292 474.221 136.888 474.357 136.523C474.489 136.157 474.882 135.967 475.267 136.107L532.748 157.436C533.113 157.571 533.3 157.976 533.164 158.341C533.059 158.625 532.787 158.8 532.503 158.8Z" fill="white" />
	<path d="M532.475 168.963C532.359 168.963 532.242 168.936 532.133 168.876L474.679 137.385C474.337 137.198 474.213 136.769 474.399 136.429C474.59 136.085 475.017 135.964 475.359 136.149L532.813 167.642C533.155 167.828 533.28 168.256 533.093 168.598C532.965 168.831 532.724 168.963 532.475 168.963Z" fill="white" />
	<path d="M530.115 178.161C529.971 178.161 529.823 178.114 529.699 178.021L474.6 137.334C474.286 137.104 474.22 136.663 474.449 136.35C474.682 136.039 475.129 135.975 475.436 136.201L530.535 176.888C530.849 177.119 530.916 177.56 530.682 177.873C530.547 178.06 530.332 178.161 530.115 178.161Z" fill="white" />
	<path d="M525.493 186.023C525.318 186.023 525.143 185.957 525.003 185.825L474.526 137.275C474.25 137.005 474.239 136.56 474.507 136.28C474.779 136 475.226 135.992 475.506 136.26L525.983 184.81C526.263 185.081 526.27 185.526 526.002 185.806C525.862 185.949 525.68 186.023 525.493 186.023Z" fill="white" />
	<path d="M518.753 192.231C518.543 192.231 518.34 192.139 518.201 191.964L474.468 137.205C474.223 136.9 474.274 136.457 474.577 136.216C474.88 135.975 475.327 136.022 475.568 136.327L519.301 191.086C519.546 191.391 519.495 191.834 519.192 192.075C519.06 192.18 518.908 192.231 518.753 192.231Z" fill="white" />
	<path d="M510.128 196.526C509.887 196.526 509.658 196.404 509.522 196.18L474.41 137.126C474.212 136.792 474.325 136.36 474.659 136.162C474.986 135.96 475.421 136.069 475.623 136.407L510.735 195.463C510.933 195.795 510.82 196.227 510.486 196.427C510.373 196.495 510.253 196.526 510.128 196.526Z" fill="white" />
	<path d="M499.939 198.71C499.66 198.71 499.399 198.545 499.286 198.271L474.363 137.03C474.219 136.671 474.394 136.261 474.752 136.113C475.105 135.961 475.521 136.138 475.669 136.5L500.593 197.74C500.74 198.1 500.565 198.51 500.204 198.658C500.118 198.693 500.029 198.71 499.939 198.71Z" fill="white" />
	<path d="M488.582 198.674C488.26 198.674 487.968 198.451 487.894 198.122L474.329 136.919C474.247 136.54 474.484 136.163 474.865 136.079C475.234 135.996 475.623 136.235 475.705 136.614L489.27 197.819C489.352 198.198 489.115 198.575 488.734 198.659C488.684 198.67 488.633 198.674 488.582 198.674Z" fill="white" />
	<path d="M476.497 196.401C476.113 196.401 475.801 196.096 475.79 195.713L474.313 136.786C474.305 136.397 474.612 136.072 475.001 136.062H475.012C475.397 136.062 475.712 136.368 475.724 136.751L477.201 195.679C477.209 196.067 476.901 196.392 476.513 196.401H476.497Z" fill="white" />
	<path d="M464.167 191.962C464.125 191.962 464.078 191.959 464.031 191.947C463.65 191.871 463.401 191.502 463.479 191.119L474.324 136.63C474.402 136.251 474.763 136 475.156 136.076C475.537 136.154 475.782 136.523 475.708 136.906L464.859 191.395C464.793 191.729 464.498 191.962 464.167 191.962Z" fill="white" />
	<path d="M464.167 191.962C464.054 191.962 463.941 191.934 463.836 191.878L451.775 185.444C451.444 185.267 451.308 184.861 451.471 184.52L474.382 136.464C474.553 136.11 474.965 135.964 475.319 136.132C475.672 136.299 475.82 136.719 475.653 137.069L453.034 184.518L464.501 190.635C464.843 190.819 464.971 191.245 464.788 191.589C464.664 191.826 464.419 191.962 464.167 191.962Z" fill="white" />
	<path d="M446.64 254.145C446.528 254.145 446.415 254.118 446.31 254.063L422.276 241.382C421.934 241.201 421.802 240.776 421.985 240.432L451.487 184.493C451.662 184.149 452.094 184.021 452.436 184.2C452.778 184.38 452.91 184.808 452.727 185.152L423.555 240.465L446.967 252.817C447.309 252.998 447.445 253.423 447.262 253.768C447.138 254.007 446.889 254.145 446.64 254.145Z" fill="white" />
	<path d="M423.165 320.762C423.052 320.762 422.944 320.734 422.838 320.68L387.606 302.319C387.439 302.231 387.311 302.078 387.26 301.893C387.206 301.711 387.225 301.513 387.319 301.347L421.995 240.412C422.189 240.072 422.621 239.959 422.955 240.148C423.293 240.34 423.414 240.769 423.219 241.108L388.905 301.408L423.488 319.433C423.834 319.611 423.966 320.037 423.787 320.383C423.662 320.622 423.418 320.762 423.165 320.762Z" fill="white" />
	<path d="M452.106 185.526C451.966 185.526 451.822 185.481 451.698 185.392L440.39 177.222C440.231 177.107 440.126 176.931 440.103 176.734C440.079 176.538 440.142 176.342 440.27 176.194L474.483 136.308C474.736 136.014 475.183 135.983 475.474 136.232C475.77 136.485 475.805 136.93 475.548 137.225L441.836 176.528L452.518 184.251C452.836 184.479 452.906 184.918 452.681 185.235C452.541 185.425 452.327 185.526 452.106 185.526Z" fill="white" />
	<path d="M422.609 241.463C422.465 241.463 422.321 241.42 422.197 241.329L399.695 225.09C399.535 224.975 399.434 224.798 399.407 224.602C399.384 224.408 399.446 224.212 399.57 224.064L440.268 176.196C440.516 175.897 440.963 175.86 441.263 176.116C441.558 176.367 441.593 176.812 441.34 177.107L401.137 224.394L423.021 240.188C423.336 240.416 423.406 240.857 423.18 241.172C423.04 241.362 422.827 241.463 422.609 241.463Z" fill="white" />
	<path d="M387.93 302.401C387.786 302.401 387.642 302.358 387.518 302.265L354.583 278.518C354.424 278.404 354.319 278.229 354.296 278.032C354.268 277.838 354.327 277.644 354.455 277.494L399.568 224.064C399.817 223.767 400.264 223.73 400.559 223.981C400.858 224.231 400.897 224.676 400.644 224.974L356.022 277.82L388.342 301.124C388.657 301.351 388.731 301.793 388.501 302.107C388.365 302.298 388.148 302.401 387.93 302.401Z" fill="white" />
	<path d="M349.993 364.884C349.849 364.884 349.706 364.841 349.581 364.752L307.594 334.518C307.438 334.404 307.333 334.229 307.306 334.035C307.283 333.84 307.341 333.644 307.465 333.494L354.455 277.495C354.704 277.2 355.151 277.157 355.446 277.41C355.746 277.658 355.785 278.103 355.532 278.401L309.032 333.819L350.405 363.607C350.72 363.835 350.794 364.274 350.565 364.591C350.428 364.781 350.211 364.884 349.993 364.884Z" fill="white" />
	<path d="M440.804 177.357C440.633 177.357 440.458 177.293 440.322 177.165L430.239 167.593C430.084 167.448 430.002 167.237 430.017 167.026C430.037 166.814 430.15 166.62 430.321 166.501L474.621 136.186C474.94 135.97 475.379 136.048 475.597 136.369C475.819 136.69 475.737 137.129 475.418 137.348L431.837 167.17L441.29 176.142C441.574 176.408 441.585 176.855 441.317 177.137C441.177 177.283 440.991 177.357 440.804 177.357Z" fill="white" />
	<path d="M400.106 225.225C399.931 225.225 399.756 225.159 399.62 225.029L379.633 205.927C379.481 205.783 379.404 205.583 379.415 205.377C379.427 205.173 379.528 204.981 379.691 204.858L430.293 166.521C430.604 166.286 431.047 166.344 431.28 166.657C431.517 166.968 431.455 167.409 431.144 167.642L381.203 205.48L400.592 224.011C400.875 224.279 400.887 224.726 400.615 225.006C400.479 225.151 400.292 225.225 400.106 225.225Z" fill="white" />
	<path d="M354.998 278.654C354.818 278.654 354.648 278.588 354.508 278.456L325.374 250.408C325.23 250.269 325.149 250.074 325.157 249.874C325.164 249.672 325.262 249.483 325.413 249.357L379.672 204.874C379.979 204.628 380.419 204.672 380.663 204.972C380.908 205.273 380.866 205.718 380.566 205.963L326.921 249.944L355.487 277.441C355.763 277.711 355.771 278.158 355.507 278.438C355.367 278.58 355.18 278.654 354.998 278.654Z" fill="white" />
	<path d="M308.006 334.649C307.827 334.649 307.652 334.583 307.516 334.451L270.542 298.576C270.399 298.44 270.321 298.249 270.329 298.051C270.333 297.857 270.418 297.67 270.569 297.542L325.396 249.371C325.688 249.114 326.135 249.142 326.387 249.435C326.644 249.726 326.617 250.171 326.325 250.428L272.07 298.096L308.495 333.44C308.775 333.711 308.783 334.158 308.511 334.435C308.375 334.579 308.188 334.649 308.006 334.649Z" fill="white" />
	<path d="M430.721 167.785C430.511 167.785 430.309 167.694 430.169 167.521L421.719 156.941C421.578 156.766 421.528 156.533 421.586 156.315C421.649 156.097 421.808 155.923 422.021 155.843L474.773 136.108C475.122 135.972 475.538 136.152 475.678 136.52C475.814 136.883 475.628 137.289 475.266 137.425L423.425 156.821L431.269 166.642C431.514 166.945 431.463 167.388 431.16 167.632C431.028 167.734 430.876 167.785 430.721 167.785Z" fill="white" />
	<path d="M380.117 206.123C379.911 206.123 379.701 206.03 379.565 205.853L362.941 184.732C362.808 184.563 362.758 184.343 362.808 184.135C362.859 183.925 362.999 183.753 363.193 183.659L421.965 155.865C422.311 155.707 422.735 155.849 422.902 156.201C423.069 156.553 422.917 156.972 422.567 157.139L364.593 184.555L380.669 204.982C380.91 205.287 380.856 205.73 380.553 205.971C380.424 206.073 380.269 206.123 380.117 206.123Z" fill="white" />
	<path d="M325.865 250.603C325.656 250.603 325.446 250.51 325.306 250.331L301.284 219.285C301.16 219.124 301.109 218.916 301.152 218.714C301.191 218.514 301.319 218.341 301.494 218.24L363.15 183.682C363.5 183.496 363.923 183.612 364.11 183.953C364.3 184.291 364.18 184.72 363.841 184.911L302.897 219.07L326.421 249.468C326.658 249.777 326.6 250.219 326.293 250.456C326.169 250.555 326.017 250.603 325.865 250.603Z" fill="white" />
	<path d="M271.034 298.775C270.82 298.775 270.61 298.678 270.474 298.497L240.233 258.731C240.116 258.576 240.066 258.377 240.101 258.183C240.132 257.991 240.249 257.819 240.412 257.715L301.457 218.264C301.772 218.058 302.219 218.143 302.433 218.474C302.639 218.8 302.55 219.235 302.219 219.447L241.815 258.482L271.594 297.644C271.83 297.955 271.768 298.396 271.457 298.631C271.333 298.728 271.181 298.775 271.034 298.775Z" fill="white" />
	<path d="M218.823 347.839C218.609 347.839 218.396 347.74 218.26 347.555L183.304 300.791C183.191 300.642 183.145 300.453 183.172 300.269C183.199 300.082 183.3 299.915 183.451 299.804L240.377 257.737C240.688 257.512 241.131 257.572 241.361 257.885C241.593 258.198 241.527 258.641 241.213 258.87L184.858 300.515L219.387 346.714C219.617 347.025 219.554 347.466 219.243 347.697C219.119 347.794 218.967 347.839 218.823 347.839Z" fill="white" />
	<path d="M422.265 157.208C422.024 157.208 421.787 157.081 421.659 156.856L415.171 145.705C415.051 145.503 415.043 145.256 415.144 145.044C415.245 144.834 415.448 144.688 415.677 144.655L474.915 136.071C475.327 136.009 475.657 136.279 475.712 136.666C475.77 137.051 475.502 137.408 475.121 137.463L416.913 145.899L422.876 156.149C423.07 156.485 422.957 156.916 422.619 157.113C422.51 157.177 422.386 157.208 422.265 157.208Z" fill="white" />
	<path d="M363.495 185C363.25 185 363.013 184.872 362.885 184.642L350.31 162.429C350.201 162.239 350.19 162.01 350.275 161.807C350.361 161.605 350.536 161.456 350.749 161.399L415.604 144.668C415.993 144.567 416.362 144.798 416.463 145.176C416.561 145.551 416.331 145.936 415.958 146.033L351.989 162.534L364.109 183.949C364.3 184.286 364.183 184.718 363.845 184.909C363.732 184.971 363.615 185 363.495 185Z" fill="white" />
	<path d="M301.837 219.561C301.589 219.561 301.351 219.428 301.223 219.195L283.316 186.591C283.219 186.412 283.203 186.194 283.277 186.004C283.347 185.81 283.499 185.66 283.693 185.59L350.682 161.422C351.051 161.288 351.455 161.478 351.587 161.844C351.719 162.211 351.529 162.613 351.164 162.745L284.948 186.636L302.456 218.517C302.642 218.857 302.518 219.287 302.179 219.473C302.071 219.534 301.954 219.561 301.837 219.561Z" fill="white" />
	<path d="M240.792 259.01C240.544 259.01 240.299 258.876 240.17 258.637L217.964 216.904C217.875 216.735 217.859 216.535 217.917 216.35C217.983 216.166 218.115 216.018 218.291 215.936L283.639 185.613C283.977 185.444 284.409 185.6 284.572 185.955C284.735 186.309 284.583 186.727 284.23 186.89L219.557 216.9L241.414 257.976C241.597 258.318 241.469 258.746 241.127 258.928C241.022 258.985 240.909 259.01 240.792 259.01Z" fill="white" />
	<path d="M183.867 301.075C183.614 301.075 183.37 300.935 183.242 300.694L157.918 251.618C157.746 251.283 157.867 250.873 158.189 250.685L218.232 215.964C218.574 215.768 218.994 215.878 219.197 216.221C219.391 216.557 219.274 216.986 218.94 217.183L159.48 251.569L184.497 300.047C184.672 300.393 184.536 300.819 184.194 300.996C184.089 301.05 183.98 301.075 183.867 301.075Z" fill="white" />
	<path d="M134.178 343.336C133.922 343.336 133.673 343.194 133.549 342.947L106.347 288.715C106.192 288.406 106.289 288.029 106.565 287.827L158.13 250.723C158.441 250.494 158.885 250.568 159.118 250.885C159.343 251.201 159.269 251.641 158.954 251.868L107.875 288.62L134.808 342.316C134.983 342.664 134.843 343.086 134.493 343.26C134.396 343.311 134.288 343.336 134.178 343.336Z" fill="white" />
	<path d="M94.1716 383.474C93.9109 383.474 93.6586 383.329 93.538 383.08L65.6603 326.123C65.5201 325.841 65.5822 325.507 65.8119 325.295L106.501 287.881C106.789 287.618 107.236 287.637 107.5 287.921C107.764 288.207 107.745 288.654 107.458 288.916L67.1569 325.975L94.8049 382.46C94.9761 382.81 94.8284 383.231 94.4785 383.403C94.3814 383.451 94.2763 383.474 94.1716 383.474Z" fill="white" />
	<path d="M415.777 146.058C415.493 146.058 415.225 145.882 415.12 145.603L410.852 134.333C410.767 134.111 410.798 133.863 410.937 133.672C411.077 133.48 411.287 133.363 411.54 133.381L475.046 136.064C475.435 136.082 475.738 136.408 475.723 136.797C475.703 137.174 475.392 137.471 475.015 137.471H474.984L412.543 134.833L416.434 145.103C416.574 145.467 416.391 145.873 416.026 146.011C415.948 146.042 415.859 146.058 415.777 146.058Z" fill="white" />
	<path d="M350.922 162.787C350.634 162.787 350.362 162.608 350.257 162.32L342.211 139.967C342.133 139.759 342.164 139.532 342.281 139.347C342.401 139.163 342.596 139.044 342.813 139.027L411.451 133.379C411.851 133.348 412.177 133.638 412.208 134.024C412.243 134.413 411.952 134.751 411.567 134.784L343.847 140.354L351.586 161.842C351.714 162.21 351.528 162.612 351.159 162.744C351.081 162.773 351.003 162.787 350.922 162.787Z" fill="white" />
	<path d="M283.936 186.954C283.645 186.954 283.369 186.77 283.272 186.476L272.155 153.786C272.089 153.594 272.112 153.384 272.209 153.207C272.31 153.033 272.485 152.908 272.683 152.869L342.739 139.036C343.12 138.957 343.493 139.209 343.567 139.59C343.641 139.973 343.392 140.344 343.011 140.418L273.744 154.096L284.601 186.024C284.729 186.391 284.531 186.791 284.162 186.918C284.088 186.943 284.01 186.954 283.936 186.954Z" fill="white" />
	<path d="M218.585 217.279C218.285 217.279 218.009 217.088 217.912 216.787L204.552 175.048C204.498 174.87 204.51 174.675 204.599 174.508C204.685 174.343 204.832 174.217 205.011 174.162L272.603 152.89C272.987 152.773 273.372 152.981 273.489 153.35C273.605 153.721 273.4 154.116 273.03 154.233L206.111 175.291L219.257 216.359C219.378 216.728 219.171 217.125 218.802 217.243C218.728 217.267 218.658 217.279 218.585 217.279Z" fill="white" />
	<path d="M158.543 252.001C158.239 252.001 157.96 251.802 157.87 251.498L143.08 202.477C142.979 202.139 143.146 201.776 143.469 201.631L204.938 174.191C205.292 174.028 205.704 174.189 205.867 174.547C206.027 174.9 205.863 175.318 205.514 175.475L144.612 202.663L159.219 251.091C159.332 251.464 159.118 251.857 158.749 251.97C158.679 251.989 158.609 252.001 158.543 252.001Z" fill="white" />
	<path d="M106.978 289.103C106.675 289.103 106.391 288.9 106.302 288.591L90.839 234.431C90.7539 234.128 90.878 233.803 91.1503 233.638L143.388 201.675C143.718 201.475 144.154 201.576 144.356 201.908C144.562 202.238 144.457 202.674 144.123 202.876L92.3396 234.561L107.658 288.205C107.763 288.578 107.546 288.968 107.173 289.075C107.11 289.095 107.044 289.103 106.978 289.103Z" fill="white" />
	<path d="M66.2873 326.517C65.98 326.517 65.6926 326.311 65.6071 325.998L50.0978 269.066C50.0277 268.804 50.1173 268.522 50.323 268.345L91.0592 233.702C91.3585 233.452 91.8015 233.487 92.0503 233.782C92.303 234.079 92.268 234.522 91.9726 234.775L51.5749 269.128L66.9675 325.627C67.0686 326.004 66.8509 326.391 66.474 326.492C66.4115 326.509 66.3494 326.517 66.2873 326.517Z" fill="white" />
	<path d="M37.9521 362.327C37.6412 362.327 37.3535 362.117 37.2683 361.803L22.2215 304.536C22.167 304.323 22.2136 304.097 22.3497 303.922L50.2274 268.446C50.4686 268.138 50.9156 268.086 51.2149 268.327C51.5218 268.568 51.5723 269.011 51.3315 269.316L23.6751 304.517L38.6323 361.443C38.7299 361.82 38.5082 362.205 38.1312 362.304C38.0687 362.32 38.0106 362.327 37.9521 362.327Z" fill="white" />
	<path d="M475.017 137.471C474.97 137.471 474.923 137.467 474.873 137.456L410.476 124.05L412.202 133.963C412.268 134.346 412.012 134.71 411.631 134.778C411.219 134.84 410.881 134.585 410.815 134.203L408.914 123.269C408.871 123.04 408.949 122.804 409.116 122.643C409.287 122.482 409.528 122.42 409.749 122.459L475.16 136.078C475.541 136.158 475.786 136.529 475.708 136.911C475.638 137.242 475.343 137.471 475.017 137.471Z" fill="white" />
	<path d="M342.873 140.432C342.53 140.432 342.231 140.184 342.177 139.834L338.915 118.278C338.88 118.068 338.946 117.852 339.094 117.695C339.238 117.537 339.432 117.446 339.662 117.471L409.656 122.446C410.04 122.473 410.336 122.809 410.308 123.198C410.281 123.587 409.931 123.876 409.554 123.849L340.439 118.938L343.568 139.624C343.627 140.007 343.362 140.366 342.977 140.424C342.942 140.43 342.907 140.432 342.873 140.432Z" fill="white" />
	<path d="M272.818 154.265C272.468 154.265 272.165 154.007 272.118 153.651L268.103 122.285C268.079 122.09 268.138 121.894 268.262 121.745C268.387 121.595 268.569 121.501 268.763 121.492L339.574 117.471C339.585 117.471 339.597 117.469 339.612 117.469C339.982 117.469 340.292 117.758 340.312 118.133C340.335 118.52 340.04 118.855 339.651 118.876L269.599 122.856L273.518 153.471C273.568 153.859 273.296 154.211 272.907 154.259C272.876 154.263 272.845 154.265 272.818 154.265Z" fill="white" />
	<path d="M205.226 175.538C204.868 175.538 204.561 175.268 204.526 174.907L200.316 135.013C200.278 134.647 200.523 134.315 200.888 134.247L268.674 121.502C269.074 121.424 269.424 121.685 269.494 122.066C269.568 122.446 269.315 122.816 268.934 122.888L201.786 135.512L205.922 174.761C205.965 175.146 205.685 175.494 205.3 175.534C205.272 175.536 205.249 175.538 205.226 175.538Z" fill="white" />
	<path d="M143.757 202.98C143.395 202.98 143.084 202.702 143.053 202.335L139.085 155.594C139.057 155.271 139.252 154.97 139.563 154.867L200.791 134.271C201.164 134.148 201.561 134.345 201.685 134.712C201.806 135.081 201.611 135.481 201.242 135.606L140.535 156.027L144.457 202.214C144.491 202.601 144.204 202.943 143.819 202.976C143.796 202.978 143.777 202.98 143.757 202.98Z" fill="white" />
	<path d="M91.5161 234.942C91.1507 234.942 90.8394 234.658 90.8164 234.285L87.322 182.69C87.3025 182.411 87.4502 182.147 87.699 182.019L139.463 154.911C139.8 154.733 140.228 154.866 140.411 155.208C140.59 155.554 140.458 155.979 140.112 156.16L88.7601 183.053L92.2194 234.192C92.2469 234.578 91.9551 234.914 91.5666 234.942H91.5161Z" fill="white" />
	<path d="M50.7797 269.587C50.4064 269.587 50.0995 269.296 50.076 268.921L47.1338 214.649C47.1218 214.422 47.2229 214.202 47.3981 214.058L87.5861 182.092C87.893 181.852 88.336 181.899 88.5732 182.206C88.818 182.509 88.7674 182.952 88.4645 183.193L48.5603 214.935L51.487 268.843C51.5026 269.233 51.2072 269.564 50.8187 269.585C50.8068 269.587 50.7913 269.587 50.7797 269.587Z" fill="white" />
	<path d="M22.903 305.063C22.5296 305.063 22.2188 304.767 22.1993 304.39L19.739 249.693C19.7311 249.524 19.7856 249.359 19.8867 249.227L47.2824 214.177C47.5196 213.868 47.9627 213.818 48.2735 214.055C48.5808 214.296 48.6349 214.739 48.3941 215.044L21.1576 249.887L23.6103 304.326C23.6258 304.715 23.3229 305.045 22.934 305.063H22.903Z" fill="white" />
	<path d="M8.34216 339.678C7.9688 339.678 7.65396 339.381 7.63844 339.002L5.51614 286.07C5.51216 285.973 5.53166 285.876 5.56669 285.784L19.7895 249.404C19.9292 249.042 20.3336 248.86 20.699 249.005C21.0604 249.147 21.2392 249.555 21.0995 249.917L6.93114 286.161L9.04946 338.946C9.061 339.335 8.76208 339.663 8.36922 339.676C8.36166 339.678 8.34972 339.678 8.34216 339.678Z" fill="white" />
	<path d="M475.018 137.47C474.94 137.47 474.855 137.456 474.777 137.427L410.781 113.97L410.31 123.184C410.291 123.571 409.98 123.911 409.572 123.851C409.183 123.831 408.884 123.499 408.903 123.112L409.42 112.944C409.432 112.721 409.548 112.515 409.735 112.392C409.926 112.268 410.159 112.246 410.369 112.318L475.263 136.104C475.628 136.238 475.815 136.644 475.679 137.007C475.573 137.293 475.305 137.47 475.018 137.47Z" fill="white" />
	<path d="M339.612 118.879C339.592 118.879 339.573 118.877 339.558 118.877C339.169 118.845 338.877 118.507 338.909 118.118L340.463 98.2258C340.483 98.0236 340.584 97.837 340.747 97.7168C340.906 97.5922 341.124 97.5516 341.315 97.5902L410.27 112.292C410.651 112.374 410.892 112.747 410.81 113.128C410.733 113.507 410.375 113.754 409.975 113.67L341.804 99.1373L340.312 118.229C340.284 118.598 339.977 118.879 339.612 118.879Z" fill="white" />
	<path d="M268.801 122.9C268.778 122.9 268.754 122.898 268.727 122.896C268.342 122.855 268.062 122.507 268.101 122.121L271.141 93.3581C271.18 92.9832 271.494 92.7285 271.891 92.7305L341.216 97.5774C341.601 97.6045 341.896 97.9428 341.869 98.3317C341.838 98.7181 341.504 98.9788 341.115 98.9844L272.47 94.1844L269.501 122.27C269.466 122.632 269.158 122.9 268.801 122.9Z" fill="white" />
	<path d="M201.018 135.645C200.987 135.645 200.956 135.641 200.925 135.637C200.54 135.588 200.268 135.234 200.319 134.848L205.104 98.4398C205.15 98.1095 205.419 97.8548 205.749 97.8297L271.789 92.732C272.232 92.7069 272.516 92.9923 272.547 93.3792C272.578 93.766 272.287 94.1059 271.898 94.1354L206.429 99.1881L201.718 135.03C201.671 135.386 201.364 135.645 201.018 135.645Z" fill="white" />
	<path d="M139.786 156.239C139.751 156.239 139.716 156.237 139.681 156.231C139.296 156.171 139.032 155.811 139.09 155.427L145.64 112.903C145.683 112.621 145.892 112.394 146.168 112.326L205.636 97.8457C206.005 97.7502 206.394 97.9818 206.487 98.3627C206.581 98.7416 206.347 99.1225 205.97 99.2137L146.962 113.583L140.486 155.643C140.431 155.99 140.128 156.239 139.786 156.239Z" fill="white" />
	<path d="M88.0235 183.348C87.9849 183.348 87.9419 183.342 87.9029 183.336C87.522 183.27 87.2617 182.907 87.3317 182.524L95.401 135.639C95.44 135.41 95.5917 135.214 95.8054 135.118L146.041 112.369C146.399 112.21 146.819 112.365 146.974 112.721C147.134 113.074 146.978 113.49 146.624 113.652L96.7229 136.248L88.7153 182.761C88.6572 183.105 88.3618 183.348 88.0235 183.348Z" fill="white" />
	<path d="M47.8363 215.314C47.7976 215.314 47.7511 215.309 47.7081 215.301C47.3272 215.231 47.0744 214.864 47.1445 214.481L56.2829 165.144C56.3139 164.971 56.411 164.815 56.5472 164.708L95.6701 135.196C95.9773 134.964 96.4204 135.023 96.6576 135.334C96.8908 135.644 96.8283 136.086 96.5215 136.321L57.6199 165.668L48.532 214.737C48.4659 215.075 48.1706 215.314 47.8363 215.314Z" fill="white" />
	<path d="M20.4392 250.365C20.3966 250.365 20.35 250.361 20.307 250.351C19.9221 250.277 19.6734 249.908 19.7474 249.525L29.3638 199.692C29.3833 199.582 29.4299 199.48 29.5 199.393L56.4176 164.839C56.6549 164.533 57.0979 164.474 57.4087 164.717C57.716 164.956 57.7701 165.397 57.5293 165.704L30.7168 200.126L21.1314 249.793C21.0653 250.129 20.7696 250.365 20.4392 250.365Z" fill="white" />
	<path d="M475.017 137.47C474.908 137.47 474.796 137.445 474.691 137.39L413.424 104.984L410.796 113.195C410.675 113.566 410.283 113.772 409.91 113.65C409.537 113.533 409.334 113.137 409.451 112.766L412.339 103.754C412.401 103.556 412.549 103.395 412.743 103.317C412.93 103.237 413.151 103.247 413.338 103.346L475.348 136.143C475.694 136.325 475.822 136.751 475.639 137.095C475.515 137.334 475.27 137.47 475.017 137.47Z" fill="white" />
	<path d="M413.006 104.674C412.928 104.674 412.85 104.662 412.772 104.633L347.793 81.7026L341.83 98.5149C341.698 98.8803 341.298 99.0729 340.932 98.9428C340.563 98.8122 340.372 98.4122 340.501 98.0449L346.701 80.5699C346.833 80.2045 347.229 80.0099 347.602 80.1401L413.242 103.304C413.608 103.434 413.798 103.836 413.67 104.203C413.569 104.493 413.297 104.674 413.006 104.674Z" fill="white" />
	<path d="M271.841 94.1371C271.755 94.1371 271.67 94.1216 271.588 94.0886C271.227 93.9489 271.044 93.5405 271.184 93.1771L280.921 68.1014C281.045 67.785 281.376 67.6023 281.71 67.6644L347.498 80.1137C347.879 80.1857 348.131 80.5531 348.057 80.9356C347.983 81.3149 347.634 81.5772 347.237 81.4976L282.025 69.1589L272.498 93.6886C272.389 93.9664 272.124 94.1371 271.841 94.1371Z" fill="white" />
	<path d="M205.801 99.234C205.711 99.234 205.618 99.2165 205.528 99.1795C205.171 99.0298 205.004 98.6159 205.151 98.2585L218.363 66.6936C218.472 66.4274 218.702 66.2252 219.028 66.2622L281.597 67.6516C281.982 67.6616 282.293 67.9824 282.285 68.3708C282.274 68.7557 281.963 69.061 281.578 69.061H281.566L219.475 67.6811L206.449 98.8026C206.337 99.0708 206.076 99.234 205.801 99.234Z" fill="white" />
	<path d="M146.332 113.716C146.235 113.716 146.138 113.696 146.048 113.654C145.691 113.496 145.531 113.08 145.691 112.725L161.981 75.9886C162.078 75.7709 162.277 75.6173 162.51 75.5783L218.895 66.2717C219.318 66.1917 219.641 66.4679 219.703 66.8508C219.769 67.2356 219.509 67.597 219.128 67.6611L163.116 76.9057L146.977 113.296C146.86 113.558 146.604 113.716 146.332 113.716Z" fill="white" />
	<path d="M96.0938 136.464C95.9963 136.464 95.8956 136.442 95.7981 136.4C95.4446 136.236 95.293 135.817 95.4562 135.463L114.149 95.0166C114.223 94.8535 114.359 94.7253 114.526 94.6572L162.368 75.6197C162.737 75.4816 163.137 75.6547 163.285 76.0141C163.425 76.3755 163.25 76.7859 162.888 76.9295L115.311 95.862L96.7351 136.056C96.6145 136.312 96.3617 136.464 96.0938 136.464Z" fill="white" />
	<path d="M56.9733 165.976C56.8722 165.976 56.7675 165.955 56.674 165.908C56.3205 165.741 56.1689 165.321 56.34 164.971L76.5214 122.374C76.568 122.267 76.6456 122.176 76.7427 122.106L114.373 94.7425C114.68 94.5132 115.123 94.5829 115.357 94.8981C115.586 95.2129 115.516 95.6539 115.201 95.8812L77.7147 123.14L57.6109 165.574C57.4903 165.826 57.2376 165.976 56.9733 165.976Z" fill="white" />
	<path d="M475.015 137.47C474.875 137.47 474.731 137.427 474.611 137.34L418.3 97.4359L413.589 104.364C413.367 104.691 412.931 104.766 412.613 104.551C412.286 104.331 412.205 103.894 412.422 103.571L417.537 96.0504C417.646 95.8932 417.81 95.7881 417.996 95.7531C418.179 95.7201 418.373 95.7627 418.525 95.8717L475.423 136.192C475.738 136.417 475.816 136.856 475.59 137.173C475.454 137.367 475.236 137.47 475.015 137.47Z" fill="white" />
	<path d="M418.123 97.1507C418.019 97.1507 417.909 97.1272 417.808 97.0767L358.077 67.269L347.939 81.2184C347.71 81.5317 347.271 81.6033 346.952 81.3741C346.637 81.1448 346.571 80.7054 346.8 80.3886L357.291 65.9572C357.494 65.679 357.867 65.5938 358.174 65.7415L418.438 95.8174C418.788 95.9905 418.928 96.414 418.753 96.7619C418.629 97.0066 418.38 97.1507 418.123 97.1507Z" fill="white" />
	<path d="M281.58 69.0613C281.433 69.0613 281.282 69.0123 281.153 68.9132C280.846 68.6764 280.788 68.235 281.025 67.9261L296.849 47.3921C297.028 47.1588 297.331 47.0657 297.615 47.1493L358.069 65.6989C358.439 65.8115 358.649 66.2063 358.536 66.5793C358.419 66.9526 358.019 67.1604 357.654 67.0457L297.665 48.6378L282.141 68.785C282 68.9657 281.791 69.0613 281.58 69.0613Z" fill="white" />
	<path d="M219.014 67.6711C218.858 67.6711 218.699 67.6186 218.571 67.5139C218.267 67.2692 218.221 66.8258 218.466 66.5245L239.214 40.8406C239.362 40.6523 239.599 40.5492 239.84 40.5823L297.485 47.1216C297.87 47.1645 298.149 47.5144 298.103 47.9009C298.06 48.2857 297.737 48.5695 297.325 48.5229L240.066 42.0263L219.562 67.4089C219.422 67.58 219.216 67.6711 219.014 67.6711Z" fill="white" />
	<path d="M162.63 76.9786C162.47 76.9786 162.307 76.926 162.179 76.8154C161.88 76.5646 161.841 76.1217 162.089 75.8224L186.994 46.0418C187.11 45.8997 187.281 45.8105 187.464 45.793L239.694 40.5827C240.079 40.5186 240.425 40.8275 240.464 41.2123C240.502 41.6008 240.219 41.9451 239.83 41.9837L187.892 47.1649L163.17 76.7258C163.03 76.893 162.832 76.9786 162.63 76.9786Z" fill="white" />
	<path d="M114.785 96.0185C114.622 96.0185 114.459 95.962 114.327 95.8493C114.032 95.5966 114.001 95.1516 114.249 94.8563L142.24 62.1042C142.321 62.011 142.422 61.939 142.539 61.898L187.294 45.83C187.652 45.6998 188.064 45.8905 188.196 46.2558C188.324 46.6212 188.138 47.0252 187.768 47.1553L143.192 63.1613L115.322 95.7717C115.182 95.9329 114.984 96.0185 114.785 96.0185Z" fill="white" />
	<path d="M475.018 137.47C474.846 137.47 474.675 137.408 474.54 137.284L425.209 91.6139L418.566 96.993C418.267 97.2438 417.82 97.1912 417.575 96.8899C417.33 96.587 417.377 96.1437 417.68 95.8989L424.797 90.1369C425.065 89.9172 425.458 89.9307 425.718 90.166L475.496 136.25C475.779 136.514 475.799 136.959 475.535 137.245C475.398 137.394 475.208 137.47 475.018 137.47Z" fill="white" />
	<path d="M425.238 91.3883C425.102 91.3883 424.967 91.3493 424.85 91.2697L372.165 56.3218L358.284 66.9307C357.977 67.1699 357.534 67.1094 357.301 66.8005C357.06 66.4913 357.118 66.0483 357.429 65.8111L371.71 54.8973C371.951 54.7146 372.274 54.7027 372.527 54.8698L425.627 90.096C425.954 90.3117 426.039 90.7491 425.825 91.0715C425.689 91.2777 425.464 91.3883 425.238 91.3883Z" fill="white" />
	<path d="M372.138 56.1602C372.044 56.1602 371.951 56.1427 371.862 56.1041L318.59 33.2572L297.818 48.3907C297.503 48.616 297.064 48.5519 296.834 48.2351C296.605 47.9222 296.675 47.4813 296.99 47.252L318.085 31.8813C318.283 31.7336 318.551 31.7046 318.776 31.8057L372.413 54.8098C372.771 54.9634 372.938 55.3773 372.783 55.7348C372.67 56.001 372.41 56.1602 372.138 56.1602Z" fill="white" />
	<path d="M239.757 41.9873C239.54 41.9873 239.318 41.8823 239.182 41.688C238.96 41.3712 239.035 40.9302 239.353 40.7065L266.527 21.6185C266.687 21.5078 266.881 21.4708 267.071 21.5038L318.637 31.7613C319.018 31.8369 319.266 32.2063 319.189 32.5892C319.115 32.9701 318.761 33.2284 318.361 33.1408L267.091 22.9458L240.165 41.8592C240.041 41.9467 239.901 41.9873 239.757 41.9873Z" fill="white" />
	<path d="M187.532 47.1967C187.307 47.1967 187.089 47.0876 186.953 46.8894C186.731 46.569 186.813 46.1316 187.135 45.9119L219.277 23.8583C219.386 23.7846 219.511 23.7416 219.643 23.7361L266.901 21.4913C267.301 21.4698 267.62 21.7751 267.636 22.1615C267.655 22.5484 267.356 22.8788 266.967 22.8963L219.907 25.1331L187.928 47.0721C187.808 47.1557 187.672 47.1967 187.532 47.1967Z" fill="white" />
	<path d="M475.016 137.471C474.814 137.471 474.612 137.384 474.472 137.213L433.86 87.7338L425.519 91.331C425.161 91.4843 424.749 91.3211 424.594 90.9637C424.438 90.6059 424.605 90.19 424.959 90.0367L433.79 86.2294C434.078 86.1052 434.412 86.1868 434.61 86.4296L475.56 136.321C475.809 136.62 475.766 137.065 475.463 137.312C475.331 137.419 475.175 137.471 475.016 137.471Z" fill="white" />
	<path d="M434.066 87.5819C433.902 87.5819 433.739 87.5234 433.607 87.4088L389.446 49.1955L372.402 56.1086C372.036 56.2562 371.632 56.0811 371.484 55.7217C371.341 55.3623 371.512 54.95 371.873 54.8043L389.314 47.7285C389.559 47.6274 389.843 47.674 390.041 47.8491L434.528 86.3437C434.82 86.5984 434.855 87.0434 434.602 87.3367C434.458 87.4983 434.264 87.5819 434.066 87.5819Z" fill="white" />
	<path d="M389.583 49.0844C389.463 49.0844 389.343 49.0553 389.237 48.9932L343.86 23.408L318.754 33.1075C318.4 33.2476 317.984 33.0689 317.845 32.7055C317.704 32.3421 317.883 31.9338 318.245 31.7941L343.662 21.976C343.856 21.9 344.082 21.9135 344.261 22.0186L389.925 47.7669C390.268 47.9572 390.384 48.3866 390.194 48.725C390.065 48.9542 389.828 49.0844 389.583 49.0844Z" fill="white" />
	<path d="M343.914 23.3365C343.852 23.3365 343.79 23.3286 343.724 23.3091L299.299 10.8502L267.177 22.8565C266.819 22.9787 266.411 22.806 266.271 22.4406C266.135 22.0772 266.321 21.6709 266.687 21.5367L299.023 9.45081C299.159 9.39628 299.315 9.39429 299.458 9.4313L344.105 21.9527C344.478 22.0577 344.696 22.4482 344.591 22.8215C344.505 23.1324 344.225 23.3365 343.914 23.3365Z" fill="white" />
	<path d="M257.555 11.2311C257.166 11.2311 256.855 10.9199 256.848 10.5334C256.848 10.1465 257.159 9.82575 257.547 9.82217L299.263 9.40625H299.271C299.659 9.40625 299.97 9.7171 299.978 10.104C299.978 10.4904 299.667 10.8092 299.278 10.8152L257.563 11.2311H257.555Z" fill="white" />
	<path d="M475.017 137.47C474.776 137.47 474.547 137.348 474.411 137.126L443.653 85.5015C443.517 85.2818 443.517 85.006 443.653 84.7843C443.781 84.563 444.022 84.4249 444.283 84.4384L455.442 84.8193C455.827 84.8328 456.134 85.1576 456.122 85.5461C456.107 85.9369 455.776 86.2808 455.392 86.2263L445.522 85.8884L475.624 136.405C475.822 136.739 475.713 137.173 475.379 137.371C475.266 137.439 475.142 137.47 475.017 137.47Z" fill="white" />
	<path d="M389.583 49.0849C389.237 49.0849 388.942 48.8361 388.883 48.4883C388.825 48.1034 389.089 47.742 389.474 47.6839L409.376 44.6152L431.12 45.5752C431.508 45.5927 431.808 45.9231 431.792 46.3096C431.776 46.6869 431.466 46.9842 431.088 46.9842C431.077 46.9842 431.065 46.9842 431.057 46.9822L409.453 46.0142L389.688 49.0773C389.653 49.0829 389.618 49.0849 389.583 49.0849Z" fill="white" />
	<path d="M444.253 85.8456C444.059 85.8456 443.861 85.766 443.725 85.6048L408.951 45.7749C408.695 45.4812 408.726 45.0362 409.017 44.7799C409.317 44.5271 409.756 44.5542 410.012 44.8479L444.786 84.6798C445.042 84.9712 445.011 85.4162 444.72 85.6729C444.584 85.7895 444.421 85.8456 444.253 85.8456Z" fill="white" />
	<path d="M409.484 46.0147C409.34 46.0147 409.192 45.9701 409.068 45.8786L372.425 19.2657L344.015 23.3274C343.638 23.38 343.272 23.1137 343.218 22.7288C343.163 22.3439 343.432 21.9885 343.817 21.932L372.507 17.8317C372.697 17.8102 372.872 17.8508 373.02 17.9599L409.9 44.7419C410.211 44.9691 410.281 45.4105 410.051 45.7254C409.915 45.9136 409.702 46.0147 409.484 46.0147Z" fill="white" />
	<path d="M372.609 19.2337C372.527 19.2337 372.449 19.2202 372.372 19.1931L335.371 5.8905L299.361 10.8071C298.996 10.8712 298.627 10.5894 298.569 10.2049C298.518 9.82004 298.79 9.46422 299.175 9.41168L335.351 4.4716C335.46 4.4521 335.577 4.46603 335.686 4.50662L372.846 17.8674C373.215 17.9995 373.402 18.4039 373.269 18.7673C373.164 19.055 372.896 19.2337 372.609 19.2337Z" fill="white" />
	<path d="M431.089 46.9836C430.915 46.9836 430.744 46.9175 430.608 46.789L403.107 20.7186L373.865 7.94055C373.597 7.83945 373.398 7.58313 373.398 7.28184C373.398 6.891 373.702 6.57617 374.09 6.57617H374.118C374.215 6.57617 374.312 6.59766 374.397 6.63667L403.783 19.4764C403.861 19.5095 403.927 19.5544 403.986 19.6106L431.572 45.7669C431.859 46.0351 431.867 46.4801 431.603 46.7619C431.463 46.9076 431.276 46.9836 431.089 46.9836Z" fill="white" />
	<path d="M403.505 20.8275C403.493 20.8275 403.481 20.8275 403.47 20.8255L372.572 19.2339C372.183 19.2144 371.887 18.8821 371.903 18.4936C371.926 18.1067 372.249 17.7684 372.646 17.8269L403.54 19.4206C403.928 19.4401 404.227 19.7704 404.208 20.1589C404.189 20.5342 403.878 20.8275 403.505 20.8275Z" fill="white" />
	<path d="M588.255 143.075C588.061 143.075 587.871 142.998 587.731 142.844L575.872 129.711C575.611 129.421 575.634 128.976 575.922 128.716C575.949 128.689 575.98 128.667 576.011 128.646L559.904 109.138L527.587 78.8949L526.965 78.4515C526.65 78.2243 526.576 77.7833 526.805 77.4684C527.031 77.1516 527.47 77.0855 527.785 77.3108L528.477 77.8103L560.93 108.174L588.8 141.923C589.041 142.218 589.002 142.656 588.714 142.905C588.582 143.019 588.419 143.075 588.255 143.075Z" fill="white" />
	<path d="M626.508 216.498C626.237 216.498 625.976 216.339 625.863 216.07L609.907 178.714L587.654 142.742C587.448 142.412 587.549 141.976 587.879 141.772C588.213 141.57 588.645 141.671 588.851 142.001L611.151 178.067L627.158 215.516C627.309 215.876 627.146 216.288 626.785 216.441C626.695 216.48 626.602 216.498 626.508 216.498Z" fill="white" />
	<path d="M643.53 290.293C643.211 290.293 642.923 290.073 642.846 289.751L634.831 256.008C634.757 255.707 634.889 255.405 635.138 255.248L633.179 246.891C632.872 246.872 632.604 246.652 632.534 246.339L625.821 215.944C625.739 215.567 625.976 215.192 626.353 215.105C626.726 215.015 627.107 215.253 627.197 215.629L636.098 253.083L644.218 289.434C644.303 289.811 644.067 290.188 643.689 290.274C643.635 290.287 643.585 290.293 643.53 290.293Z" fill="white" />
	<path d="M330.573 645.842L276.905 640.958L253.769 636.687L205.761 622.917L159.116 600.154L116.161 569.398L78.9504 532.12L49.2071 490.146L28.1938 445.52L19.1175 422.621L6.09991 371.465L4.15234 322.186L5.51281 286.015L14.9935 237.506L29.3987 199.576L50.0621 156.384L76.5988 122.245L106.416 87.6774C106.673 87.3801 107.116 87.353 107.407 87.6054C107.703 87.8581 107.738 88.3031 107.481 88.5984L77.687 123.137L51.2514 157.121L30.6891 200.13L16.3421 237.893L6.90831 286.176L5.55938 322.184L7.48745 371.265L20.4545 422.187L29.4882 444.96L50.4199 489.439L80.0235 531.216L117.067 568.329L159.836 598.949L206.262 621.608L254.092 635.314L277.096 639.561L330.554 644.441L380.311 638.628L415.019 630.308L462.421 613.239C462.775 613.109 463.187 613.298 463.323 613.665C463.451 614.03 463.264 614.433 462.895 614.565L415.419 631.657L380.556 640.011L330.573 645.842Z" fill="white" />
	<path d="M106.949 88.8416C106.727 88.8416 106.51 88.7346 106.374 88.5384C106.152 88.2215 106.226 87.7861 106.541 87.5628L142.367 61.9856L178.109 37.7322C178.42 37.5164 178.859 37.5901 179.081 37.9129C179.302 38.2297 179.228 38.6627 178.913 38.8884L146.776 61.877C146.457 62.0983 146.017 62.0322 145.792 61.7134C145.734 61.6302 145.695 61.5367 145.675 61.4435L140.653 64.9416C140.72 64.9902 140.782 65.0503 140.832 65.1243C141.05 65.4447 140.968 65.8841 140.645 66.1038L107.345 88.7191C107.225 88.8007 107.089 88.8416 106.949 88.8416Z" fill="white" />
	<path d="M178.506 39.0201C178.215 39.0201 177.942 38.8394 177.841 38.5497C177.713 38.1863 177.9 37.7859 178.261 37.6537L220.043 22.3284L257.327 9.85921C257.689 9.741 258.089 9.93125 258.217 10.2946C258.345 10.658 258.155 11.0544 257.794 11.1886L225.753 22.9581C225.38 23.0998 224.979 22.9035 224.847 22.5402C224.808 22.4351 224.797 22.3264 224.808 22.2214L220.509 23.6574L217.419 24.7905C217.528 24.8721 217.61 24.9867 217.656 25.1209C217.78 25.4902 217.582 25.8906 217.213 26.0128L178.728 38.9831C178.654 39.0086 178.58 39.0201 178.506 39.0201Z" fill="white" />
	<path d="M453.705 32.0828C453.619 32.0828 453.533 32.0673 453.452 32.0363L413.711 16.8236L373.966 7.97109L335.411 5.87438L299.596 5.56314L257.647 11.2264C257.27 11.2845 256.908 11.0087 256.854 10.6218C256.803 10.2374 257.071 9.88153 257.46 9.83098L299.506 4.16016L335.453 4.46742L374.156 6.57965L414.115 15.4787L453.953 30.7209C454.319 30.8606 454.497 31.2669 454.361 31.6303C454.253 31.9101 453.984 32.0828 453.705 32.0828Z" fill="white" />
	<path d="M491.508 53.3619C491.252 53.3619 491.007 53.2222 490.883 52.977C490.704 52.6291 490.844 52.2056 491.19 52.0305L491.8 51.7197C492.15 51.5469 492.573 51.6811 492.749 52.0289C492.923 52.3748 492.787 52.7983 492.441 52.975L491.831 53.2862C491.73 53.3388 491.617 53.3619 491.508 53.3619Z" fill="white" />
	<path d="M610.554 179.143C610.348 179.143 610.146 179.052 610.006 178.879L593.77 158.714C593.529 158.411 593.579 157.968 593.879 157.723C594.182 157.48 594.621 157.529 594.87 157.83L611.106 177.997C611.347 178.3 611.297 178.743 610.997 178.986C610.865 179.091 610.709 179.143 610.554 179.143Z" fill="white" />
	<path d="M434.065 87.5812C433.731 87.5812 433.432 87.336 433.374 86.9941C433.308 86.6093 433.564 86.2479 433.949 86.1818L444.137 84.4465C444.529 84.3939 444.883 84.6407 444.949 85.0236C445.015 85.4065 444.759 85.7699 444.374 85.8359L434.186 87.5693C434.143 87.5752 434.104 87.5812 434.065 87.5812Z" fill="white" />
	<path d="M435.511 27.9199C435.464 27.9199 435.41 27.9143 435.359 27.9044L403.353 20.8091C402.972 20.7255 402.735 20.3506 402.817 19.9697C402.902 19.5908 403.287 19.3476 403.657 19.4332L435.666 26.5285C436.047 26.6121 436.284 26.9874 436.199 27.3683C436.125 27.6966 435.837 27.9199 435.511 27.9199Z" fill="white" />
	<path d="M555.985 105.215C555.783 105.215 555.581 105.128 555.441 104.957L553.396 102.477L527.252 78.0194L499.06 57.606C498.822 57.8002 498.476 57.8141 498.209 57.6235L494.675 55.0623L467.229 40.092L453.348 31.9841C453.018 31.7919 452.901 31.366 453.092 31.0301C453.286 30.6938 453.706 30.5772 454.04 30.7599L492.459 51.7294L495.437 53.8826L498.974 55.8121L528.146 76.9352L554.419 101.517L556.529 104.063C556.774 104.362 556.732 104.805 556.432 105.052C556.3 105.163 556.14 105.215 555.985 105.215Z" fill="white" />
	<path d="M467.128 88.6925C467.082 88.6925 467.031 88.6866 466.985 88.677L455.269 86.2126C455.079 86.172 454.916 86.0573 454.815 85.8937L430.49 46.6489C430.338 46.4097 430.35 46.1028 430.513 45.8716C430.672 45.6403 430.96 45.5313 431.236 45.5898L453.765 50.4889C453.998 50.5394 454.192 50.7086 454.274 50.9343L467.789 87.7441C467.875 87.9849 467.828 88.2531 467.661 88.4494C467.525 88.605 467.331 88.6925 467.128 88.6925ZM455.852 84.8951L466.029 87.0368L453.089 51.7832L432.561 47.3191L455.852 84.8951Z" fill="white" />
</svg>
