<svg width="650" height="700" viewBox="0 0 650 700" fill="none" xmlns="http://www.w3.org/2000/svg">
	<path d="M0 42.9532V657.016C0.00411388 658.348 0.401467 659.649 1.14223 660.757C1.883 661.864 2.9342 662.728 4.16403 663.24C5.39385 663.753 6.74755 663.89 8.05538 663.636C9.3632 663.382 10.5669 662.748 11.5156 661.813L331.25 350L11.5156 38.1564C10.5669 37.221 9.3632 36.5866 8.05538 36.3326C6.74755 36.0786 5.39385 36.2164 4.16403 36.7287C2.9342 37.241 1.883 38.1049 1.14223 39.2123C0.401467 40.3196 0.00411388 41.621 0 42.9532Z" fill="white" />
	<path d="M465.312 221.875L64.4062 1.00002L64.1562 0.859395C57.25 -2.89061 50.6875 6.45315 56.3437 11.8906L370.609 312.391L465.312 221.875Z" fill="white" />
	<path d="M56.375 688.109C50.6875 693.547 57.25 702.891 64.1875 699.141L64.4375 699L465.312 478.125L370.609 387.578L56.375 688.109Z" fill="white" />
	<path d="M627.156 310.938L515.203 249.281L409.938 350L515.203 450.672L627.156 389.063C657.609 372.234 657.609 327.766 627.156 310.938Z" fill="white" />
</svg>
