<svg xmlns="http://www.w3.org/2000/svg" width="46" height="26" viewBox="0 0 46 26" fill="none">
	<path d="M10.2126 10.8601L7.65088 10.8601L10.9783 0.999438L14.1516 0.999438L17.479 10.8601L14.9172 10.8601L12.601 3.48386H12.524L10.2126 10.8601ZM9.87074 6.97938L15.2254 6.97938L15.2254 8.78973L9.87074 8.78973L9.87074 6.97938Z" fill="#0D0A2C" />
	<path d="M27.0289 4.572L24.6213 4.572C24.5892 4.32484 24.5234 4.10175 24.4239 3.90274C24.3243 3.70373 24.1927 3.53361 24.029 3.39238C23.8653 3.25114 23.6711 3.14361 23.4463 3.06979C23.2248 2.99275 22.9793 2.95423 22.7096 2.95423C22.2313 2.95423 21.8188 3.07139 21.4721 3.30571C21.1286 3.54003 20.8637 3.87867 20.6775 4.32163C20.4946 4.76459 20.4031 5.30063 20.4031 5.92976C20.4031 6.58457 20.4962 7.13345 20.6823 7.57641C20.8718 8.01616 21.1366 8.34838 21.4769 8.57307C21.8204 8.79455 22.2265 8.90529 22.6952 8.90529C22.9584 8.90529 23.1976 8.87158 23.4126 8.80418C23.6309 8.73677 23.8219 8.63887 23.9857 8.51048C24.1526 8.37887 24.289 8.21999 24.395 8.03381C24.5041 7.84443 24.5796 7.63098 24.6213 7.39345L27.0289 7.40789C26.9872 7.84443 26.8604 8.27455 26.6485 8.69825C26.4399 9.12195 26.1526 9.50874 25.7866 9.85861C25.4206 10.2053 24.9744 10.4813 24.4479 10.6868C23.9247 10.8922 23.3244 10.9949 22.647 10.9949C21.7546 10.9949 20.9552 10.7991 20.249 10.4075C19.5459 10.0127 18.9906 9.43812 18.5829 8.68381C18.1752 7.92949 17.9713 7.01148 17.9713 5.92976C17.9713 4.84483 18.1784 3.92521 18.5925 3.1709C19.0066 2.41658 19.5668 1.84363 20.273 1.45203C20.9793 1.06042 21.7706 0.864624 22.647 0.864624C23.2441 0.864624 23.7963 0.94808 24.3035 1.11499C24.8107 1.27869 25.2569 1.51943 25.6421 1.83721C26.0274 2.15177 26.3404 2.53856 26.5811 2.99757C26.8219 3.45657 26.9712 3.98138 27.0289 4.572Z" fill="#0D0A2C" />
	<path d="M28.3929 10.8601L28.3929 0.999438L30.7765 0.999438L30.7765 4.95718L34.6624 4.95718L34.6624 0.999438L37.0412 0.999438L37.0412 10.8601L34.6624 10.8601V6.89753L30.7765 6.89753L30.7765 10.8601L28.3929 10.8601Z" fill="#0D0A2C" />
	<path d="M0.126343 17.6297L0.126343 16.5303L6.67733 16.5303L6.67733 17.6297L4.03627 17.6297L4.03627 24.9949H2.76327L2.76327 17.6297L0.126343 17.6297Z" fill="black" />
	<path d="M7.36652 24.9949L7.36652 18.6464H8.56099L8.56099 19.6549H8.62712C8.74285 19.3132 8.94675 19.0446 9.23882 18.8489C9.53365 18.6506 9.86706 18.5514 10.239 18.5514C10.3162 18.5514 10.4071 18.5541 10.5118 18.5596C10.6193 18.5651 10.7033 18.572 10.7639 18.5803L10.7639 19.7624C10.7143 19.7486 10.6262 19.7334 10.4994 19.7169C10.3727 19.6976 10.2459 19.688 10.1192 19.688C9.8271 19.688 9.56672 19.75 9.33802 19.874C9.11207 19.9952 8.93297 20.1646 8.80071 20.3823C8.66845 20.5972 8.60233 20.8425 8.60233 21.118L8.60233 24.9949H7.36652Z" fill="black" />
	<path d="M13.6241 25.1354C13.2218 25.1354 12.8581 25.061 12.5329 24.9122C12.2078 24.7607 11.9501 24.5416 11.76 24.2551C11.5727 23.9685 11.479 23.6172 11.479 23.2011C11.479 22.8429 11.5479 22.5481 11.6856 22.3166C11.8234 22.0852 12.0094 21.9019 12.2436 21.7669C12.4778 21.6319 12.7396 21.53 13.0289 21.4611C13.3182 21.3922 13.613 21.3398 13.9134 21.304C14.2936 21.2599 14.6022 21.2241 14.8392 21.1965C15.0762 21.1662 15.2484 21.118 15.3558 21.0519C15.4633 20.9858 15.517 20.8783 15.517 20.7295V20.7006C15.517 20.3396 15.4151 20.0599 15.2112 19.8616C15.01 19.6632 14.7097 19.564 14.3102 19.564C13.8941 19.564 13.5662 19.6563 13.3265 19.8409C13.0895 20.0227 12.9256 20.2253 12.8346 20.4485L11.6732 20.1839C11.811 19.7982 12.0121 19.4868 12.2767 19.2499C12.5439 19.0101 12.8512 18.8365 13.1983 18.7291C13.5455 18.6189 13.9106 18.5638 14.2936 18.5638C14.5471 18.5638 14.8158 18.5941 15.0996 18.6547C15.3861 18.7125 15.6534 18.82 15.9014 18.9771C16.1521 19.1341 16.3574 19.3587 16.5172 19.6508C16.677 19.9401 16.757 20.3162 16.757 20.7791L16.757 24.9949H15.5501L15.5501 24.1269H15.5005C15.4206 24.2867 15.3007 24.4438 15.1409 24.5981C14.9811 24.7524 14.7758 24.8805 14.5251 24.9825C14.2743 25.0844 13.974 25.1354 13.6241 25.1354ZM13.8927 24.1435C14.2344 24.1435 14.5265 24.076 14.7689 23.9409C15.0142 23.8059 15.2002 23.6296 15.3269 23.4119C15.4564 23.1915 15.5212 22.9559 15.5212 22.7051L15.5212 21.8868C15.4771 21.9309 15.3917 21.9722 15.2649 22.0108C15.1409 22.0466 14.999 22.0783 14.8392 22.1058C14.6794 22.1306 14.5237 22.1541 14.3722 22.1761C14.2206 22.1954 14.0939 22.2119 13.9919 22.2257C13.7522 22.256 13.5331 22.307 13.3347 22.3786C13.1391 22.4503 12.982 22.5536 12.8636 22.6886C12.7478 22.8209 12.69 22.9972 12.69 23.2176C12.69 23.5235 12.8029 23.7549 13.0289 23.912C13.2548 24.0663 13.5428 24.1435 13.8927 24.1435Z" fill="black" />
	<path d="M19.6388 21.2255L19.6388 24.9949H18.403L18.403 18.6464L19.5892 18.6464L19.5892 19.6797H19.6677C19.8137 19.3435 20.0424 19.0735 20.3538 18.8696C20.6679 18.6657 21.0633 18.5638 21.54 18.5638C21.9726 18.5638 22.3515 18.6547 22.6766 18.8365C23.0017 19.0156 23.2539 19.2829 23.433 19.6384C23.6121 19.9938 23.7016 20.4333 23.7016 20.9568L23.7016 24.9949H22.4658L22.4658 21.1056C22.4658 20.6455 22.346 20.2859 22.1062 20.0269C21.8665 19.7651 21.5372 19.6342 21.1184 19.6342C20.8319 19.6342 20.577 19.6962 20.3538 19.8202C20.1334 19.9442 19.9584 20.1261 19.8289 20.3658C19.7021 20.6028 19.6388 20.8893 19.6388 21.2255Z" fill="black" />
	<path d="M30.1162 20.1963L28.9961 20.3947C28.9493 20.2514 28.8749 20.1151 28.773 19.9855C28.6738 19.856 28.5387 19.75 28.3679 19.6673C28.1971 19.5846 27.9835 19.5433 27.7273 19.5433C27.3773 19.5433 27.0853 19.6218 26.8511 19.7789C26.6168 19.9332 26.4997 20.133 26.4997 20.3782C26.4997 20.5904 26.5783 20.7612 26.7353 20.8907C26.8924 21.0202 27.1459 21.1263 27.4958 21.2089L28.5043 21.4404C29.0884 21.5754 29.5238 21.7835 29.8104 22.0645C30.0969 22.3456 30.2402 22.7106 30.2402 23.1598C30.2402 23.54 30.13 23.8789 29.9096 24.1765C29.6919 24.4714 29.3874 24.7028 28.9961 24.8709C28.6076 25.039 28.1571 25.123 27.6446 25.123C26.9337 25.123 26.3537 24.9715 25.9046 24.6684C25.4554 24.3625 25.1799 23.9285 25.0779 23.3664L26.2724 23.1846C26.3468 23.4959 26.4997 23.7315 26.7312 23.8913C26.9626 24.0484 27.2644 24.1269 27.6363 24.1269C28.0414 24.1269 28.3652 24.0429 28.6076 23.8748C28.8501 23.704 28.9713 23.4959 28.9713 23.2507C28.9713 23.0523 28.8969 22.8856 28.7482 22.7506C28.6021 22.6156 28.3776 22.5136 28.0745 22.4447L26.9998 22.2092C26.4074 22.0741 25.9693 21.8592 25.6855 21.5644C25.4045 21.2696 25.2639 20.8962 25.2639 20.4443C25.2639 20.0696 25.3686 19.7417 25.5781 19.4606C25.7875 19.1796 26.0768 18.9605 26.446 18.8035C26.8152 18.6437 27.2382 18.5638 27.7149 18.5638C28.401 18.5638 28.941 18.7125 29.3351 19.0101C29.7291 19.305 29.9895 19.7004 30.1162 20.1963Z" fill="black" />
	<path d="M34.6203 18.6464V19.6384L31.0327 19.6384L31.0327 18.6464L34.6203 18.6464ZM32.0164 24.9949L32.0164 17.9107C32.0164 17.5139 32.1032 17.1847 32.2768 16.9229C32.4504 16.6584 32.6805 16.4614 32.967 16.3319C33.2536 16.1996 33.565 16.1335 33.9011 16.1335C34.1491 16.1335 34.3613 16.1541 34.5376 16.1955C34.714 16.2341 34.8448 16.2699 34.9303 16.3029L34.6409 17.3032C34.5831 17.2866 34.5087 17.2673 34.4178 17.2453C34.3268 17.2205 34.2166 17.2081 34.0871 17.2081C33.7868 17.2081 33.5718 17.2825 33.4423 17.4313C33.3156 17.5801 33.2522 17.795 33.2522 18.076L33.2522 24.9949L32.0164 24.9949Z" fill="black" />
	<path d="M38.3814 25.123C37.7559 25.123 37.2172 24.9894 36.7654 24.7221C36.3162 24.4521 35.969 24.0732 35.7238 23.5855C35.4813 23.095 35.3601 22.5205 35.3601 21.862C35.3601 21.2117 35.4813 20.6386 35.7238 20.1426C35.969 19.6466 36.3107 19.2595 36.7488 18.9812C37.1897 18.7029 37.705 18.5638 38.2946 18.5638C38.6528 18.5638 39 18.623 39.3362 18.7415C39.6723 18.86 39.974 19.046 40.2413 19.2994C40.5086 19.5529 40.7194 19.8822 40.8737 20.2873C41.028 20.6896 41.1051 21.1786 41.1051 21.7545L41.1051 22.1926L36.0586 22.1926L36.0586 21.2668L39.8941 21.2668C39.8941 20.9417 39.828 20.6537 39.6957 20.403C39.5635 20.1495 39.3775 19.9497 39.1378 19.8037C38.9008 19.6577 38.6225 19.5846 38.3029 19.5846C37.9557 19.5846 37.6526 19.6701 37.3936 19.8409C37.1373 20.009 36.9389 20.2294 36.7984 20.5022C36.6607 20.7722 36.5918 21.0657 36.5918 21.3825L36.5918 22.1058C36.5918 22.5302 36.6662 22.8911 36.815 23.1887C36.9665 23.4863 37.1773 23.7136 37.4473 23.8707C37.7173 24.025 38.0328 24.1021 38.3938 24.1021C38.628 24.1021 38.8416 24.0691 39.0344 24.0029C39.2273 23.934 39.394 23.8321 39.5345 23.6971C39.6751 23.5621 39.7825 23.3954 39.8569 23.197L41.0266 23.4078C40.9329 23.7522 40.7648 24.0539 40.5224 24.3129C40.2826 24.5692 39.9809 24.7689 39.6172 24.9122C39.2562 25.0527 38.8443 25.123 38.3814 25.123Z" fill="black" />
	<path d="M42.4763 24.9949L42.4763 18.6464H43.6708V19.6549H43.7369C43.8526 19.3132 44.0565 19.0446 44.3486 18.8489C44.6434 18.6506 44.9768 18.5514 45.3488 18.5514C45.426 18.5514 45.5169 18.5541 45.6216 18.5596C45.729 18.5651 45.8131 18.572 45.8737 18.5803V19.7624C45.8241 19.7486 45.7359 19.7334 45.6092 19.7169C45.4824 19.6976 45.3557 19.688 45.2289 19.688C44.9369 19.688 44.6765 19.75 44.4478 19.874C44.2218 19.9952 44.0427 20.1646 43.9105 20.3823C43.7782 20.5972 43.7121 20.8425 43.7121 21.118L43.7121 24.9949H42.4763Z" fill="black" />
</svg>
