<svg xmlns="http://www.w3.org/2000/svg" width="56" height="24" viewBox="0 0 56 24" fill="none">
	<path fill-rule="evenodd" clip-rule="evenodd" d="M8.02152 4.87623C9.04361 4.96245 10.0657 4.35892 10.7045 3.59373C11.3326 2.80699 11.7479 1.75082 11.6414 0.673096C10.7364 0.716205 9.61853 1.27662 8.97973 2.06336C8.39416 2.74233 7.89376 3.84161 8.02152 4.87623ZM20.1812 18.7573L20.1812 1.95555L26.4103 1.95555C29.626 1.95555 31.8727 4.19722 31.8727 7.47351C31.8727 10.7498 29.5834 13.013 26.3251 13.013L22.758 13.013L22.758 18.7573L20.1812 18.7573ZM11.631 5.08096C10.7304 5.0285 9.90873 5.35508 9.24502 5.61887C8.8179 5.78862 8.45621 5.93237 8.18105 5.93237C7.87225 5.93237 7.49563 5.78093 7.07277 5.6109C6.51869 5.38811 5.88522 5.1334 5.22092 5.14563C3.69827 5.16718 2.28209 6.04014 1.50479 7.4304C-0.0923996 10.2109 1.08952 14.3278 2.63347 16.5911C3.38948 17.7119 4.29455 18.9405 5.48712 18.8974C6.01178 18.8774 6.38919 18.7153 6.77977 18.5475C7.22943 18.3544 7.69656 18.1538 8.42595 18.1538C9.13005 18.1538 9.57675 18.3492 10.0055 18.5367C10.4133 18.7151 10.8048 18.8864 11.3861 18.8759C12.6212 18.8543 13.3985 17.755 14.1545 16.6342C14.9704 15.4312 15.3289 14.2572 15.3833 14.079L15.3897 14.0584C15.3884 14.0571 15.3783 14.0524 15.3605 14.0442C15.0878 13.9178 13.0033 12.9519 12.9833 10.3618C12.9632 8.1878 14.6367 7.08631 14.9001 6.91292C14.9161 6.90237 14.9269 6.89525 14.9318 6.89154C13.867 5.29651 12.206 5.12407 11.631 5.08096ZM36.5794 18.8867C38.1978 18.8867 39.6992 18.0569 40.3807 16.742H40.4339L40.4339 18.7574L42.819 18.7574L42.819 10.3942C42.819 7.96936 40.9024 6.40666 37.9529 6.40666C35.2164 6.40666 33.1933 7.99092 33.1188 10.1679L35.44 10.1679C35.6317 9.1333 36.5794 8.45434 37.8784 8.45434C39.4543 8.45434 40.3381 9.19797 40.3381 10.5667V11.4935L37.1224 11.6875C34.1303 11.8707 32.5118 13.1101 32.5118 15.2656C32.5118 17.4426 34.1836 18.8867 36.5794 18.8867ZM37.2709 16.8929C35.8975 16.8929 35.0245 16.2247 35.0245 15.2008C35.0245 14.1447 35.8656 13.5304 37.4732 13.4334L40.3372 13.2501V14.1985C40.3372 15.772 39.017 16.8929 37.2709 16.8929ZM50.7302 19.4148C49.6974 22.357 48.5154 23.3269 46.0025 23.3269C45.8109 23.3269 45.172 23.3054 45.0229 23.2623L45.0229 21.2469C45.1826 21.2685 45.5766 21.29 45.7789 21.29C46.9183 21.29 47.5571 20.8051 47.9511 19.5441L48.1854 18.8005L43.8197 6.56831L46.5136 6.56831L49.5483 16.4942H49.6015L52.6362 6.56831L55.2556 6.56831L50.7302 19.4148ZM22.7578 4.15416L25.7283 4.15416C27.9641 4.15416 29.2417 5.36122 29.2417 7.48434C29.2417 9.60746 27.9641 10.8253 25.7176 10.8253L22.7578 10.8253L22.7578 4.15416Z" fill="black" />
</svg>
