<svg xmlns="http://www.w3.org/2000/svg" width="56" height="24" viewBox="0 0 56 24" fill="none">
	<path fill-rule="evenodd" clip-rule="evenodd" d="M25.8909 18.317L25.8909 11.7481H29.2817C30.6711 11.7481 31.8438 11.2826 32.7999 10.3645L33.0293 10.1317C34.7757 8.23088 34.661 5.26968 32.7999 3.51107C31.8693 2.58004 30.5946 2.07573 29.2817 2.10159L23.8386 2.10159L23.8386 18.317H25.8909ZM25.891 9.75657V4.0928L29.3329 4.0928C30.0722 4.0928 30.7734 4.37729 31.296 4.89452C32.4051 5.98073 32.4306 7.79106 31.3598 8.91606C30.8371 9.47209 30.0977 9.78243 29.3329 9.75657H25.891ZM42.6024 8.08869C41.7229 7.27404 40.5246 6.86025 39.0077 6.86025C37.0574 6.86025 35.5915 7.58438 34.6227 9.01972L36.4328 10.1706C37.0956 9.18782 38.0007 8.69645 39.1479 8.69645C39.8745 8.69645 40.5756 8.968 41.1237 9.45937C41.6591 9.92489 41.965 10.5973 41.965 11.3085V11.7869C41.1747 11.3473 40.1804 11.1145 38.9567 11.1145C37.529 11.1145 36.3818 11.4507 35.5277 12.1361C34.6737 12.8214 34.2403 13.7266 34.2403 14.8775C34.2148 15.9249 34.6609 16.9205 35.4512 17.593C36.2543 18.3171 37.2741 18.6792 38.4723 18.6792C39.8873 18.6792 41.009 18.0455 41.8631 16.7783H41.9523V18.3171H43.9154V11.4766C43.9154 10.0413 43.482 8.90334 42.6024 8.08869ZM37.0322 16.274C36.6115 15.9637 36.3566 15.4593 36.3566 14.9162C36.3566 14.3085 36.637 13.8042 37.1852 13.4033C37.7461 13.0025 38.4472 12.7956 39.2758 12.7956C40.4231 12.7826 41.3154 13.0413 41.9528 13.5585C41.9528 14.4378 41.6086 15.2007 40.933 15.8473C40.3211 16.468 39.4925 16.8171 38.6257 16.8171C38.052 16.83 37.4911 16.6361 37.0322 16.274ZM48.3261 23.1921L55.1841 7.2223L52.9533 7.2223L49.7792 15.1878H49.741L46.4905 7.2223H44.2597L48.7595 17.6059L46.21 23.1921H48.3261Z" fill="#3C4043" />
	<path d="M18.8047 10.3257C18.8047 9.69211 18.7537 9.05849 18.6518 8.43781L9.99744 8.43781V12.0197H14.9555C14.7516 13.1705 14.0888 14.205 13.1201 14.8516L13.1201 17.1791H16.0771C17.8106 15.5628 18.8047 13.1705 18.8047 10.3257Z" fill="#4285F4" />
	<path d="M9.9977 19.43C12.4707 19.43 14.5612 18.6023 16.0781 17.1798L13.1208 14.8519C12.2922 15.421 11.2342 15.7443 9.9977 15.7443C7.60123 15.7443 5.57443 14.1018 4.84784 11.9033H1.80127L1.80127 14.3088C3.35643 17.4513 6.53047 19.43 9.9977 19.43Z" fill="#34A853" />
	<path d="M4.84776 11.9034C4.46532 10.7525 4.46532 9.49822 4.84776 8.33443V5.9422L1.80105 5.9422C0.48803 8.56719 0.48803 11.6706 1.80105 14.2956L4.84776 11.9034Z" fill="#FBBC04" />
	<path d="M9.9977 4.4943C11.3107 4.46843 12.5726 4.9728 13.5159 5.89101L16.1418 3.22692C14.472 1.64916 12.2794 0.782681 9.9977 0.808546C6.53047 0.808546 3.35643 2.80015 1.80127 5.94274L4.84784 8.34817C5.57443 6.13672 7.60123 4.4943 9.9977 4.4943Z" fill="#EA4335" />
</svg>
