<svg xmlns="http://www.w3.org/2000/svg" width="60" height="14" viewBox="0 0 60 14" fill="none">
	<path d="M38.8222 5.13817C37.8235 4.23581 36.6176 3.79471 35.2236 3.79471C33.8486 3.79471 32.6427 4.23637 31.6434 5.13817C30.6446 6.02093 30.1369 7.24964 30.1369 8.82373C30.1369 10.3978 30.6446 11.6254 31.6434 12.5278C32.6422 13.4105 33.8486 13.8522 35.2236 13.8522C36.6176 13.8522 37.8235 13.4105 38.8222 12.5278C39.84 11.6254 40.3478 10.3973 40.3478 8.82373C40.3478 7.2502 39.8395 6.02093 38.8222 5.13817ZM33.3403 10.8384C32.8135 10.3206 32.5481 9.64828 32.5481 8.82317C32.5481 7.99806 32.8112 7.32633 33.3403 6.82701C33.5856 6.57803 33.879 6.38158 34.2027 6.24964C34.5264 6.1177 34.8735 6.05302 35.223 6.05956C35.5754 6.05296 35.9256 6.11752 36.2524 6.24939C36.5793 6.38126 36.8762 6.57772 37.1254 6.82701C37.6706 7.32633 37.936 7.9975 37.936 8.82317C37.936 9.64884 37.6729 10.32 37.1254 10.8384C36.5985 11.3371 35.9575 11.5868 35.223 11.5868C34.8753 11.5923 34.53 11.529 34.2069 11.4006C33.8838 11.2722 33.5892 11.0811 33.3403 10.8384ZM43.9106 13.5829L43.9106 0.41254L41.5369 0.41254L41.5369 13.5829L43.9106 13.5829ZM51.572 4.0634L51.572 9.31857C51.572 10.5848 50.9002 11.4245 49.6216 11.4245C48.321 11.4245 47.6671 10.5859 47.6671 9.31857L47.6671 4.0634L45.2889 4.0634L45.2889 9.72161C45.2889 11.9137 46.6454 13.8516 49.6216 13.8516H49.64C52.5977 13.8516 53.9519 11.8706 53.9519 9.72161L53.9519 4.0634L51.572 4.0634ZM27.6109 4.0634L25.2371 10.512L22.8634 4.0634L20.3391 4.0634L24.127 13.5835L26.3507 13.5835L30.138 4.0634L27.6109 4.0634ZM20.3503 8.55448C20.3503 7.17295 19.9175 6.04053 19.0694 5.13817C18.2212 4.23581 17.1301 3.79471 15.7921 3.79471C14.4171 3.79471 13.2482 4.27499 12.2875 5.21486C11.3447 6.15584 10.875 7.34536 10.875 8.82317C10.875 10.301 11.3458 11.5107 12.269 12.4505C13.2118 13.3915 14.3421 13.8516 15.6795 13.8516C17.7342 13.8516 19.1841 12.9302 20.0681 11.0684L18.2979 10.0317C17.7151 11.2022 16.8658 11.7782 15.7171 11.7782C14.3046 11.7782 13.3058 10.8568 13.1547 9.39862L20.3497 9.39862V8.55392L20.3503 8.55448ZM15.7154 5.63693C17.0528 5.63693 17.9391 6.40438 18.1647 7.63309L13.1535 7.63309C13.5124 6.50066 14.491 5.63693 15.7159 5.63693H15.7154ZM10.8744 13.5829L7.6895 7.90234C9.70437 7.15392 10.7031 5.84908 10.7031 3.94864C10.7054 1.62613 8.8954 0.147766 6.01334 0.147766L0.381348 0.147766L0.381348 13.5829L2.86816 13.5829L2.86816 8.13241L4.97876 8.13241L8.02989 13.5835L10.8744 13.5829ZM6.01334 2.37399C7.48292 2.37399 8.21799 2.96904 8.21799 4.13953C8.21799 5.31002 7.48236 5.90506 6.01334 5.90506L2.86816 5.90506L2.86816 2.37399L6.01334 2.37399ZM57.976 13.8516C56.4482 13.8516 55.2093 12.5888 55.2093 11.0304L55.2093 1.49123L57.583 1.49123L57.583 4.06676L59.6186 4.06676V6.02429L57.583 6.02429L57.583 10.8747C57.583 11.3315 57.9464 11.7015 58.3954 11.7015L59.6186 11.7015L59.6186 13.8516L57.976 13.8516Z" fill="black" />
</svg>
