<svg xmlns="http://www.w3.org/2000/svg" width="56" height="20" viewBox="0 0 56 20" fill="none">
	<path fill-rule="evenodd" clip-rule="evenodd" d="M33.2425 7.78574L35.7342 7.78574C36.5243 7.75723 37.0048 7.6964 37.1777 7.60111C37.4139 7.47099 37.5725 7.21056 37.6514 6.81983C37.7019 6.55976 37.7271 6.17318 37.7271 5.65954C37.7271 5.0304 37.677 4.56405 37.5763 4.2594C37.4325 3.83276 37.0882 3.57287 36.5428 3.47848C36.4351 3.46422 36.1769 3.45664 35.7679 3.45664L33.2425 3.45664L33.2425 7.78574ZM29.2451 15.0775L29.2451 0.201172L36.6926 0.201172C37.7141 0.201172 38.4936 0.284733 39.0291 0.451674C40.254 0.836089 41.0759 1.62315 41.4968 2.81267C41.7141 3.43694 41.8228 4.37686 41.8228 5.6319C41.8228 7.14086 41.7022 8.22535 41.4638 8.88553C40.9862 10.1911 40.0029 10.9431 38.5181 11.1381C38.3435 11.1673 37.6005 11.1935 36.2893 11.2144L35.6256 11.2366L33.2424 11.2366L33.2424 15.0775L29.2451 15.0775ZM9.17283 4.94664L12.8916 4.94664C12.9156 4.61799 12.9276 4.37218 12.9276 4.20777C12.9276 2.20321 12.1186 0.983372 10.5003 0.547882C9.83719 0.369751 8.72487 0.279874 7.16406 0.279874C6.17264 0.279874 5.27133 0.31615 4.45885 0.387077C3.48239 0.465765 2.68018 0.72908 2.0533 1.17757C1.62534 1.46976 1.31523 1.89695 1.12279 2.45967C0.930525 3.02222 0.834303 3.77011 0.834303 4.70282C0.834303 5.92753 1.01233 6.84309 1.36821 7.44823C1.7731 8.16039 2.5845 8.62945 3.80205 8.85757C4.26442 8.9368 5.09006 9.01856 6.2786 9.10356C7.75869 9.20337 8.58793 9.28205 8.76613 9.33854C9.24274 9.48148 9.48149 9.87997 9.48149 10.5349C9.48149 10.8273 9.4532 11.0662 9.39626 11.2509C9.28905 11.5508 9.06471 11.7676 8.72289 11.9022C8.5308 11.974 8.08555 12.0098 7.38785 12.0098L6.02074 12.0098C5.65676 12.0018 5.34719 11.9349 5.09078 11.8073C4.72084 11.6223 4.53543 11.2068 4.53543 10.5609L4.53529 10.4542L4.53507 10.2516L0.816284 10.2516C0.816284 11.462 0.904758 12.3267 1.08351 12.8459C1.40443 13.7786 2.06753 14.398 3.07336 14.7038C3.89287 14.9534 5.34431 15.0775 7.42695 15.0775C8.6746 15.0775 9.60222 15.0203 10.2086 14.9059C11.6559 14.6354 12.586 13.9912 13.0001 12.9714C13.2286 12.4155 13.3426 11.5384 13.3426 10.3407C13.3426 9.82114 13.3178 9.35352 13.2677 8.94023C13.1821 8.24937 12.9138 7.68989 12.4638 7.2618C11.8921 6.71315 10.9706 6.37457 9.69952 6.24625C9.29914 6.20348 8.2953 6.12822 6.68799 6.02138L5.93804 5.96832C5.60883 5.94702 5.34485 5.87574 5.14501 5.75446C4.86608 5.58354 4.72697 5.22692 4.72697 4.68531C4.72697 4.08703 4.8841 3.69846 5.19799 3.51979C5.51206 3.34166 6.15571 3.25269 7.12658 3.25269C8.12628 3.25269 8.73712 3.40736 8.9584 3.71633C9.10111 3.92514 9.17283 4.33537 9.17283 4.94664ZM0.830352 18.0278L1.3878 17.9715C1.42131 18.1597 1.48942 18.2978 1.59193 18.3862C1.69463 18.4745 1.833 18.5185 2.00722 18.5185C2.19172 18.5185 2.33063 18.4794 2.42432 18.401C2.51783 18.3225 2.56449 18.2308 2.56449 18.1258C2.56449 18.0585 2.54485 18.0013 2.50576 17.9538C2.46648 17.9065 2.39801 17.8656 2.30018 17.8304C2.23316 17.8074 2.08073 17.7663 1.84273 17.7071C1.53626 17.6313 1.3215 17.5378 1.1979 17.4268C1.02422 17.2709 0.937373 17.0807 0.937373 16.8562C0.937373 16.712 0.978272 16.5768 1.06025 16.4512C1.14205 16.3254 1.26024 16.2295 1.41428 16.1638C1.56851 16.0982 1.75463 16.0651 1.97263 16.0651C2.32865 16.0651 2.59656 16.1436 2.77655 16.3003C2.95654 16.4571 3.05095 16.6663 3.05996 16.928L2.48576 16.9505C2.46125 16.8044 2.40864 16.6993 2.32793 16.6351C2.24739 16.571 2.1265 16.5389 1.96524 16.5389C1.79877 16.5389 1.66868 16.5732 1.57446 16.6417C1.51374 16.6856 1.48347 16.7444 1.48347 16.8181C1.48347 16.8854 1.51194 16.9428 1.56869 16.9908C1.64076 17.0514 1.81606 17.1148 2.09461 17.1803C2.37297 17.246 2.5789 17.314 2.71241 17.3848C2.84574 17.4553 2.95024 17.5519 3.02573 17.6743C3.10104 17.797 3.13887 17.9482 3.13887 18.1283C3.13887 18.2918 3.09365 18.4447 3.00321 18.5873C2.91276 18.7299 2.78502 18.8358 2.6198 18.9051C2.45459 18.9744 2.24865 19.0092 2.002 19.0092C1.6431 19.0092 1.36744 18.9257 1.17502 18.7586C0.982776 18.5914 0.867828 18.348 0.830352 18.0278ZM3.73457 16.8998H4.28066L4.28066 18.9583H3.73457L3.73457 16.8998ZM3.73449 16.1158L4.28059 16.1158V16.6179H3.73449L3.73449 16.1158ZM6.28346 18.9583H6.82956L6.82956 17.6764C6.82956 17.5172 6.81947 17.3949 6.79947 17.3095C6.77947 17.2239 6.74398 17.1476 6.69299 17.0803C6.642 17.013 6.56687 16.9576 6.4676 16.9142C6.36832 16.8709 6.2586 16.8491 6.13861 16.8491C5.86655 16.8491 5.64062 16.9668 5.46135 17.2023V16.8998H4.95471L4.95471 18.9583H5.5008L5.5008 18.024C5.5008 17.7933 5.5145 17.6354 5.54224 17.5501C5.56981 17.4645 5.6208 17.3959 5.69539 17.3441C5.76998 17.2923 5.85412 17.2664 5.94799 17.2664C6.02114 17.2664 6.08383 17.2846 6.1359 17.3207C6.18797 17.357 6.22545 17.408 6.24869 17.4734C6.27175 17.5387 6.28346 17.6827 6.28346 17.9054L6.28346 18.9583ZM7.93458 17.8847C7.93458 18.1038 7.97638 18.2642 8.06034 18.3658C8.14412 18.4678 8.24754 18.5185 8.37059 18.5185C8.5023 18.5185 8.61364 18.4663 8.70463 18.362C8.79543 18.2577 8.84102 18.103 8.84102 17.8982C8.84102 17.6845 8.79742 17.5257 8.71039 17.4219C8.62319 17.3183 8.51329 17.2664 8.38014 17.2664C8.25078 17.2664 8.14412 17.3174 8.06034 17.419C7.97638 17.521 7.93458 17.676 7.93458 17.8847ZM7.44465 19.0937L8.06389 19.1614C8.07434 19.2381 8.0983 19.2908 8.13578 19.3196C8.18767 19.3608 8.26928 19.3814 8.38063 19.3814C8.52314 19.3814 8.62999 19.3601 8.70133 19.3175C8.74908 19.289 8.78547 19.2431 8.81016 19.1798C8.82691 19.1343 8.83538 19.0511 8.83538 18.9294L8.837 18.629C8.67593 18.8486 8.47162 18.9583 8.2237 18.9583C7.94714 18.9583 7.72841 18.8414 7.56698 18.6069C7.44032 18.4218 7.37708 18.1911 7.37708 17.9153C7.37708 17.5696 7.45996 17.3055 7.6259 17.1229C7.79183 16.9404 7.99831 16.8491 8.24496 16.8491C8.49936 16.8491 8.70926 16.9612 8.87466 17.185L8.87466 16.8998H9.38148L9.38148 18.7502C9.38148 18.9937 9.36148 19.1756 9.3213 19.2958C9.2813 19.4164 9.22509 19.5108 9.15266 19.5793C9.08023 19.6479 8.98366 19.7017 8.86277 19.7405C8.74187 19.7793 8.58909 19.7988 8.40441 19.7988C8.05542 19.7988 7.80787 19.7385 7.66175 19.6181C7.51563 19.4978 7.44266 19.3451 7.44266 19.1601C7.44266 19.1419 7.44338 19.1198 7.44465 19.0937ZM10.5815 16.1158H10.0354L10.0354 18.9583H10.5815L10.5815 16.1158ZM12.4833 17.7571C12.4795 17.5968 12.4386 17.4752 12.3606 17.3916C12.2827 17.3082 12.188 17.2664 12.0763 17.2664C11.9568 17.2664 11.8581 17.3106 11.7802 17.3985C11.7022 17.4864 11.664 17.606 11.6653 17.7571L12.4833 17.7571ZM12.4551 18.3099L12.9956 18.4001C12.9257 18.5985 12.8153 18.7497 12.6645 18.8535C12.5137 18.9574 12.3248 19.0092 12.0984 19.0092C11.7396 19.0092 11.4743 18.8917 11.3022 18.6569C11.1662 18.4689 11.0982 18.2315 11.0982 17.9446C11.0982 17.6024 11.1874 17.334 11.3662 17.14C11.5447 16.946 11.7705 16.8491 12.0434 16.8491C12.3502 16.8491 12.5922 16.9509 12.7695 17.1543C12.9468 17.358 13.0315 17.6697 13.0237 18.0899L11.6557 18.0899C11.6595 18.2519 11.7038 18.3779 11.7885 18.4681C11.8731 18.558 11.9787 18.6031 12.1052 18.6031C12.1911 18.6031 12.2636 18.58 12.3221 18.5337C12.3807 18.4875 12.4252 18.4127 12.4551 18.3099ZM14.8109 16.1158L14.8109 18.9583L16.9674 18.9583V18.479L15.3853 18.479V17.7064L16.8041 17.7064V17.227L15.3853 17.227L15.3853 16.5953L16.9111 16.5953V16.1158L14.8109 16.1158ZM18.9197 18.9583V18.6501C18.8446 18.76 18.7461 18.8473 18.6237 18.9121C18.5014 18.9767 18.3724 19.0092 18.2365 19.0092C18.098 19.0092 17.974 18.9787 17.8639 18.9179C17.754 18.8571 17.6744 18.7715 17.6252 18.6616C17.576 18.5515 17.5515 18.3994 17.5515 18.2052V16.8998H18.0976V17.8466C18.0976 18.1364 18.1075 18.314 18.1277 18.3792C18.1477 18.4449 18.1841 18.4965 18.2371 18.5347C18.29 18.5728 18.3571 18.5918 18.4385 18.5918C18.5315 18.5918 18.6149 18.5665 18.6884 18.5152C18.7621 18.4642 18.8124 18.4008 18.8396 18.325C18.8666 18.2494 18.8803 18.064 18.8803 17.7691V16.8998H19.4264V18.9583H18.9197ZM20.0806 18.9583H20.6267V18.3218C20.6267 17.9713 20.642 17.7408 20.6725 17.6309C20.7029 17.521 20.7447 17.445 20.7979 17.4028C20.851 17.3609 20.9157 17.3398 20.9923 17.3398C21.0712 17.3398 21.157 17.3696 21.2488 17.429L21.415 16.9523C21.3 16.8836 21.1804 16.8491 21.0564 16.8491C20.9685 16.8491 20.8901 16.8718 20.8209 16.9171C20.7517 16.9626 20.6739 17.0543 20.5873 17.1925V16.8998H20.0806V18.9583ZM22.193 17.9291C22.193 18.1343 22.2414 18.2912 22.3385 18.4002C22.4356 18.5092 22.5553 18.5637 22.6978 18.5637C22.8401 18.5637 22.9596 18.5092 23.056 18.4002C23.1524 18.2912 23.2006 18.1329 23.2006 17.9253C23.2006 17.723 23.1524 17.5671 23.056 17.4583C22.9596 17.3493 22.8401 17.2948 22.6978 17.2948C22.5553 17.2948 22.4356 17.3493 22.3385 17.4583C22.2414 17.5671 22.193 17.7243 22.193 17.9291ZM21.6355 17.8998C21.6355 17.7183 21.68 17.5425 21.7692 17.3725C21.8582 17.2026 21.9844 17.0729 22.1478 16.9834C22.311 16.8938 22.4935 16.8491 22.6949 16.8491C23.0061 16.8491 23.261 16.9505 23.4599 17.1536C23.6587 17.3566 23.7581 17.6132 23.7581 17.9233C23.7581 18.2359 23.6576 18.4952 23.4569 18.7008C23.2562 18.9063 23.0034 19.0092 22.6987 19.0092C22.5103 19.0092 22.3305 18.9663 22.1595 18.8809C21.9883 18.7952 21.8582 18.6697 21.7692 18.5042C21.68 18.3387 21.6355 18.1375 21.6355 17.8998ZM26.1108 17.4075V16.5953H26.3868C26.5929 16.5953 26.7299 16.6018 26.7981 16.6148C26.8908 16.6318 26.9673 16.674 27.0279 16.7417C27.0884 16.8094 27.1187 16.8953 27.1187 16.9994C27.1187 17.0841 27.097 17.1582 27.054 17.222C27.0109 17.2858 26.9513 17.3328 26.8754 17.3627C26.7994 17.3927 26.6488 17.4075 26.4236 17.4075H26.1108ZM25.5367 16.1158V18.9583L26.1109 18.9583V17.8868H26.4842C26.7431 17.8868 26.9409 17.8733 27.0777 17.8461C27.1782 17.824 27.2771 17.7793 27.3744 17.7112C27.4717 17.6434 27.552 17.5499 27.6151 17.4311C27.6783 17.3118 27.7099 17.1653 27.7099 16.9908C27.7099 16.7645 27.6551 16.5798 27.5454 16.4371C27.4357 16.2941 27.2996 16.2012 27.1371 16.1586C27.0314 16.1303 26.8042 16.1158 26.4559 16.1158H25.5367ZM29.4262 17.9714C29.3565 17.9948 29.2464 18.0226 29.0957 18.0551C28.9451 18.0874 28.8466 18.1193 28.8004 18.1504C28.7295 18.2011 28.6943 18.2653 28.6943 18.3431C28.6943 18.4198 28.7224 18.4859 28.779 18.5418C28.8358 18.5976 28.9078 18.6256 28.9956 18.6256C29.0934 18.6256 29.1866 18.5931 29.2756 18.5283C29.3411 18.4789 29.3844 18.4186 29.4049 18.3471C29.419 18.3004 29.4262 18.2114 29.4262 18.0802V17.9714ZM28.6943 17.5259L28.2044 17.4356C28.2599 17.2362 28.3554 17.0888 28.4909 16.9929C28.6266 16.8971 28.828 16.8491 29.0952 16.8491C29.3379 16.8491 29.5188 16.878 29.6375 16.9354C29.7562 16.9933 29.84 17.0664 29.8883 17.155C29.9368 17.2436 29.9611 17.4066 29.9611 17.6435L29.9555 18.2806C29.9555 18.4618 29.9641 18.5957 29.9814 18.6817C29.9989 18.7677 30.0315 18.86 30.0793 18.9583H29.5388C29.5243 18.9228 29.5071 18.8699 29.4863 18.7999C29.4773 18.7679 29.4708 18.747 29.4672 18.7367C29.3743 18.8275 29.275 18.8957 29.1692 18.9412C29.0635 18.9865 28.9509 19.0092 28.8309 19.0092C28.6194 19.0092 28.4525 18.9515 28.3307 18.8363C28.2089 18.721 28.148 18.5752 28.148 18.399C28.148 18.2826 28.1758 18.1787 28.2311 18.0873C28.2868 17.996 28.3646 17.926 28.4646 17.8774C28.5648 17.8291 28.7091 17.7863 28.8975 17.75C29.1518 17.7022 29.328 17.6576 29.4262 17.6161V17.5611C29.4262 17.455 29.4002 17.3793 29.3483 17.334C29.2963 17.2889 29.1984 17.2664 29.0543 17.2664C28.957 17.2664 28.8811 17.2857 28.8265 17.3239C28.772 17.3624 28.7278 17.4297 28.6943 17.5259ZM30.9331 16.8998H30.3533L31.1368 18.9641C31.1044 19.0803 31.0577 19.1761 30.9967 19.2516C30.9356 19.3267 30.8417 19.3644 30.7143 19.3644C30.6457 19.3644 30.5682 19.3561 30.4826 19.3389L30.5334 19.7658C30.6342 19.7878 30.7372 19.7988 30.8419 19.7988C30.9453 19.7988 31.0381 19.7878 31.1203 19.7656C31.2024 19.7437 31.2712 19.7127 31.3276 19.6732C31.3839 19.6338 31.4338 19.5822 31.477 19.5189C31.5202 19.4553 31.5658 19.3635 31.6137 19.2429L32.4703 16.8998H31.9072L31.4258 18.3613L30.9331 16.8998ZM32.8964 16.8998H33.3975V17.181C33.5775 16.9597 33.7917 16.8491 34.0403 16.8491C34.1722 16.8491 34.2868 16.8762 34.3839 16.9305C34.481 16.985 34.5607 17.0673 34.6226 17.1772C34.7131 17.0673 34.8109 16.985 34.9154 16.9305C35.0203 16.8762 35.1318 16.8491 35.2507 16.8491C35.4021 16.8491 35.53 16.8798 35.6347 16.9415C35.7393 17.0027 35.8177 17.0931 35.8694 17.2124C35.9067 17.3003 35.9254 17.4427 35.9254 17.6396V18.9583H35.3794V17.7793C35.3794 17.5746 35.3606 17.4427 35.3233 17.3831C35.2729 17.3052 35.1956 17.2664 35.0913 17.2664C35.015 17.2664 34.9433 17.2896 34.8763 17.3364C34.8093 17.3831 34.761 17.4513 34.7315 17.5414C34.7017 17.6313 34.6868 17.7735 34.6868 17.9677V18.9583H34.1407V17.828C34.1407 17.6269 34.1311 17.4977 34.1117 17.4392C34.0924 17.381 34.0625 17.3376 34.0218 17.3091C33.9811 17.2808 33.9261 17.2664 33.8564 17.2664C33.7726 17.2664 33.6971 17.2891 33.6301 17.3344C33.5631 17.3797 33.5151 17.4452 33.4859 17.5306C33.4569 17.6161 33.4425 17.7578 33.4425 17.956V18.9583H32.8964V16.8998ZM37.6843 17.3916C37.7625 17.4752 37.8033 17.5968 37.8072 17.7571H36.9893C36.988 17.606 37.0262 17.4864 37.1042 17.3985C37.1819 17.3106 37.2808 17.2664 37.4 17.2664C37.5117 17.2664 37.6067 17.3082 37.6843 17.3916ZM38.3195 18.4001L37.779 18.3099C37.7491 18.4127 37.7048 18.4875 37.6458 18.5337C37.5873 18.58 37.515 18.6031 37.4291 18.6031C37.3024 18.6031 37.1969 18.558 37.1124 18.4681C37.0277 18.3779 36.9834 18.2519 36.9794 18.0899H38.3476C38.3554 17.6697 38.2705 17.358 38.0932 17.1543C37.9159 16.9509 37.6741 16.8491 37.3673 16.8491C37.0942 16.8491 36.8686 16.946 36.6899 17.14C36.5115 17.334 36.422 17.6024 36.422 17.9446C36.422 18.2315 36.4899 18.4689 36.6259 18.6569C36.7981 18.8917 37.0635 19.0092 37.4221 19.0092C37.6487 19.0092 37.8374 18.9574 37.9884 18.8535C38.1392 18.7497 38.2494 18.5985 38.3195 18.4001ZM40.7781 18.9583H40.232V17.9054C40.232 17.6827 40.2203 17.5387 40.1974 17.4734C40.1742 17.408 40.1365 17.357 40.0845 17.3207C40.0324 17.2846 39.9697 17.2664 39.8965 17.2664C39.8028 17.2664 39.7185 17.2923 39.6441 17.3441C39.5695 17.3959 39.5185 17.4645 39.4908 17.5501C39.4632 17.6354 39.4493 17.7933 39.4493 18.024V18.9583L38.9033 18.9583V16.8998L39.4099 16.8998V17.2023C39.5893 16.9668 39.8151 16.8491 40.0872 16.8491C40.2071 16.8491 40.3171 16.8709 40.4161 16.9142C40.5154 16.9576 40.5907 17.013 40.6417 17.0803C40.6927 17.1476 40.728 17.2239 40.748 17.3095C40.7682 17.3949 40.7781 17.5172 40.7781 17.6764V18.9583ZM42.3898 17.334V16.8998H42.0181V16.1667L41.472 16.4881V16.8998H41.2242V17.334H41.472V18.2338C41.472 18.4268 41.4776 18.5551 41.4893 18.6186C41.5033 18.7079 41.5285 18.7789 41.5651 18.8312C41.6019 18.8837 41.6593 18.9267 41.7375 18.9595C41.8159 18.9926 41.9037 19.0092 42.0015 19.0092C42.1606 19.0092 42.3031 18.9819 42.429 18.9276L42.3813 18.5056C42.2872 18.5405 42.2159 18.558 42.1662 18.558C42.1307 18.558 42.1008 18.5488 42.0759 18.5307C42.0512 18.5125 42.0354 18.4896 42.0285 18.4616C42.0215 18.4338 42.0181 18.3354 42.0181 18.1669V17.334H42.3898ZM42.6971 18.3775L43.2432 18.2929C43.2665 18.3981 43.3135 18.4779 43.3843 18.5326C43.4553 18.5873 43.5544 18.6143 43.682 18.6143C43.8227 18.6143 43.9284 18.5883 43.9992 18.5364C44.047 18.4997 44.0709 18.4512 44.0709 18.3898C44.0709 18.3483 44.0578 18.3137 44.0318 18.2866C44.0045 18.2604 43.9436 18.2364 43.8488 18.2142C43.4076 18.1166 43.1277 18.0276 43.0099 17.9473C42.8463 17.8359 42.7647 17.6809 42.7647 17.4829C42.7647 17.3039 42.8352 17.1536 42.9766 17.0319C43.1182 16.9101 43.3375 16.8491 43.6346 16.8491C43.9174 16.8491 44.1275 16.8948 44.2652 16.9859C44.4026 17.0772 44.4974 17.212 44.5495 17.3905L44.0371 17.4864C44.0149 17.4064 43.9727 17.3449 43.9108 17.3023C43.8486 17.2595 43.7601 17.2382 43.6454 17.2382C43.5005 17.2382 43.3966 17.2582 43.334 17.2988C43.2921 17.3274 43.2713 17.3644 43.2713 17.4098C43.2713 17.449 43.2894 17.4822 43.3258 17.5096C43.3749 17.5459 43.5452 17.5973 43.8362 17.6638C44.1272 17.7302 44.3304 17.8114 44.4459 17.9076C44.5597 18.005 44.617 18.1409 44.617 18.3151C44.617 18.5048 44.5381 18.6679 44.3808 18.8044C44.2232 18.941 43.9904 19.0092 43.682 19.0092C43.4021 19.0092 43.1805 18.9524 43.0173 18.8392C42.8541 18.7257 42.7474 18.5721 42.6971 18.3775ZM47.5445 16.7814L47.9412 17.8361H47.1611L47.5445 16.7814ZM48.3759 18.9583H48.9942L47.8483 16.1158H47.2444L46.1452 18.9583H46.7529L46.9867 18.3155H48.1305L48.3759 18.9583ZM49.9317 18.9583H49.3856V16.8998H49.8922V17.1925C49.9789 17.0543 50.0566 16.9626 50.1259 16.9171C50.1949 16.8718 50.2733 16.8491 50.3614 16.8491C50.4854 16.8491 50.6048 16.8836 50.7199 16.9523L50.5538 17.429C50.4618 17.3696 50.3762 17.3398 50.2973 17.3398C50.2205 17.3398 50.1558 17.3609 50.1027 17.4028C50.0495 17.445 50.0077 17.521 49.9775 17.6309C49.9468 17.7408 49.9317 17.9713 49.9317 18.3218V18.9583ZM52.1747 17.3916C52.2525 17.4752 52.2934 17.5968 52.2974 17.7571H51.4794C51.478 17.606 51.5163 17.4864 51.5943 17.3985C51.6722 17.3106 51.7707 17.2664 51.8904 17.2664C52.0019 17.2664 52.0967 17.3082 52.1747 17.3916ZM52.8097 18.4001L52.2692 18.3099C52.2391 18.4127 52.1948 18.4875 52.1362 18.5337C52.0775 18.58 52.0052 18.6031 51.9191 18.6031C51.7928 18.6031 51.6872 18.558 51.6024 18.4681C51.5179 18.3779 51.4735 18.2519 51.4696 18.0899L52.8378 18.0899C52.8455 17.6697 52.7607 17.358 52.5836 17.1543C52.4061 16.9509 52.1641 16.8491 51.8575 16.8491C51.5845 16.8491 51.3586 16.946 51.1802 17.14C51.0015 17.334 50.9121 17.6024 50.9121 17.9446C50.9121 18.2315 50.9801 18.4689 51.1161 18.6569C51.2882 18.8917 51.5537 19.0092 51.9124 19.0092C52.1389 19.0092 52.3277 18.9574 52.4785 18.8535C52.6293 18.7497 52.7398 18.5985 52.8097 18.4001ZM54.5312 17.9714C54.4616 17.9948 54.3514 18.0226 54.2008 18.0551C54.0501 18.0874 53.9518 18.1193 53.9055 18.1504C53.8345 18.2011 53.7993 18.2653 53.7993 18.3431C53.7993 18.4198 53.8275 18.4859 53.8842 18.5418C53.9408 18.5976 54.0128 18.6256 54.1006 18.6256C54.1984 18.6256 54.2916 18.5931 54.3806 18.5283C54.4462 18.4789 54.4894 18.4186 54.5099 18.3471C54.524 18.3004 54.5312 18.2114 54.5312 18.0802V17.9714ZM53.7991 17.5259L53.3092 17.4356C53.3647 17.2362 53.4602 17.0888 53.5957 16.9929C53.7314 16.8971 53.9328 16.8491 54.2 16.8491C54.4427 16.8491 54.6236 16.878 54.7423 16.9354C54.861 16.9933 54.9448 17.0664 54.9931 17.155C55.0416 17.2436 55.0659 17.4066 55.0659 17.6435L55.0603 18.2806C55.0603 18.4618 55.069 18.5957 55.0863 18.6817C55.1037 18.7677 55.1363 18.86 55.1839 18.9583H54.6436C54.6292 18.9228 54.612 18.8699 54.5911 18.7999C54.5823 18.7679 54.5757 18.747 54.5721 18.7367C54.4791 18.8275 54.38 18.8957 54.2742 18.9412C54.1685 18.9865 54.0557 19.0092 53.9357 19.0092C53.7242 19.0092 53.5573 18.9515 53.4355 18.8363C53.3139 18.721 53.253 18.5752 53.253 18.399C53.253 18.2826 53.2806 18.1787 53.3361 18.0873C53.3916 17.996 53.4694 17.926 53.5694 17.8774C53.6696 17.8291 53.8139 17.7863 54.0024 17.75C54.2566 17.7022 54.4328 17.6576 54.531 17.6161V17.5611C54.531 17.455 54.505 17.3793 54.4531 17.334C54.4012 17.2889 54.3032 17.2664 54.1591 17.2664C54.0618 17.2664 53.986 17.2857 53.9314 17.3239C53.877 17.3624 53.8326 17.4297 53.7991 17.5259ZM47.6882 3.15975L49.5609 9.60837L45.8709 9.60837L47.6882 3.15975ZM45.011 12.5064L50.3556 12.5064L51.1182 15.0775L55.1671 15.0775L50.6497 0.201172L44.6198 0.201172L40.1572 15.0775L44.2929 15.0775L45.011 12.5064Z" fill="#10298E" />
	<path fill-rule="evenodd" clip-rule="evenodd" d="M23.7279 2.2942C25.3767 2.2942 26.8481 3.05491 27.8154 4.24641L28.6771 2.39599C27.3294 1.1202 25.4952 0.333679 23.4722 0.333679C20.3225 0.333679 17.6281 2.23897 16.5223 4.93602L14.842 4.93602L13.8499 7.06636L16.0114 7.06636C15.9952 7.26398 15.9848 7.46179 15.9848 7.66356C15.9848 7.90774 15.9974 8.14904 16.0215 8.38745L14.9351 8.38745L13.9432 10.5185L16.5738 10.5185C17.7112 13.1473 20.3719 14.9929 23.4722 14.9929C25.0347 14.9929 26.4845 14.524 27.6849 13.7231L27.6849 11.1114C26.7182 12.2137 25.3042 12.9104 23.7279 12.9104C21.8853 12.9104 20.2645 11.9587 19.3206 10.5185L24.8293 10.5185L25.8212 8.38745L18.5101 8.38745C18.4725 8.13099 18.4523 7.86894 18.4523 7.60202C18.4523 7.42154 18.4617 7.24287 18.479 7.06636L26.436 7.06636L27.428 4.93602L19.1671 4.93602C20.0807 3.35684 21.7808 2.2942 23.7279 2.2942Z" fill="#FFBE00" />
</svg>
