<svg width="864" height="864" viewBox="0 0 864 864" fill="none" xmlns="http://www.w3.org/2000/svg">
	<path d="M75.252 863.825C56.039 863.825 36.823 856.493 22.163 841.837C-7.15399 812.516 -7.15399 764.982 22.163 735.662L735.657 22.168C764.974 -7.153 812.51 -7.153 841.832 22.168C871.149 51.485 871.149 99.023 841.832 128.343L128.338 841.837C113.678 856.497 94.464 863.825 75.249 863.825H75.252ZM788.749 863.824C769.536 863.824 750.321 856.492 735.66 841.836L22.166 128.343C-7.15099 99.026 -7.15099 51.486 22.166 22.168C51.482 -7.149 99.021 -7.153 128.34 22.168L841.834 735.66C871.151 764.981 871.151 812.515 841.834 841.835C827.177 856.496 807.963 863.828 788.747 863.828L788.749 863.824Z" fill="#c3c9d4" />
</svg>
