<svg width="69" height="21" viewBox="0 0 69 21" fill="none" xmlns="http://www.w3.org/2000/svg">
	<path d="M1 19.4359C3.94692 18.8018 6.37023 14.9349 9.88645 14.2849C11.7605 13.9385 13.2619 14.6127 14.937 15.6604C16.6121 16.708 16.2842 17.1604 20.0515 17.9681C23.1604 18.6346 23.9736 11.4486 27.02 11.7247C30.0664 12.0008 31.4754 3.36094 34.6918 4.08216C37.9081 4.80338 38.5508 2.9387 41.5741 6.47267C44.5975 10.0066 47.3908 1.76919 51.1861 1.04797C54.9814 0.326748 55.9698 7.98164 57.771 7.69315C59.5721 7.40466 61.1938 12.8593 62.7377 13.6526C64.2815 14.446 64.7193 11.564 68 11.564" stroke="#CBFB45" stroke-linecap="round" stroke-linejoin="round" />
	<path d="M9.88645 14.2849C6.37023 14.9349 3.94692 18.8018 1 19.4359V21H68V11.564C64.7193 11.564 64.2815 14.446 62.7377 13.6526C61.1938 12.8593 59.5721 7.40466 57.771 7.69315C55.9698 7.98164 54.9814 0.326748 51.1861 1.04797C47.3908 1.76919 44.5975 10.0066 41.5741 6.47267C38.5508 2.9387 37.9081 4.80338 34.6918 4.08216C31.4754 3.36094 30.0664 12.0008 27.02 11.7247C23.9736 11.4486 23.1604 18.6346 20.0515 17.9681C16.2842 17.1604 16.6121 16.708 14.937 15.6604C13.2619 14.6127 11.7605 13.9385 9.88645 14.2849Z" fill="url(#paint0_linear_101_598)" />
	<defs>
		<linearGradient id="paint0_linear_101_598" x1="34.5" y1="1" x2="34.5" y2="29.366" gradientUnits="userSpaceOnUse">
			<stop stop-color="#45FB99" stop-opacity="0.12" />
			<stop offset="0.998978" stop-color="#39364F" stop-opacity="0" />
		</linearGradient>
	</defs>
</svg>
