<svg width="14" height="16" viewBox="0 0 14 16" fill="none" xmlns="http://www.w3.org/2000/svg">
	<path d="M11.3668 8.50017C11.3474 6.47685 13.0199 5.50171 13.0954 5.4555C12.1562 4.07866 10.691 3.89018 10.1692 3.86815C8.92352 3.74308 7.73816 4.6025 7.10574 4.6025C6.47504 4.6025 5.49848 3.8872 4.46621 3.90754C3.107 3.92644 1.85496 4.69661 1.15516 5.91237C-0.255087 8.36102 0.794682 11.9875 2.16995 13.974C2.84118 14.944 3.64346 16.0383 4.69548 15.9987C5.71028 15.9589 6.09237 15.3443 7.31626 15.3443C8.54114 15.3443 8.88514 15.9987 9.9585 15.9785C11.0475 15.9589 11.7399 14.9878 12.407 14.0138C13.1781 12.8856 13.4957 11.7934 13.5142 11.7367C13.4907 11.7282 11.3888 10.9212 11.3668 8.50017Z" fill="white" />
	<path d="M9.35382 2.55553C9.91289 1.87791 10.288 0.9376 10.1852 0C9.38054 0.031969 8.40485 0.537152 7.82844 1.21266C7.31031 1.8121 6.85686 2.76931 6.97981 3.68728C7.87748 3.75708 8.79447 3.23185 9.35382 2.55553Z" fill="white" />
</svg>
