<svg width="87" height="82" viewBox="0 0 87 82" fill="none" xmlns="http://www.w3.org/2000/svg">
	<path d="M85.1879 9.66809H48.7579C48.3438 9.66418 47.9454 9.83215 47.6524 10.1251C47.3594 10.4181 47.1953 10.8126 47.1953 11.2306V15.2345C45.0234 14.4494 42.7773 13.8907 40.4922 13.5704L40.3321 9.10162L44.5821 9.25396C45.0118 9.28521 45.4258 9.12505 45.7266 8.82037C46.0313 8.5235 46.2031 8.11725 46.2031 7.69537V2.27347C46.2031 1.85941 46.0391 1.46097 45.7461 1.16797C45.4531 0.874998 45.0547 0.710938 44.6406 0.710938H25.7776C25.3636 0.710938 24.969 0.874998 24.6721 1.16797C24.3791 1.46094 24.2151 1.85938 24.2151 2.27347V7.47657C24.2151 7.89063 24.3791 8.28907 24.6721 8.58207C24.969 8.87504 25.3635 9.0391 25.7776 9.0391H30.6135V13.6563H30.6174C23.9807 14.6563 17.7934 17.6133 12.8514 22.1485L9.28892 18.586L13.0077 14.8672V14.8711C13.5976 14.2539 13.5859 13.2852 12.9843 12.6836C12.3827 12.082 11.4101 12.0703 10.7968 12.6602C8.33589 15.0977 3.42959 20.0625 1.02729 22.5704C0.445257 23.1915 0.468697 24.1642 1.07807 24.7579C1.69135 25.3516 2.66397 25.3477 3.26947 24.7501L7.09757 20.8126L10.6445 24.3595C-9.26953 45.8795 6.41397 81.3865 35.7495 81.2895C56.4995 81.5004 73.0385 62.0165 69.2495 41.5945L75.4761 37.6531H85.187C85.601 37.6531 85.9995 37.489 86.2925 37.196C86.5854 36.9031 86.7495 36.5046 86.7495 36.0905V11.2315C86.7495 10.8136 86.5854 10.419 86.2925 10.126C85.9995 9.83302 85.6011 9.66508 85.187 9.66899L85.1879 9.66809ZM48.7579 37.6521H55.8087V47.2615C55.8165 47.8279 56.1251 48.3474 56.6212 48.6209C57.1173 48.8943 57.7228 48.8787 58.2032 48.5818L59.6407 47.6717H59.6446C59.5586 53.0545 57.6563 58.2457 54.2384 62.4057L50.9532 59.3784C50.3165 58.7963 49.3282 58.8354 48.7423 59.4721C48.1603 60.1049 48.1993 61.0932 48.8321 61.6791L52.086 64.6752C48.0587 68.4643 42.836 70.7377 37.313 71.0932V66.8237C37.2974 65.9722 36.6021 65.2925 35.7505 65.2925C34.899 65.2925 34.2036 65.9722 34.188 66.8237V71.0932C28.6099 70.7338 23.336 68.4213 19.29 64.562L22.7314 62.0229H22.7353C23.4111 61.5034 23.5439 60.5424 23.04 59.8549C22.5361 59.1713 21.5752 59.0151 20.8798 59.5073L17.1532 62.2534C14.2157 58.6323 12.411 54.2261 11.9579 49.5854H16.9501C17.8017 49.5697 18.4853 48.8783 18.4853 48.0229C18.4853 47.1713 17.8017 46.476 16.9501 46.4604H11.8798C12.0478 41.1479 13.9892 36.0424 17.3954 31.9604L20.5516 34.8666C21.1883 35.4525 22.1766 35.4134 22.7586 34.7767C23.3446 34.1439 23.3055 33.1556 22.6688 32.5697L19.5633 29.7103C23.5711 25.9994 28.7352 23.7806 34.1883 23.4291V27.4252V27.4213C34.2039 28.2729 34.8992 28.9565 35.7508 28.9565C36.6023 28.9565 37.2977 28.2729 37.3133 27.4213V23.3979V23.4018C40.7821 23.6245 44.1531 24.6088 47.1961 26.2885V36.0893C47.1961 36.5034 47.3601 36.9018 47.6531 37.1948C47.9461 37.4878 48.3438 37.6521 48.7579 37.6521ZM27.3399 5.91409V3.83599H43.0779V6.07429L38.7693 5.91804C38.3357 5.90241 37.9177 6.06648 37.6091 6.37507C37.3044 6.67976 37.1364 7.10163 37.152 7.53127L37.3552 13.2735C36.8239 13.25 36.2888 13.2344 35.7497 13.2344C35.0739 13.2344 34.4099 13.293 33.7419 13.3321V7.47656C33.7419 7.0625 33.5778 6.66406 33.2848 6.37106C32.9919 6.07809 32.5934 5.91403 32.1793 5.91403L27.3399 5.91409ZM35.7501 78.1601V78.164C27.5587 78.1523 19.7031 74.8945 13.9101 69.1015C8.11708 63.3085 4.85928 55.4535 4.84758 47.2615C4.57024 29.0385 21.3906 14.2655 39.2856 16.5735C42.0044 16.8899 44.6645 17.5735 47.1958 18.6047V22.7844C43.6177 21.0969 39.7075 20.2219 35.7508 20.2219C-0.112221 21.7063 -0.108223 72.8159 35.7508 74.2959C43.1844 74.2881 50.2858 71.2217 55.3878 65.8154C60.4894 60.4131 63.1417 53.1434 62.7198 45.7254L66.38 43.409C67.4738 52.1981 64.7472 61.034 58.8878 67.679C53.0323 74.3274 44.6108 78.14 35.7508 78.163L35.7501 78.1601ZM83.6251 34.5271H75.0274C74.9844 34.5271 74.9493 34.5466 74.9063 34.5505V34.5544C74.6563 34.5857 74.418 34.6599 74.1914 34.7693L58.9334 44.4295V36.0897C58.9334 35.6756 58.7694 35.2772 58.4764 34.9842C58.1834 34.6912 57.785 34.5271 57.3709 34.5271C57.1873 34.5779 56.9959 34.5779 56.8123 34.5271H50.3201V12.7931H83.6251L83.6251 34.5271Z" fill="#1F2129" />
	<path d="M66.1989 27.2031C66.613 27.2031 67.0114 27.0391 67.3044 26.7461C67.5974 26.4531 67.7615 26.0547 67.7615 25.6406V16.8125C67.7615 15.9492 67.0623 15.25 66.199 15.25C65.3357 15.25 64.6365 15.9492 64.6365 16.8125V25.6406C64.6365 26.0547 64.8005 26.4531 65.0935 26.7461C65.3865 27.0391 65.7849 27.2031 66.1989 27.2031Z" fill="#1F2129" />
	<path d="M66.387 29.7542C65.5315 29.7698 64.8401 30.469 64.8401 31.3244C64.8401 32.1838 65.5315 32.883 66.387 32.8986C67.2464 32.883 67.9339 32.1838 67.9339 31.3244C67.9339 30.469 67.2464 29.7698 66.387 29.7542Z" fill="#1F2129" />
	<path d="M36.7808 31.6721C36.1909 31.1565 35.3081 31.1565 34.7183 31.6721L31.0347 34.9143L31.0308 34.9182C30.6245 35.2776 30.4331 35.8245 30.5269 36.3596L32.48 47.5276H32.476C32.6089 48.2776 33.2573 48.8245 34.0151 48.8245H37.9175C38.6987 48.8245 39.3627 48.2464 39.4682 47.4729L40.9877 36.3049L40.9838 36.301C41.0542 35.7815 40.8628 35.2619 40.4682 34.9182L36.7808 31.6721ZM36.5542 45.6991H35.3315L33.7573 36.6835L35.7534 34.9257L37.7768 36.7069L36.5542 45.6991Z" fill="#1F2129" />
</svg>
