<svg xmlns="http://www.w3.org/2000/svg" width="25" height="24" viewBox="0 0 25 24" fill="none">
	<g clip-path="url(#clip0_1_144)">
		<mask id="mask0_1_144" style="mask-type:luminance" maskUnits="userSpaceOnUse" x="0" y="0" width="25" height="24">
			<path d="M24.5 6.10352e-05H0.5V24.0001H24.5V6.10352e-05Z" fill="white" />
		</mask>
		<g mask="url(#mask0_1_144)">
			<path d="M12.5 24.0001C19.1274 24.0001 24.5 18.6275 24.5 12.0001C24.5 5.37269 19.1274 0.000106812 12.5 0.000106812C5.87258 0.000106812 0.5 5.37269 0.5 12.0001C0.5 18.6275 5.87258 24.0001 12.5 24.0001Z" fill="#F0B90B" />
			<path fill-rule="evenodd" clip-rule="evenodd" d="M14.3582 6.39738L12.5 4.50006L7.8209 9.20989L9.67911 11.0626L14.3582 6.39738ZM17.1791 9.20989L15.3209 7.31256L7.8209 14.8349L9.67911 16.6876L17.1791 9.20989ZM6.85821 10.1251L8.71642 12.0224L6.85821 13.8751L5 12.0224L6.85821 10.1251ZM20 12.0224L18.1418 10.1251L10.6418 17.6474L12.5 19.5001L20 12.0224Z" fill="white" />
		</g>
	</g>
	<defs>
		<clipPath id="clip0_1_144">
			<rect width="25" height="24" fill="white" />
		</clipPath>
	</defs>
</svg>
