<svg xmlns="http://www.w3.org/2000/svg" width="24" height="24" viewBox="0 0 24 24" fill="none">
	<g id="Logo">
		<path id="Vector" d="M23.641 14.9029C22.0381 21.3315 15.5262 25.2439 9.09607 23.6408C2.66864 22.0381 -1.24415 15.5265 0.359423 9.09838C1.96159 2.66903 8.47349 -1.24361 14.9016 0.359081C21.3313 1.96177 25.2438 8.47405 23.6408 14.903L23.6409 14.9029H23.641Z" fill="#F7931A" />
		<path id="Vector_2" d="M17.3702 10.3507C17.6074 8.74302 16.4002 7.87884 14.7494 7.30234L15.2849 5.1246L13.9774 4.79428L13.4561 6.91468C13.1124 6.82776 12.7594 6.74586 12.4086 6.66467L12.9337 4.53027L11.627 4.19995L11.0912 6.37698C10.8067 6.31132 10.5274 6.24642 10.2563 6.17804L10.2578 6.17119L8.45476 5.71468L8.10695 7.13057C8.10695 7.13057 9.077 7.35601 9.05656 7.36989C9.58602 7.50387 9.68177 7.85923 9.66587 8.1409L9.05586 10.6219C9.09232 10.6312 9.13961 10.6448 9.19179 10.6661C9.14817 10.6551 9.10175 10.6431 9.05359 10.6314L8.19857 14.1069C8.13386 14.27 7.96962 14.5147 7.59945 14.4218C7.61255 14.441 6.64915 14.1813 6.64915 14.1813L6 15.6988L7.70149 16.1288C8.01802 16.2093 8.32821 16.2935 8.63368 16.3727L8.09263 18.5754L9.39861 18.9058L9.93441 16.7264C10.2912 16.8246 10.6374 16.9152 10.9764 17.0006L10.4424 19.1696L11.7499 19.5L12.2909 17.3014C14.5205 17.7292 16.1969 17.5567 16.9026 15.5121C17.4712 13.8659 16.8743 12.9164 15.7013 12.2972C16.5556 12.0974 17.1991 11.5277 17.3707 10.3509L17.3703 10.3506L17.3702 10.3507ZM14.3829 14.5979C13.9788 16.244 11.2452 15.3542 10.3589 15.131L11.0769 12.2128C11.9631 12.4371 14.8052 12.8811 14.383 14.5979H14.3829ZM14.7873 10.3268C14.4187 11.8242 12.1434 11.0635 11.4053 10.8769L12.0563 8.2303C12.7944 8.41684 15.1713 8.76499 14.7874 10.3268H14.7873Z" fill="white" />
	</g>
</svg>
