<svg xmlns="http://www.w3.org/2000/svg" width="25" height="24" viewBox="0 0 25 24" fill="none">
	<g clip-path="url(#clip0_1_151)">
		<path d="M12.5 24.0001C19.1274 24.0001 24.5 18.6275 24.5 12.0001C24.5 5.37265 19.1274 6.10352e-05 12.5 6.10352e-05C5.87259 6.10352e-05 0.5 5.37265 0.5 12.0001C0.5 18.6275 5.87259 24.0001 12.5 24.0001Z" fill="#8DC351" />
		<path d="M16.4104 7.85827C15.8097 6.36573 14.3832 6.29111 12.6564 6.58962L12.0558 4.50006L10.7795 4.8732L11.3801 6.88812C11.0798 6.96275 10.7044 7.112 10.329 7.18663L9.72838 5.09708L8.45204 5.47021L9.05267 7.55977C8.75236 7.63439 8.52712 7.70902 8.22681 7.78365L6.5 8.38066L6.87539 9.72395C6.87539 9.72395 7.85141 9.42544 7.77634 9.42544C8.30189 9.27619 8.52712 9.50007 8.67728 9.79857L9.35299 12.1866C9.35299 12.1866 9.42806 12.1866 9.50314 12.1866H9.35299L10.329 15.6195C10.329 15.7687 10.329 16.0672 9.95361 16.2165L9.05267 16.515L9.20283 18.0822L10.8546 17.6344C11.1549 17.5598 11.4552 17.4851 11.7555 17.4105L12.3561 19.5001L13.6325 19.1269L13.0318 17.0374C13.4072 16.9628 13.7075 16.8881 14.0829 16.7389L14.6836 18.8284L15.9599 18.4553L15.3593 16.3657C17.4615 15.6195 18.8129 14.6493 18.4375 12.5598C18.1372 10.918 17.1612 10.3956 15.8097 10.4702C16.5605 9.72395 16.8608 8.97768 16.4104 7.85827ZM15.9599 12.9329C16.4104 14.5001 13.6325 15.0971 12.7315 15.3956L11.9057 12.5598C12.8066 12.3359 15.4343 11.2911 15.9599 12.9329ZM14.158 9.12693C14.6085 10.5448 12.281 11.0672 11.5303 11.2911L10.7795 8.7538C11.5303 8.52992 13.7826 7.63439 14.158 9.12693Z" fill="white" />
	</g>
	<defs>
		<clipPath id="clip0_1_151">
			<rect width="25" height="24" fill="white" />
		</clipPath>
	</defs>
</svg>
