<svg xmlns="http://www.w3.org/2000/svg" width="24" height="24" viewBox="0 0 24 24" fill="none">
	<g clip-path="url(#clip0_1_133)">
		<path d="M12 24C18.6274 24 24 18.6274 24 12C24 5.37258 18.6274 0 12 0C5.37258 0 0 5.37258 0 12C0 18.6274 5.37258 24 12 24Z" fill="#3468D1" />
		<path d="M11.7866 4.24617C12.1658 4.05431 12.6288 4.49941 12.4269 4.86705C12.3099 5.16669 11.8662 5.24637 11.6396 5.01798C11.3998 4.79871 11.4781 4.36543 11.7866 4.24617ZM7.70753 4.6727C7.93791 4.58065 8.22953 4.78547 8.20601 5.02913C8.23044 5.29358 7.89719 5.48834 7.66236 5.3626C7.35125 5.2457 7.38681 4.75556 7.70753 4.6727ZM16.0619 5.37002C15.7018 5.32782 15.6449 4.77865 15.9915 4.6677C16.2604 4.54047 16.507 4.77906 16.5463 5.02629C16.4899 5.23739 16.3077 5.43107 16.0619 5.37002ZM8.63551 6.35693C9.02068 6.12057 9.57024 6.47254 9.51101 6.90663C9.49104 7.34491 8.89101 7.59883 8.55255 7.3025C8.22543 7.06979 8.27484 6.53569 8.63551 6.35693ZM14.5151 6.60787C14.687 6.17864 15.3833 6.16514 15.5789 6.58383C15.7722 6.90933 15.5344 7.31243 15.19 7.42304C14.7338 7.5057 14.3003 7.02683 14.5151 6.60787ZM11.2954 7.39853C11.2916 7.0292 11.6383 6.75401 12.0001 6.72889C12.24 6.77555 12.5015 6.87476 12.6045 7.1097C12.7963 7.43385 12.626 7.87996 12.2794 8.02873C12.1209 8.1149 11.9334 8.08276 11.7608 8.07256C11.497 7.94688 11.2748 7.70032 11.2954 7.39853ZM5.22927 7.93662C5.5811 7.72673 6.05578 8.10977 5.92256 8.48058C5.8492 8.80136 5.40481 8.93183 5.15076 8.72707C4.87932 8.53522 4.92255 8.07384 5.22927 7.93662ZM18.2554 7.93594C18.5539 7.71106 19.0465 7.96903 19.0109 8.33438C19.0309 8.66785 18.605 8.91927 18.3087 8.7476C17.9823 8.60531 17.9491 8.11847 18.2554 7.93594ZM13.0013 8.59951C13.4938 8.42784 14.0789 8.63327 14.3597 9.05939C14.7301 9.58033 14.533 10.3736 13.9583 10.6725C13.3628 11.026 12.4932 10.7265 12.2732 10.0811C12.0235 9.50348 12.3873 8.78056 13.0013 8.59951ZM10.1111 8.65671C10.657 8.40684 11.3917 8.61619 11.6555 9.15826C11.9658 9.68568 11.7258 10.4201 11.171 10.6924C10.6156 10.9985 9.83187 10.7667 9.56328 10.2001C9.26156 9.65259 9.52925 8.90887 10.1111 8.65671ZM7.2172 9.61666C7.25896 9.27536 7.59053 9.05332 7.92531 9.03029C8.28605 9.0725 8.57419 9.34431 8.61338 9.69885C8.58971 10.0495 8.31041 10.3923 7.92747 10.3901C7.50611 10.4253 7.13674 10.0184 7.2172 9.61666ZM15.7648 9.10478C16.1974 8.86045 16.798 9.21613 16.7788 9.69831C16.8085 10.2092 16.1437 10.5695 15.713 10.2696C15.2655 10.02 15.3004 9.3173 15.7648 9.10478ZM8.93493 10.9051C9.44085 10.77 10.0193 11.0014 10.2674 11.4526C10.5389 11.9067 10.4281 12.5376 10.006 12.8707C9.46459 13.3593 8.4661 13.1631 8.17796 12.4963C7.84687 11.8851 8.24902 11.0661 8.93493 10.9051ZM14.4167 10.9025C14.9085 10.766 15.4863 10.9498 15.7507 11.3847C16.1003 11.8819 15.9334 12.6235 15.413 12.944C14.8678 13.3162 14.0234 13.1207 13.7234 12.5388C13.3598 11.9368 13.7257 11.0861 14.4167 10.9025ZM5.68098 11.4698C6.118 11.3094 6.60242 11.7773 6.42535 12.1977C6.31726 12.5806 5.76102 12.7224 5.47364 12.4399C5.1374 12.1747 5.26185 11.5848 5.68098 11.4698ZM17.5263 12.0799C17.5137 11.7287 17.7786 11.4174 18.1499 11.3978C18.4492 11.4438 18.7402 11.6781 18.7165 11.9942C18.744 12.4117 18.2255 12.6955 17.8588 12.4993C17.687 12.4146 17.5988 12.2438 17.5263 12.0799ZM3.53235 11.6757C3.79523 11.5643 4.12047 11.7854 4.06048 12.0687C4.04656 12.3895 3.55831 12.5128 3.37902 12.2448C3.22054 12.059 3.31534 11.772 3.53235 11.6757ZM20.1097 11.6689C20.2948 11.541 20.5919 11.6329 20.6651 11.8428C20.7896 12.072 20.5614 12.3861 20.2956 12.3473C19.9223 12.3803 19.8014 11.8284 20.1097 11.6689ZM10.3631 13.2087C11.0549 13.0341 11.7986 13.5936 11.8029 14.285C11.8481 14.9834 11.1156 15.6028 10.4075 15.4415C9.86006 15.356 9.43055 14.8444 9.4483 14.3077C9.44684 13.7944 9.84607 13.3172 10.3631 13.2087ZM13.1029 13.2072C13.8051 13.0168 14.571 13.5866 14.5598 14.2937C14.5969 14.9793 13.8873 15.5778 13.1939 15.4418C12.5414 15.3599 12.06 14.6644 12.2421 14.05C12.3341 13.6406 12.6866 13.3077 13.1029 13.2072ZM7.82028 13.6327C8.30616 13.5523 8.7617 14.0784 8.56466 14.5259C8.42093 15.0029 7.70544 15.1323 7.38911 14.7426C7.01807 14.3684 7.29508 13.6843 7.82028 13.6327ZM15.8551 13.6544C16.2884 13.4783 16.8202 13.8419 16.7869 14.2982C16.8043 14.8005 16.1477 15.1468 15.724 14.8536C15.2438 14.5903 15.3315 13.8159 15.8551 13.6544ZM18.101 15.84C17.9314 15.5331 18.2395 15.1265 18.5906 15.1833C18.7654 15.1804 18.8877 15.314 18.9995 15.4264C19.0225 15.6082 19.0611 15.8248 18.9055 15.9653C18.6943 16.2247 18.2158 16.1504 18.101 15.84ZM5.22795 15.2688C5.55612 15.0568 6.02835 15.3729 5.95458 15.7452C5.91532 16.0744 5.48826 16.2626 5.20638 16.0761C4.90424 15.9065 4.91538 15.4234 5.22795 15.2688ZM11.7112 15.9583C12.1409 15.7743 12.6881 16.1372 12.6474 16.5964C12.6793 17.1037 12.0023 17.455 11.5825 17.1501C11.1162 16.8885 11.1934 16.1191 11.7112 15.9583ZM8.70796 16.6376C9.07385 16.4508 9.56495 16.7734 9.53161 17.1711C9.54275 17.4974 9.21458 17.7755 8.88273 17.7272C8.60788 17.7215 8.42866 17.4824 8.34054 17.2551C8.34507 17.0074 8.45016 16.731 8.70796 16.6376ZM14.7905 16.6437C15.1668 16.4181 15.7016 16.7422 15.666 17.1671C15.6757 17.6112 15.0713 17.8957 14.7209 17.6039C14.3817 17.3753 14.4231 16.8256 14.7905 16.6437ZM15.8485 19.1809C15.6814 18.9352 15.8781 18.6391 16.1499 18.5831C16.3684 18.6263 16.5995 18.7857 16.5536 19.0315C16.5217 19.3642 16.0202 19.4663 15.8485 19.1809ZM7.45196 18.9675C7.51863 18.7728 7.68011 18.5792 7.9164 18.6299C8.26085 18.6536 8.36309 19.1573 8.06159 19.3125C7.79049 19.4899 7.47597 19.247 7.45196 18.9675ZM11.5027 19.191C11.5687 18.9029 11.953 18.7628 12.2064 18.9158C12.3734 18.9855 12.4226 19.1673 12.4656 19.3217C12.4426 19.4021 12.4221 19.4827 12.4019 19.5631C12.2982 19.6824 12.1653 19.8017 11.9923 19.7974C11.6715 19.8339 11.3822 19.482 11.5027 19.191Z" fill="white" />
	</g>
	<defs>
		<clipPath id="clip0_1_133">
			<rect width="24" height="24" fill="white" />
		</clipPath>
	</defs>
</svg>
