<svg xmlns="http://www.w3.org/2000/svg" width="24" height="24" viewBox="0 0 24 24" fill="none">
	<g clip-path="url(#clip0_2_30)">
		<path d="M12 0C18.628 0 24 5.37306 24 12C24 18.628 18.628 24 12 24C5.37306 24 0 18.6275 0 12C0 5.37306 5.37306 0 12 0Z" fill="#F5AC37" />
		<path d="M12.1862 12.8402H16.7201C16.8167 12.8402 16.8624 12.8402 16.8693 12.7141C16.9064 12.2553 16.9064 11.7937 16.8693 11.3343C16.8693 11.2451 16.8248 11.2083 16.7276 11.2083H7.70449C7.59281 11.2083 7.56274 11.2451 7.56274 11.3493V12.6698C7.56274 12.8402 7.56274 12.8402 7.74154 12.8402H12.1862ZM16.363 9.665C16.3759 9.63135 16.3759 9.59449 16.363 9.56137C16.2873 9.39738 16.1976 9.24085 16.0935 9.09396C15.9367 8.8429 15.752 8.61159 15.5415 8.4038C15.4422 8.27826 15.3273 8.16555 15.1984 8.06993C14.553 7.52346 13.7858 7.13671 12.961 6.94227C12.5449 6.84932 12.1197 6.80499 11.6933 6.80873H7.68892C7.57724 6.80873 7.5622 6.85306 7.5622 6.94975V9.58327C7.5622 9.69438 7.5622 9.7243 7.70395 9.7243H16.3093C16.3093 9.7243 16.384 9.70934 16.399 9.665H16.363ZM16.363 14.3834C16.2363 14.3696 16.1085 14.3696 15.9818 14.3834H7.71201C7.60033 14.3834 7.56274 14.3834 7.56274 14.5319V17.1067C7.56274 17.2253 7.56274 17.2552 7.71201 17.2552H11.5301C11.7127 17.2691 11.8952 17.2563 12.074 17.2184C12.6281 17.1788 13.1731 17.0592 13.6929 16.8621C13.8819 16.7969 14.0644 16.7119 14.2368 16.6099H14.2889C15.1839 16.1468 15.9109 15.4192 16.3695 14.5261C16.3695 14.5261 16.4215 14.4139 16.363 14.3845V14.3834ZM6.06417 18.5901V18.5458V16.8172V16.2312V14.4876C6.06417 14.3909 6.06417 14.3765 5.94497 14.3765H4.32667C4.237 14.3765 4.19995 14.3765 4.19995 14.2579V12.8482H5.92994C6.02659 12.8482 6.06417 12.8482 6.06417 12.7221V11.3274C6.06417 11.2382 6.06417 11.2163 5.94497 11.2163H4.32667C4.237 11.2163 4.19995 11.2163 4.19995 11.0977V9.79214C4.19995 9.71041 4.19995 9.68851 4.31915 9.68851H5.92242C6.0341 9.68851 6.06417 9.6885 6.06417 9.54747V5.54859C6.06417 5.43 6.06417 5.40009 6.21344 5.40009H11.8061C12.212 5.41611 12.6153 5.46045 13.0142 5.53363C13.8362 5.68481 14.6261 5.977 15.3482 6.3942C15.8272 6.67465 16.268 7.01331 16.6605 7.40326C16.9558 7.70829 17.2221 8.03841 17.4584 8.3899C17.693 8.7462 17.8879 9.12708 18.0409 9.52505C18.0597 9.62868 18.1596 9.69866 18.2637 9.68103H19.5986C19.7698 9.68103 19.7698 9.68103 19.7774 9.84449V11.0614C19.7774 11.1799 19.7328 11.2099 19.6131 11.2099H18.5838C18.4796 11.2099 18.4495 11.2099 18.457 11.3434C18.4979 11.7953 18.4979 12.2488 18.457 12.7008C18.457 12.8268 18.457 12.8418 18.5993 12.8418H19.7768C19.8289 12.9086 19.7768 12.9753 19.7768 13.0426C19.7843 13.1286 19.7843 13.2157 19.7768 13.3017V14.1997C19.7768 14.3257 19.7398 14.3631 19.6276 14.3631H18.2181C18.1199 14.3444 18.0243 14.4069 18.0017 14.5042C17.6661 15.3722 17.1292 16.1505 16.4355 16.7744C16.1821 17.0015 15.9158 17.2151 15.6376 17.4123C15.3391 17.5832 15.0486 17.7611 14.7426 17.9021C14.1793 18.1542 13.5887 18.3401 12.9825 18.4582C12.4069 18.5608 11.8233 18.6072 11.2375 18.5992H6.06202V18.5917L6.06417 18.5901Z" fill="#FEFEFD" />
	</g>
	<defs>
		<clipPath id="clip0_2_30">
			<rect width="24" height="24" fill="white" />
		</clipPath>
	</defs>
</svg>
