<svg xmlns="http://www.w3.org/2000/svg" width="24" height="24" viewBox="0 0 24 24" fill="none">
	<path d="M12 24C18.6274 24 24 18.6274 24 12C24 5.37259 18.6274 0 12 0C5.37259 0 0 5.37259 0 12C0 18.6274 5.37259 24 12 24Z" fill="#988430" />
	<path d="M12.0004 23.6157C18.4155 23.6157 23.616 18.4152 23.616 12C23.616 5.58489 18.4155 0.384399 12.0004 0.384399C5.58526 0.384399 0.384766 5.58489 0.384766 12C0.384766 18.4152 5.58526 23.6157 12.0004 23.6157Z" fill="#7A6A2A" />
	<path d="M11.9998 23.3709C18.2798 23.3709 23.3707 18.28 23.3707 12C23.3707 5.72007 18.2798 0.62915 11.9998 0.62915C5.71983 0.62915 0.628906 5.72007 0.628906 12C0.628906 18.28 5.71983 23.3709 11.9998 23.3709Z" fill="#BA9F33" />
	<path fill-rule="evenodd" clip-rule="evenodd" d="M5.24683 10.7185C5.17886 10.6564 5.10706 10.5942 5.04101 10.5321C4.97496 10.47 4.90712 10.4078 4.83915 10.3457L4.63717 10.1537C4.60414 10.1207 4.5692 10.0917 4.53618 10.0585C4.50315 10.0294 4.46437 9.99642 4.43134 9.96724C4.16331 9.7129 3.89374 9.45857 3.62942 9.2041C3.90322 9.4546 4.17125 9.7033 4.44504 9.95751L4.54014 10.0527C4.57317 10.0856 4.60811 10.1148 4.64114 10.1478L4.84299 10.3342C4.91096 10.3963 4.97701 10.4585 5.04498 10.5262C5.11294 10.5939 5.17899 10.6563 5.24696 10.7182L5.24683 10.7185ZM1.68958 10.6801C1.68958 10.6801 2.6643 10.7809 3.14008 10.8489C3.58078 10.9111 4.95947 11.1227 4.95947 11.1227L1.68958 10.6801ZM1.68958 10.6801C1.96337 10.7034 2.23717 10.7324 2.51096 10.7616C2.65073 10.7752 2.78475 10.7907 2.91877 10.8042L3.12446 10.8277C3.19243 10.8373 3.25848 10.847 3.32645 10.8567L4.14206 10.9868L4.54974 11.0547C4.68376 11.078 4.81778 11.1034 4.95755 11.1267C4.82354 11.1131 4.68376 11.0936 4.54974 11.0742L4.14206 11.0159L3.32645 10.8956C3.25848 10.8859 3.19243 10.8722 3.12446 10.8626L2.91864 10.8389C2.78462 10.8254 2.64485 10.8059 2.51083 10.7903C2.23704 10.7574 1.96325 10.7223 1.68945 10.6797L1.68958 10.6801ZM4.86245 11.3766C4.86245 11.3766 3.82168 11.6408 3.47019 11.7418C3.12459 11.8369 2.07793 12.1554 2.07793 12.1554L4.86232 11.3768L4.86245 11.3766Z" fill="#CFB66C" />
	<path fill-rule="evenodd" clip-rule="evenodd" d="M4.86252 11.3767C4.63148 11.4447 4.40172 11.5107 4.16735 11.5729L3.47218 11.7593C3.24114 11.8273 3.01138 11.8933 2.78098 11.9613L2.43538 12.0564C2.32082 12.0894 2.20434 12.1185 2.08594 12.1516C2.20037 12.1132 2.31698 12.0739 2.43154 12.0409L2.77714 11.9303C3.00818 11.8584 3.23794 11.7904 3.46834 11.7186C3.70322 11.6604 3.93439 11.5981 4.16927 11.5418C4.3925 11.4855 4.62751 11.4293 4.86252 11.3768V11.3767ZM2.22379 12.7962C2.33823 12.7535 3.65868 12.1381 3.96549 11.9943C4.11909 11.9224 4.56556 11.7639 4.56556 11.7639L2.22379 12.7962Z" fill="#CFB66C" />
	<path fill-rule="evenodd" clip-rule="evenodd" d="M2.22376 12.7962C2.32462 12.7578 2.41986 12.7108 2.51688 12.6662L2.80424 12.5322L3.38101 12.2545C3.57301 12.1633 3.75963 12.0625 3.95765 11.9768C4.05864 11.9341 4.15963 11.8992 4.2605 11.8662L4.4141 11.8177C4.46645 11.8041 4.51509 11.7885 4.5677 11.7749C4.3757 11.8662 4.17359 11.9439 3.98133 12.0331C3.78933 12.1283 3.59298 12.206 3.39483 12.2914L2.80847 12.5496C2.6116 12.6293 2.4196 12.7147 2.22363 12.7962H2.22376ZM2.35176 13.3338C2.35176 13.3338 3.54779 12.6329 3.95944 12.4076C4.17499 12.2873 4.87208 11.9416 4.87208 11.9416L2.35176 13.3338Z" fill="#CFB66C" />
	<path fill-rule="evenodd" clip-rule="evenodd" d="M2.35156 13.3341C2.55342 13.2098 2.75924 13.0836 2.96507 12.9555L3.27227 12.769C3.3771 12.7069 3.47809 12.6486 3.58497 12.5866C3.6898 12.5244 3.7908 12.4623 3.89755 12.404C3.94837 12.3727 4.00161 12.3454 4.05678 12.3225L4.21985 12.241C4.4354 12.1361 4.65096 12.0293 4.87816 11.938C4.67233 12.0682 4.46062 12.1789 4.24904 12.2933C4.1442 12.3516 4.03732 12.404 3.93249 12.4623C3.82766 12.5205 3.72667 12.5827 3.61979 12.639C3.51496 12.7011 3.41396 12.7594 3.30721 12.8157L2.99067 12.9885L2.35182 13.3341H2.35156ZM4.86216 12.0952C4.86216 12.0952 4.11848 12.6661 3.87771 12.8486C3.63694 13.0311 2.9282 13.5437 2.9282 13.5437L4.86216 12.0952Z" fill="#CFB66C" />
	<path fill-rule="evenodd" clip-rule="evenodd" d="M9.13054 16.699L8.75 15.9786L8.97131 15.0777L10.5499 14.468L9.87807 13.0894L10.2101 11.6972L10.8335 10.4504L12.7597 10.1476L14.1752 8.7981L17.2315 9.02914L17.8315 12.2971L16.6762 16.4117L16.018 18.5418L13.3499 18.6428L12.1112 17.7846L10.6607 17.1786L9.13054 16.699Z" fill="#E2CC85" />
	<path fill-rule="evenodd" clip-rule="evenodd" d="M13.81 16.6757C13.81 16.6757 13.441 16.8447 12.8116 16.8058C12.6295 16.5612 11.3538 16.4466 11.3538 16.4466C11.3538 16.4466 11.1946 16.3981 10.913 16.5146C10.6296 16.6298 10.3616 16.6156 10.1111 16.6777C9.86057 16.7397 9.61186 16.4136 9.41986 16.3456C9.22786 16.2738 8.97327 16.101 8.97327 16.101L8.43567 16.0485L7.35612 15.5922L5.64104 13.8835L5.17499 14.6131L5.03125 15.5161L5.54978 16.586L6.94588 17.8578L9.66818 18.549L11.2818 18.0736L13.3031 17.2192L13.81 16.6756V16.6757Z" fill="#F1D789" />
	<path fill-rule="evenodd" clip-rule="evenodd" d="M4.13816 10.6369L4.48376 9.59039L4.89554 8.91455L6.22162 8.80383L5.82354 9.96505L4.71493 11.9379L5.17509 13.6991L4.3596 14.1067L4.10898 13.7224L3.90712 12.8408L3.89355 11.8505L4.13816 10.6369Z" fill="#F4ECB4" />
	<path fill-rule="evenodd" clip-rule="evenodd" d="M5.62513 16.6039L5.37079 16.2485C5.37079 16.2485 5.30282 16.0796 5.34174 15.932C5.38014 15.7825 5.37463 15.7728 5.3553 15.7165C5.33598 15.6601 5.17278 15.466 5.1825 15.2989C5.1921 15.13 5.16894 15.0736 5.2931 14.9397C5.42314 14.8097 5.38436 14.5844 5.38436 14.5844L5.55332 14.6892L5.59172 14.631C5.59172 14.631 5.6538 14.6795 5.6538 14.7553C5.66737 14.6505 5.61105 14.165 5.73918 14.0544C5.86731 13.9438 6.09451 14.5728 6.09451 14.5728L5.95473 13.6601L5.59543 12.7243L4.95658 11.8699L4.91818 10.9281V10.8466C4.91818 10.8466 4.62494 11.2971 4.5434 11.653C4.48516 11.8976 4.62494 12.1947 4.59588 12.5461C4.57246 12.8957 4.5434 12.8684 4.62878 13.0069C4.71415 13.1454 4.92202 13.4302 4.84049 13.6361C4.76868 13.8128 4.52394 13.6885 4.52394 13.6885C4.52394 13.6885 4.47543 13.8322 4.40938 13.8846C4.38609 13.7993 4.36087 13.7449 4.31428 13.6926C4.31031 13.7257 4.30071 13.7703 4.30071 13.7703C4.30071 13.7703 4.25796 13.6363 4.21521 13.4674C4.1571 13.2422 4.09489 12.9451 4.03857 12.7859C4.01527 12.8772 3.95703 13.1548 3.95703 13.1548L3.99006 13.582L4.14929 14.1684L4.30289 14.5524L4.45239 15.0223L4.58231 15.338L4.68714 15.5787L4.77841 16.1205L5.21911 16.5865L5.45412 16.6914L5.62487 16.604L5.62513 16.6039Z" fill="#F3E19D" />
	<path fill-rule="evenodd" clip-rule="evenodd" d="M4.36925 9.78254C4.36925 9.78254 4.05271 10.3201 3.96157 10.8621C3.87044 11.404 3.78877 11.9767 3.84637 12.7145C3.90461 13.4583 4.01533 13.9145 4.10468 14.2408C4.25828 14.7826 4.6561 15.536 4.6561 15.536L4.66967 15.5068C4.6028 15.3801 4.54943 15.2467 4.51044 15.1087C4.45796 14.9029 4.4385 14.6583 4.38999 14.5476C4.34724 14.437 4.27543 14.3418 4.24048 14.2058C4.20746 14.0758 4.20208 13.87 4.10071 13.7166C4.05796 13.6544 4.00548 13.4913 3.98999 13.3283C3.97053 13.0835 3.99972 12.8097 3.97642 12.5846C3.93367 12.2098 3.90461 11.9555 3.9434 11.7592C3.98218 11.563 4.18429 11.006 4.30858 10.5632C4.39012 10.2797 4.34148 10.0408 4.49098 9.79418C4.64048 9.54957 4.73188 9.33402 4.76477 9.18452C4.80317 9.04858 4.36874 9.78254 4.36874 9.78254H4.36925Z" fill="#F2E8B0" />
	<path fill-rule="evenodd" clip-rule="evenodd" d="M5.86948 9.56702C5.86948 9.56702 5.7064 9.61566 5.62871 9.70103C5.55101 9.78257 5.51799 9.85054 5.41316 9.98839C5.30832 10.1262 5.30244 10.2389 5.21693 10.4117C5.13156 10.5806 4.94314 10.835 4.91984 10.9262C4.89655 11.0175 4.85776 11.4447 4.80925 11.6466C4.7665 11.8486 4.85776 12.0972 4.85776 12.0972L4.96836 12.0738C4.96836 12.0738 4.96836 12.2175 5.07908 12.3147C5.18967 12.4098 5.20912 11.9922 5.20912 11.9922L5.62269 10.5961L6.24592 10.1728L6.31389 9.83108L5.86922 9.56702H5.86948Z" fill="#F5EEC0" />
	<path fill-rule="evenodd" clip-rule="evenodd" d="M6.17266 10.2001C6.17266 10.2001 5.87941 10.2195 5.73579 10.3244C5.67755 10.367 5.65425 10.402 5.59217 10.4545C5.47761 10.5496 5.36101 10.637 5.30481 10.7617C5.24261 10.8858 5.17464 11.0742 5.12805 11.4296C5.10859 11.5791 5.10859 11.7169 5.09502 11.8374C5.07557 12.0005 5.04651 12.1305 5.062 12.2214C5.08145 12.4078 5.27371 12.5049 5.2924 12.7165L5.69048 12.5146L6.06526 11.0369L6.86142 10.5377L6.41086 10.0328L6.17214 10.1992L6.17266 10.2001Z" fill="#E6DB9D" />
	<path fill-rule="evenodd" clip-rule="evenodd" d="M4.07239 20.1509C4.07406 20.1363 4.07572 20.1217 4.07739 20.1067C4.1355 19.6075 4.14535 19.2292 4.18798 18.9922C4.25006 18.6564 4.29281 18.5314 4.28308 18.4057C4.26951 18.2039 4.25403 18.0563 4.27348 17.9009C4.30254 17.6951 4.50452 17.4505 4.49876 17.2815C4.49479 17.1475 4.42683 17.0602 4.36859 16.9787C4.31035 16.8971 4.26375 16.8292 4.26375 16.8292C4.26375 16.8292 4.66183 16.5554 4.65799 15.4524C4.66612 15.4547 4.67395 15.458 4.68129 15.4621L4.87739 16.0193L5.0114 16.1824L5.52596 17.1416L6.18811 17.7844L7.16667 18.4426L7.7803 19.1104L7.84238 20.891L7.04046 21.9318L6.90913 22.1696C5.86577 21.6458 4.909 20.9649 4.07227 20.1508L4.07239 20.1509Z" fill="#E5CB7A" />
	<path fill-rule="evenodd" clip-rule="evenodd" d="M6.52246 21.8543C6.52246 21.8543 6.53603 21.633 6.71856 21.4892C6.74774 21.5378 6.76707 21.5845 6.76131 21.6193C6.79433 21.5612 7.02537 21.1883 7.54774 21.0912C8.07011 20.9961 8.19632 20.6155 8.19632 20.6155L9.30493 19.6078L10.5729 18.4408L12.1147 17.899L12.8352 17.7222C12.8352 17.7222 12.8487 17.7747 12.8216 17.8912C12.9555 17.8816 13.2526 17.8136 13.5613 17.7048C13.6856 17.6563 13.8022 17.6368 13.8643 17.701C13.9556 17.7863 13.9691 17.9883 13.9749 18.1086C14.1244 18.0756 14.2972 17.932 14.4357 17.9456C14.6571 17.9689 14.8532 18.2291 15.0785 18.2291C15.3756 18.2291 15.5095 18.0466 15.7174 17.9028C15.8416 17.8174 16.0202 17.7108 16.1212 17.6387C16.362 17.462 18.9095 16.6833 18.9095 16.6833L19.8027 16.7416L19.9465 17.7008L19.8697 20.2083C19.8602 20.2174 19.8507 20.2269 19.8411 20.236L15.7799 22.3571L10.1505 23.2201C8.88948 23.014 7.67258 22.5955 6.55164 21.9822L6.52284 21.8542L6.52246 21.8543Z" fill="#D8C173" />
	<path fill-rule="evenodd" clip-rule="evenodd" d="M4.41406 20.4699C4.49406 20.3026 4.566 20.1627 4.57867 20.1127C4.58865 20.2135 4.60696 20.4348 4.64382 20.6701C4.56643 20.6043 4.48984 20.5375 4.41406 20.4698V20.4699Z" fill="#F1D789" />
	<path fill-rule="evenodd" clip-rule="evenodd" d="M8.52629 22.8297L9.25435 22.6272L9.31643 22.6466C9.31643 22.6466 9.34946 22.6661 9.34946 22.732C9.44072 22.6797 9.51842 22.6893 9.57474 22.6544C9.60379 22.7165 9.63285 22.9223 9.7611 22.9476C9.89499 22.9767 10.0387 22.8893 10.1844 22.7787C10.328 22.6642 10.4916 22.5204 10.6154 22.4622C10.6608 22.5457 10.701 22.6319 10.7358 22.7204C10.8989 22.5903 11.1824 22.0622 11.5863 22.0718C11.703 21.7959 11.898 21.5604 12.1472 21.3942C12.5219 21.1398 12.7568 21.1204 13.0501 21.1437C13.1665 20.9924 13.3101 20.864 13.4734 20.765C13.5219 20.7845 13.6559 20.866 13.8229 20.7883C13.9919 20.7108 14.1821 20.4097 14.4326 20.3709C14.5676 20.3523 14.7048 20.3812 14.8209 20.4525C14.8209 20.4525 15.5505 19.7281 16.054 19.4873C16.0345 19.4291 15.9957 19.2097 16.5859 18.7242C16.619 18.7534 16.5957 18.8349 16.619 18.8394C16.6286 18.8394 16.7726 18.7773 16.9548 18.6374C17.1801 18.4686 17.4499 18.2918 17.613 18.2433C17.9202 18.152 18.2461 18.3384 18.2461 18.3384C18.2738 18.319 18.3047 18.3045 18.3374 18.2957C18.4149 18.2821 18.4713 18.2724 18.514 18.2573C18.5102 18.3582 18.5665 18.531 18.514 18.6805C18.5748 18.7147 18.6392 18.7421 18.706 18.7621C18.6731 18.8339 18.6012 19.0164 18.4809 19.1038C18.5817 19.1524 18.5953 19.2087 18.739 19.2574C18.6808 19.339 18.5854 19.4789 18.5429 19.5646C18.5002 19.6559 18.3467 20.0345 18.2787 20.1782C18.2069 20.3219 18.1099 20.586 18.0632 20.639C18.0165 20.6919 17.8476 20.9166 17.7176 21.0272C17.8328 20.9844 18.3041 20.8408 18.504 20.7864C18.4445 20.8737 18.1428 21.3213 17.8528 21.7518C16.464 22.5842 14.9138 23.111 13.3055 23.2972C11.6971 23.4834 10.0676 23.3247 8.52539 22.8316L8.52629 22.8297Z" fill="#E0CD81" />
	<path fill-rule="evenodd" clip-rule="evenodd" d="M6.2211 10.1476C6.2211 10.1476 6.05227 10.1476 6.01925 10.1709C5.98622 10.1942 6.18821 10.2429 6.25029 10.2662C6.31237 10.2895 6.44638 10.3962 6.48133 10.4817C6.51435 10.5633 7.6949 11.0389 7.6949 11.0389L8.52984 10.9962L8.81771 10.5985L8.27013 10.1188L8.65413 8.98682L8.14546 9.06835L6.92216 9.79795L6.30853 10.033L6.2211 10.1476Z" fill="#DFC57C" />
	<path fill-rule="evenodd" clip-rule="evenodd" d="M8.05432 10.5224C8.06639 10.542 8.08339 10.558 8.10361 10.5689C8.12383 10.5798 8.14656 10.5852 8.16952 10.5845C8.34232 10.5845 8.50142 10.6273 8.56747 10.7146C8.67819 10.8545 8.98501 11.3011 8.98501 11.3011L9.71896 11.5651L9.76632 10.7009L8.9644 10.1437L8.05176 10.4795V10.5223H8.05381L8.05432 10.5224Z" fill="#E5CC7C" />
	<path fill-rule="evenodd" clip-rule="evenodd" d="M7.91061 10.8428C7.91061 10.8428 8.04449 10.8525 8.21345 10.7903C8.38241 10.7281 8.66005 10.5942 8.7805 10.6467C8.94933 10.7185 8.91438 10.9438 9.09704 11.1459C9.20763 11.2702 9.40962 11.2664 9.52418 11.4004C9.63874 11.5344 10.0328 11.4722 10.0328 11.4722L10.1824 12.2786L9.58242 13.0476L9.38619 14.0029H8.57493L7.83381 13.7088L7.46875 12.8256L7.65128 11.9325L7.91061 10.8428Z" fill="#D2C281" />
	<path fill-rule="evenodd" clip-rule="evenodd" d="M9.47926 10.8815C9.49938 10.8877 9.52028 10.891 9.54134 10.8913C9.51804 10.9107 9.4694 10.9534 9.48886 11.0641C9.50831 11.1748 9.57039 11.3146 9.51804 11.3999C9.55983 11.4456 9.591 11.5 9.6093 11.5592C9.64233 11.6544 9.65206 11.7417 9.86748 11.7554C9.83639 11.7745 9.80772 11.7974 9.7821 11.8234C9.7821 11.8234 9.93161 11.9534 10.0074 12.0737C10.085 12.0704 10.2908 12.0064 10.2908 12.0064L10.3335 12.0356L10.4248 11.9972C10.4248 11.9972 10.3394 11.9642 10.4015 11.7564C10.4597 11.5739 10.5122 11.5836 10.5167 11.5701C10.5212 11.5565 10.5594 11.3642 10.5594 11.2865C10.5885 11.1857 10.6118 10.8789 10.6118 10.8789L10.5497 10.2012L10.2003 9.98951L9.91612 9.71521L9.64809 10.22L9.47158 10.396L9.45801 10.8329L9.47926 10.8815Z" fill="#E2C270" />
	<path fill-rule="evenodd" clip-rule="evenodd" d="M10.3203 10.3147C10.3203 10.3147 10.3824 10.4913 10.4058 10.6272C10.4141 10.6008 10.4186 10.5734 10.4194 10.5457C10.4194 10.5457 10.4679 10.8137 10.4775 10.9245C10.497 10.9205 10.5159 10.9147 10.5202 10.9341C10.5246 10.9534 10.5689 11.1691 10.5586 11.2894C10.6395 11.156 10.7514 11.0441 10.8848 10.9632C10.9625 10.9146 11.0538 10.8622 11.149 10.8583C11.2985 10.8544 11.4072 10.9535 11.5858 10.9535C12.0168 10.9535 12.4072 10.637 12.6946 10.5399C12.9062 10.468 13.0887 10.4157 13.2168 10.299C13.279 10.2467 13.3898 10.1302 13.4906 9.95729C13.6246 9.72689 13.7644 9.52631 13.9043 9.5011C13.841 9.51273 13.7766 9.51728 13.7123 9.51466C13.7123 9.51466 13.7551 9.47191 13.8275 9.41367C13.9 9.35543 13.9867 9.28362 14.1109 9.28362C14.3323 9.28362 14.4429 9.31652 14.5672 9.31652C14.6915 9.31268 14.7633 9.28362 14.7633 9.28362C14.7633 9.28362 14.8935 9.37489 15.1866 9.37489C15.4799 9.37873 15.676 9.40394 15.8294 9.41764C15.9829 9.43134 16.4973 9.37489 16.6449 9.37924C16.7411 9.38295 16.8356 9.40607 16.9227 9.44721L16.4469 8.06481L14.7379 6.57104L13.7204 7.29143L12.1552 8.85649L10.6407 9.41764L10.3242 9.77297V10.3147H10.3203Z" fill="#CCB360" />
	<path fill-rule="evenodd" clip-rule="evenodd" d="M13.719 9.52231C13.719 9.52231 13.7617 9.47969 13.8334 9.42145C13.9051 9.36321 13.9928 9.29127 14.1169 9.29127C14.3383 9.29127 14.449 9.32429 14.5733 9.32429C14.6976 9.32045 14.7694 9.29127 14.7694 9.29127C14.7694 9.29127 14.8997 9.38241 15.1927 9.38241C15.4859 9.38625 15.682 9.41146 15.8355 9.42503C15.989 9.4386 16.5034 9.38241 16.651 9.38663C16.7472 9.39025 16.8416 9.41338 16.9286 9.4546L16.713 8.83124L16.4627 8.35559L15.7481 7.573C15.7481 7.573 14.8905 7.06816 14.8839 7.06432C14.8801 7.06048 14.5868 6.98279 14.5868 6.98279L13.8101 7.45268L13.1054 9.27604L13.0918 9.66004L13.548 9.87559C13.6625 9.68359 13.7889 9.52999 13.9073 9.51053C13.8004 9.52218 13.7189 9.52218 13.7189 9.52218L13.719 9.52231Z" fill="#D5B457" />
	<path fill-rule="evenodd" clip-rule="evenodd" d="M13.7085 9.65252C13.6405 9.65636 13.5843 9.64279 13.5687 9.59428C13.5105 9.43121 13.4639 9.40791 13.4151 9.40791C13.3663 9.40791 13.3005 9.51274 13.2615 9.52234C13.2225 9.53194 13.1761 9.40202 13.1761 9.40202L13.1334 9.38257C13.1334 9.38257 12.8829 9.54564 12.7062 9.7379C12.5296 9.93015 12.2402 10.2564 12.1101 10.3145C11.9801 10.3726 11.5334 10.3922 11.3805 10.4253C11.2277 10.4583 11.0582 10.569 11.0349 10.5942C11.0116 10.6194 11.103 10.6466 11.1166 10.6718C11.1302 10.6951 10.967 10.6854 10.9534 10.7102C10.9438 10.7296 10.9918 10.8402 11.0156 10.8966C11.0573 10.8758 11.103 10.8646 11.1495 10.8635C11.299 10.8597 11.4078 10.9588 11.5864 10.9588C12.0175 10.9588 12.4077 10.6422 12.6951 10.5451C12.9068 10.4733 13.0893 10.4208 13.2175 10.3043C13.2795 10.2519 13.3903 10.1353 13.4913 9.96254C13.565 9.84414 13.6369 9.73342 13.7089 9.65188L13.7085 9.65252Z" fill="#D2B257" />
	<path fill-rule="evenodd" clip-rule="evenodd" d="M7.52653 19.2622C7.52653 19.2622 7.48813 19.1185 7.13229 18.7477C7.0313 18.6429 6.96922 18.5557 6.90125 18.4934C6.73229 18.334 6.63322 18.2914 6.51289 18.2001C6.24883 18.004 5.96147 18.004 5.74016 17.7632C5.51885 17.5225 5.26093 17.0624 5.08173 16.5923C4.90509 16.1224 4.85645 15.9729 4.85645 15.9593C4.85645 15.9458 4.90509 15.8545 4.96717 15.8681C5.02925 15.8816 5.02925 16.002 5.04486 16.0311C5.07579 16.0788 5.11087 16.1236 5.14969 16.165C5.24096 16.27 5.37101 16.3954 5.43705 16.5826C5.42349 16.4233 5.36909 16.2467 5.36909 16.2467C5.36909 16.2467 5.71085 16.4622 6.00205 16.6874C6.29529 16.9127 6.41561 16.9904 6.50125 17.134C6.58688 17.2776 6.78861 17.6564 6.88525 17.7671C6.98189 17.8778 8.30605 18.2952 8.30605 18.2952L8.93594 18.7648L9.24864 19.4503L9.00391 19.8343L8.53402 19.9353L7.77088 19.5935L7.52653 19.2621V19.2622Z" fill="#D2B159" />
	<path fill-rule="evenodd" clip-rule="evenodd" d="M5.83105 16.901C5.83105 16.901 5.99029 17.1554 6.37864 17.3961C6.72821 17.6078 7.28155 17.8001 7.77486 17.9147C8.05826 17.9826 8.34178 18.035 8.59611 18.0389C9.28155 18.0485 9.75336 17.8526 10.3379 17.7885C10.6545 17.7554 11.0428 17.7302 11.4467 17.6349C11.9651 17.5106 12.2719 17.3707 12.6894 17.174C12.9923 17.0343 13.27 16.9294 13.4952 16.7954C13.8117 16.6091 14.0428 16.4013 14.3108 16.3392C14.2778 16.4305 14.2428 16.5936 13.9788 16.7625C14.1186 16.7586 14.3108 16.749 14.3108 16.749C14.3108 16.749 14.1244 16.8596 13.7962 17.1081C13.5943 17.2617 13.3264 17.5217 13.0526 17.6945C12.8758 17.8052 12.6835 17.8865 12.5573 17.9528C12.2501 18.1218 12.1262 18.2071 11.9244 18.4136C11.9962 18.4098 12.0021 18.4136 12.0021 18.4136C12.0021 18.4136 11.7476 18.4466 11.5652 18.5437C11.5268 18.5437 11.4602 18.5301 11.3438 18.5631C11.2525 18.5922 11.1321 18.6583 11.0079 18.6932C10.8311 18.7456 10.773 18.7223 10.773 18.7223L10.8021 18.7806C10.8021 18.7806 10.5717 18.7766 10.4949 18.7844C10.5084 18.7883 10.5046 18.7941 10.5046 18.7941C10.4911 18.7964 10.4781 18.801 10.4662 18.8077C10.4292 18.8317 10.3886 18.8493 10.3459 18.8601C10.3226 18.8639 10.3031 18.8639 10.2739 18.8698C10.2837 18.8931 10.3594 19.0234 10.3944 19.1002C10.3653 19.1197 9.92834 19.4498 9.92834 19.4498C9.94189 19.4711 9.95297 19.4939 9.96136 19.5177C9.97493 19.5604 9.98082 19.6226 9.99439 19.6516C10.0273 19.7099 10.0467 19.7196 10.0467 19.7196C10.0467 19.7196 9.99439 19.7293 9.903 19.7526C9.82543 19.7721 9.73019 19.805 9.59579 19.8244C9.55456 19.8298 9.51308 19.833 9.47151 19.8341C9.49096 19.8769 9.57634 20.04 9.41903 20.2283C9.26171 20.4165 9.2132 20.4439 9.16469 20.5643C9.14027 20.5458 9.11427 20.5295 9.08699 20.5156C9.03464 20.4923 8.96271 20.4575 8.93749 20.4108C8.92279 20.473 8.90332 20.5341 8.87925 20.5933C8.83074 20.7234 8.75893 20.8516 8.74536 20.9486C8.69288 20.8904 8.59586 20.7758 8.46184 20.7991C8.32783 20.8224 8.22107 21.005 8.19778 21.0574C8.19778 21.0244 8.17448 20.9992 8.16872 21.038C8.16475 21.0807 8.09103 21.5272 7.67938 21.8884C7.67554 21.7972 7.67554 21.5952 7.66581 21.5293C7.62741 21.5677 7.58043 21.6244 7.30075 21.7448C7.02696 21.8651 7.07035 21.9856 7.07035 21.9856C7.07035 21.9856 7.04706 21.7936 7.19464 21.5913C7.34414 21.3895 7.43541 21.2942 7.43541 21.2788C7.433 21.263 7.42626 21.2482 7.41595 21.236C7.3965 21.2166 7.35771 21.1933 7.35771 21.1778C7.38101 21.1682 7.61205 21.0574 7.59848 20.8282C7.58491 20.6225 7.49762 20.5156 7.43541 20.44C7.42581 20.4302 7.5268 20.3584 7.5131 20.3351C7.50338 20.3216 7.37922 20.2302 7.3636 20.1815C7.36727 20.1525 7.37379 20.1239 7.38306 20.0962C7.39662 20.0534 7.40635 20.0242 7.40251 19.9952C7.39278 19.9467 7.3403 19.8126 7.32482 19.7991C7.33838 19.8029 7.43541 19.7991 7.43541 19.7991C7.43541 19.7991 7.35784 19.6748 7.34414 19.6165C7.33045 19.5583 7.30139 19.4048 7.2859 19.3758C7.31893 19.3796 7.40046 19.3854 7.40046 19.3758C7.40443 19.3466 7.32866 19.2981 7.36206 19.2606C7.38536 19.2644 7.43003 19.2839 7.47266 19.3383C7.44936 19.2761 7.41058 19.1557 7.32891 19.1072C7.36731 19.0937 7.49787 19.0586 7.61243 19.1266C7.72699 19.1945 7.76603 19.2896 7.76603 19.2896C7.76603 19.2896 7.834 19.3421 7.93896 19.4198C8.05928 19.5149 8.21263 19.6502 8.45736 19.746C8.50984 19.7751 8.64373 19.7751 8.74088 19.7557C8.78318 19.7456 8.82374 19.7293 8.8612 19.7072C8.87473 19.6992 8.88906 19.6927 8.90395 19.6877C8.88308 19.6458 8.85908 19.6056 8.83215 19.5673C8.86517 19.5673 8.90395 19.5712 8.90395 19.5712C8.90395 19.5712 8.92725 19.5188 8.82242 19.4176C8.84571 19.3943 8.8749 19.3792 8.8749 19.3399C8.84187 19.3361 8.78363 19.2876 8.77007 19.2681C8.78939 19.2546 8.81858 19.2099 8.8516 19.1963C8.82242 19.173 8.75061 19.0759 8.71759 19.0663C8.74913 19.0546 8.77966 19.0403 8.80885 19.0235C8.80885 19.0235 8.64578 18.9808 8.5933 18.9458C8.54082 18.9074 8.46325 18.841 8.41666 18.8215C8.36802 18.8021 8.28264 18.7925 8.2477 18.7536C8.28059 18.7633 8.33307 18.7536 8.37199 18.7536C8.40104 18.7536 8.41474 18.7574 8.42434 18.7574C8.4205 18.7438 8.4205 18.7147 8.49627 18.7051C8.53272 18.6996 8.56809 18.6884 8.60111 18.672C8.60111 18.672 8.52917 18.6682 8.44751 18.5905C8.36584 18.5128 8.298 18.4507 8.25141 18.441C8.2029 18.4313 8.11163 18.474 8.05531 18.4701C7.97762 18.4605 7.94459 18.4215 7.94459 18.4215C7.94459 18.4215 7.68642 18.4448 7.11362 18.0954C6.61838 17.7924 6.40283 17.5245 6.40283 17.5245C6.35649 17.5077 6.31169 17.4869 6.26894 17.4623C6.08258 17.3653 5.82427 17.1633 5.83208 16.8991L5.83105 16.901Z" fill="#C2A44D" />
	<path fill-rule="evenodd" clip-rule="evenodd" d="M12.9743 5.2466C13.0192 5.26119 13.0591 5.28811 13.0895 5.32429C13.1807 5.42912 13.239 5.62714 13.0312 5.83885C13.1127 5.86791 13.1464 5.87725 13.2176 5.86791C13.1458 5.95341 12.9827 6.13594 12.973 6.29517C12.9632 6.42522 13.0448 6.46413 13.0448 6.46413C13.0448 6.46413 12.9205 6.60775 12.9147 6.84813C12.9734 6.78194 13.0377 6.72088 13.1067 6.66561C13.2505 6.55105 13.4485 6.421 13.5825 6.33946C13.5807 6.37363 13.5853 6.40785 13.5961 6.44033C13.5961 6.44033 13.8464 6.2345 14.0569 6.32589C14.152 6.36864 14.1092 6.50253 14.1092 6.50253C14.1092 6.50253 14.2394 6.45402 14.3307 6.54529C14.4219 6.63655 14.551 6.87194 14.6171 6.96321C14.6462 7.00596 14.722 7.08749 14.7995 7.2137C14.9055 7.3904 14.994 7.57701 15.0637 7.77089C15.0676 7.66989 15.0928 7.51271 15.3803 7.61165C15.6676 7.71265 15.9938 7.92436 16.2676 8.34125C16.5414 8.75815 16.6092 9.22881 16.7471 9.40801C16.8868 9.58081 17.0306 9.86817 17.0403 9.98862C17.05 10.1091 16.9976 10.4973 17.2849 11.5478C17.3664 11.2216 17.4907 10.4973 17.4907 10.4973L17.5587 9.85844L17.6364 7.88173L15.5723 6.16692L13.9587 4.99597L12.9082 5.09696L12.9741 5.24647L12.9743 5.2466Z" fill="#CAA13E" />
	<path fill-rule="evenodd" clip-rule="evenodd" d="M16.81 8.1883C16.81 8.1883 16.7809 7.9963 16.2955 7.6699C15.81 7.3476 15.4313 7.3476 15.0819 7.0738C14.8139 6.85825 14.5343 6.36302 14.3523 6.19995C14.1755 6.03879 14.1465 5.57275 14.1465 5.57275L14.7426 5.07354L15.6291 3.79214L16.3786 2.96692L16.7377 3.46612L17.2369 4.05249L17.5146 5.22919L17.6155 6.95156L16.8091 8.18843L16.81 8.1883Z" fill="#B59544" />
	<path fill-rule="evenodd" clip-rule="evenodd" d="M17.4095 10.2528C17.4242 9.99163 17.392 9.72991 17.3143 9.4801C17.1863 9.08202 16.9066 8.3752 16.7767 8.1105C16.7242 7.81725 16.7631 7.79395 16.8195 7.76093C16.8758 7.7279 17.0875 7.60733 17.2035 7.18429C17.3194 6.76125 17.6792 6.74742 17.6792 6.74742L17.9006 6.58435L18.2366 7.42506L18.5297 8.18435L18.6209 8.76496L18.6889 9.26006L18.5297 10.3067L17.7434 11.0174L17.4094 10.2528H17.4095Z" fill="#C89D3A" />
	<path fill-rule="evenodd" clip-rule="evenodd" d="M6.43652 21.9186V21.8971C6.45286 21.8869 6.46729 21.8739 6.47915 21.8587C6.49272 21.8393 6.50257 21.816 6.51217 21.8102C6.53163 21.8005 6.62289 21.7718 6.6714 21.781C6.71992 21.7902 6.84817 21.8431 6.91614 21.8393C7.05592 21.8354 7.21899 21.7286 7.47729 21.7772C7.86564 21.849 7.95691 22.1131 8.18219 22.2626C8.33579 22.3675 8.49477 22.3208 8.51806 22.3208H8.57041C8.58014 22.3208 8.65195 22.2393 8.69086 22.2432C8.76856 22.2471 8.77624 22.3112 8.82475 22.315C8.93931 22.3286 9.16075 22.2568 9.27147 22.286C9.3043 22.2963 9.33416 22.3143 9.3585 22.3387C9.38283 22.363 9.40093 22.3928 9.41125 22.4256C9.43454 22.4974 9.41509 22.5887 9.35877 22.6412C9.23845 22.7518 9.12389 22.8567 9.10059 22.9484C9.13022 22.971 9.15867 22.9951 9.18584 23.0206C8.22509 22.7758 7.30072 22.4057 6.43652 21.9198V21.9186Z" fill="#CEB052" />
	<path fill-rule="evenodd" clip-rule="evenodd" d="M16.7764 18.0389C16.7764 18.0389 17.0792 17.635 17.1842 17.435C17.289 17.2288 16.8521 14.6176 16.8521 14.6176L17.7298 11.7419L17.7064 10.806C17.7064 10.806 17.7492 9.94184 17.8502 9.56706C17.9706 9.78261 18.3454 10.0428 18.4269 10.1807C18.4653 9.9165 18.5958 9.35931 18.5764 8.76514C18.6482 8.87573 18.821 9.98843 18.821 9.98843L18.9938 10.7379L19.2191 11.534L19.4696 12.3749L19.6191 12.9555L19.7045 13.0953L19.7764 13.3399L19.8444 13.6041L20.0405 14.2234L20.1557 14.7321L20.247 15.6545C20.2668 15.7251 20.2811 15.7972 20.2897 15.87C20.2936 15.971 20.2761 16.0293 20.2761 16.0468C20.2761 16.0643 20.3092 16.2681 20.2956 16.4216C20.2761 16.5752 20.2761 16.6954 20.1557 16.8056C20.0352 16.9158 19.9596 17.5745 19.9596 17.5745L19.7441 17.4309C19.7441 17.4309 19.7868 17.2346 19.6858 17.0561C19.5848 16.8775 19.3887 16.8405 19.278 16.8697C19.1674 16.893 18.9461 16.9278 18.8742 16.99C18.8062 17.0521 18.6393 17.2444 18.4858 17.3318C18.2938 17.447 17.981 17.4561 17.8141 17.4949C17.6451 17.5333 17.4587 17.6485 17.2625 17.7822C17.1087 17.8818 16.9462 17.9675 16.7771 18.0382L16.7764 18.0389Z" fill="#CCA847" />
	<path fill-rule="evenodd" clip-rule="evenodd" d="M16.7764 22.2816C16.7764 22.2816 16.7892 22.2899 16.8139 22.3035C18.1934 21.6571 19.4295 20.741 20.4491 19.6091C20.4379 19.2161 20.4235 18.8133 20.4076 18.664C20.3747 18.3475 20.398 18.0252 20.3883 17.8388C20.3785 17.6524 20.2737 16.8932 20.2252 16.6971C20.1727 16.501 20.0716 16.4038 20.0562 16.4038C20.0427 16.4078 19.961 16.7728 19.961 16.8646C19.961 16.9564 19.9416 17.1773 19.9416 17.2336C19.928 17.2297 19.9222 17.1952 19.9222 17.1812C19.9028 17.2297 19.8795 17.3152 19.8697 17.3249C19.86 17.3346 19.8833 17.2434 19.8697 17.2239C19.8562 17.2044 19.8313 17.2142 19.8367 17.1657C19.839 17.1369 19.8436 17.1084 19.8503 17.0803C19.8503 17.0803 19.792 17.1657 19.7494 17.3831C19.7067 17.5987 19.7067 17.6046 19.6912 17.6239C19.6776 17.6473 19.5999 17.7249 19.596 17.7541C19.5921 17.8064 19.6679 17.8589 19.6736 17.888C19.6775 17.9366 19.6057 18.1618 19.5824 18.272C19.5591 18.3822 19.5688 18.5981 19.544 18.7088C19.5245 18.8098 19.5056 18.8681 19.4392 18.9107C19.4877 18.9204 19.5343 18.934 19.5343 18.934C19.5343 18.934 19.6022 19.2213 19.4294 19.4661C19.3673 19.5515 19.3519 19.5904 19.2858 19.6681C19.1556 19.8117 19.0546 19.9753 19.0449 20.0816C19.0382 20.0502 19.0337 20.0184 19.0313 19.9864C19.0313 19.9864 18.8295 20.2214 18.744 20.3554C18.6334 20.5282 18.4799 20.5185 18.4368 20.5613C18.3936 20.604 18.3843 20.6816 18.3984 20.7438C18.36 20.7534 18.2878 20.7671 18.2392 20.9166C18.2159 20.9941 18.1576 21.0702 18.0664 21.1224C17.9751 21.1746 17.8644 21.1904 17.808 21.2039C17.8566 21.2175 17.876 21.2175 17.8993 21.233C17.8703 21.2815 17.7362 21.3573 17.5867 21.4544C17.4372 21.5457 17.3653 21.6796 17.3284 21.767C17.29 21.8485 17.2333 21.901 17.1421 21.9108C17.1805 21.9341 17.2373 21.9883 17.2664 22.0059C17.2236 22.0156 17.1512 22.0156 17.0217 22.1263C16.8858 22.2389 16.8392 22.272 16.777 22.2817L16.7764 22.2816Z" fill="#C39D3C" />
	<path fill-rule="evenodd" clip-rule="evenodd" d="M14.0749 23.1814C14.1492 23.1293 14.2297 23.0866 14.3146 23.0543C14.6174 22.934 14.9378 22.9107 15.064 22.8719C15.1845 22.8335 15.2796 22.7805 15.4291 22.7515C15.4251 22.7855 15.4218 22.8175 15.4182 22.8477C14.9775 22.9863 14.5286 23.0977 14.0742 23.1814H14.0749Z" fill="#D2BA6B" />
	<path fill-rule="evenodd" clip-rule="evenodd" d="M19.6607 15.2157C19.6607 15.2157 19.5986 15.5516 19.4879 15.7633C19.3771 15.975 19.2575 16.2681 19.2575 16.2681C19.2582 16.202 19.266 16.1363 19.2808 16.0719C19.141 16.1534 18.8011 16.3496 18.7048 16.4369C18.6135 16.5185 18.46 16.6622 18.4212 16.7302C18.5125 16.4623 18.6076 16.2215 18.6232 16.1108C18.4834 16.2118 17.8309 16.7496 17.4912 17.105L16.4329 17.9613C16.3108 18.0272 16.185 18.0861 16.0562 18.1377C15.8738 18.2152 15.6582 18.2813 15.499 18.3435C15.5418 18.2289 15.6096 18.1278 15.7048 18.0308C15.8058 17.9357 16.1087 17.6075 16.1553 17.4548C16.198 17.2956 16.2077 17.2005 16.1514 17.0664C16.0989 17.08 15.9786 17.0859 15.8971 17.1092C15.8155 17.1325 15.7281 17.2198 15.7281 17.2198C15.7281 17.2198 15.7902 16.8645 15.9242 16.5286C15.8232 16.5324 15.6504 16.5615 15.6504 16.5615C15.6504 16.5615 15.8912 16.1576 16.3032 15.8762C16.177 15.903 16.0536 15.9413 15.9343 15.9906C15.6936 16.0916 15.4295 16.2411 15.2334 16.3226C15.344 16.169 16.1207 15.0605 16.5829 14.0275C17.0437 12.9964 17.2159 12.7324 17.3169 12.179C17.3692 11.9052 17.3553 11.5006 17.3692 11.1382C17.3828 10.7789 17.4274 10.4566 17.3984 10.2411C17.5187 10.3906 17.9693 10.812 17.9848 11.7538C17.9983 12.6955 17.5538 13.9674 17.0818 14.6527C17.197 14.6858 17.4955 14.7247 17.8022 14.1919C18.1089 13.6592 18.1052 13.5105 18.2159 13.289C18.2295 13.3997 18.2255 13.4385 18.2255 13.4385C18.2255 13.4385 18.6722 12.8968 18.8838 12.2152C18.9266 12.5085 19.0528 12.7668 18.8546 13.3046C18.678 13.79 18.447 13.9085 18.447 13.9085C18.447 13.9085 18.5615 13.8891 18.7304 13.7881C18.7595 13.8599 18.7538 13.9417 18.8023 13.9706C18.8508 13.9996 18.9169 14.0483 18.9266 14.0949C18.9789 14.0172 19.0605 13.9181 19.0858 13.8444C19.0664 13.998 19.0528 14.6696 19.1242 15.0114C19.2738 14.9978 19.4272 14.9881 19.532 14.7181C19.4602 14.9823 19.4602 15.1414 19.5087 15.3667C19.5883 15.3125 19.6602 15.2153 19.6602 15.2153L19.6607 15.2157Z" fill="#C0993A" />
	<path fill-rule="evenodd" clip-rule="evenodd" d="M14.6157 4.51268C14.6157 4.51268 14.4662 4.57476 14.2118 4.57476C13.9905 4.57476 14.0526 4.48938 13.707 4.48938C13.175 4.48938 11.3167 4.79658 10.9904 4.79223C10.7787 4.78839 11.7049 4.88349 11.7049 4.88349L14.072 4.91652L14.5477 4.87812L14.7245 4.51844L14.6157 4.51268Z" fill="#A88F33" />
	<path fill-rule="evenodd" clip-rule="evenodd" d="M8.47794 9.1398C8.47794 9.1398 8.17497 9.37084 8.04684 9.54761C7.91871 9.72438 7.85074 9.84073 7.70508 9.98447C7.73927 9.98578 7.77343 9.98119 7.80607 9.9709C7.80607 9.9709 7.80607 10.0093 7.78277 10.0194C7.80291 10.0172 7.82328 10.0194 7.84242 10.0261C7.86156 10.0327 7.87896 10.0436 7.89337 10.0578C7.85061 10.0811 7.73413 10.1977 7.8254 10.3356C7.89337 10.4404 8.03711 10.45 8.03711 10.45C8.03711 10.45 8.00409 10.5452 8.14194 10.5355C8.43903 10.5219 8.77106 10.3918 8.92441 10.4248C9.07801 10.4632 9.1653 10.4773 9.27398 10.6657C9.38918 10.8521 9.48953 10.8812 9.48953 10.8812C9.48953 10.8812 9.5575 10.7083 9.54201 10.4501C9.59774 10.311 9.62863 10.1631 9.63327 10.0133L9.53228 9.26959L9.09158 8.71228L8.52069 9.02882L8.47794 9.13942V9.1398Z" fill="#E3C571" />
	<path fill-rule="evenodd" clip-rule="evenodd" d="M9.01953 9.02917C9.01953 9.02917 9.06228 9.13016 9.24097 9.13976C9.22152 9.18251 9.22152 9.1884 9.2274 9.2213C9.23124 9.25432 9.237 9.30283 9.237 9.30283C9.25668 9.29331 9.27446 9.2803 9.28948 9.26443C9.29921 9.30719 9.27976 9.37502 9.28948 9.42366C9.29549 9.45325 9.30525 9.48194 9.31854 9.50904C9.32137 9.5024 9.32462 9.49594 9.32827 9.48971C9.33211 9.47998 9.36667 9.59455 9.46228 9.68171C9.4622 9.66831 9.4655 9.6551 9.47188 9.64331C9.47335 9.66766 9.4814 9.69115 9.49518 9.71128C9.48802 9.70787 9.48149 9.70328 9.47585 9.69771C9.47585 9.69771 9.48545 10.0049 9.53793 10.1638C9.5467 10.1535 9.5545 10.1424 9.56123 10.1307C9.56123 10.1211 9.55739 10.2162 9.54766 10.2843C9.53409 10.3523 9.54382 10.4474 9.54382 10.4474C9.57883 10.4198 9.6173 10.397 9.65825 10.3794C9.71649 10.356 9.81185 10.2842 9.86996 10.125C9.90368 10.0348 9.92967 9.94192 9.94766 9.84735C9.96643 9.88349 9.97939 9.92237 9.98606 9.96255C9.99003 10.0111 10.0813 9.98584 10.0813 9.98584L10.1007 9.77413L10.2159 9.29451L10.3208 8.99742L10.8256 8.21112L11.7377 7.50866L12.5339 7.69118L13.2056 6.77854L12.0484 6.08337L10.9532 6.19793L9.95931 7.57458L9.16328 8.82322L9.01953 9.02904V9.02917Z" fill="#D8B65B" />
	<path fill-rule="evenodd" clip-rule="evenodd" d="M14.7553 7.03689C14.7553 7.03689 14.6873 7.05046 14.4912 7.15209C14.2952 7.25372 14.1592 7.28598 14.0834 7.43548C14.0077 7.58499 14.0019 7.70351 14.0019 7.70351C14.0019 7.70351 14.1359 7.64527 14.2136 7.62582C14.2952 7.60649 14.3864 7.61225 14.3767 7.64527C14.3674 7.66792 14.3544 7.68889 14.3383 7.70735C14.3383 7.70735 14.4919 7.70351 14.4878 7.77929C14.4837 7.85507 14.4587 7.93852 14.4297 7.97539C14.4005 8.01379 14.2802 8.07062 14.2666 8.11529C14.2336 8.20655 14.2802 8.21039 14.2626 8.28412C14.2491 8.35606 14.1851 8.49583 13.9753 8.74044C13.7597 8.98518 13.6681 9.15798 13.6681 9.15798C13.6681 9.15798 13.5632 8.96188 13.5088 8.79292C13.4704 8.81225 13.2642 8.92681 13.2642 8.92681L12.7865 7.26281L12.7961 7.15209C12.7961 7.15209 12.8389 7.09974 12.8486 7.00259C12.7768 6.97929 12.7671 6.95983 12.6719 6.8687C12.5766 6.77756 12.4991 6.66671 12.34 6.59094C12.3167 6.54818 12.2875 6.49007 12.171 6.46665C12.0545 6.44322 11.9846 6.42403 11.9846 6.42403C11.9846 6.42403 12.0467 6.4006 12.0759 6.35209C12.0039 6.36182 11.9458 6.38511 11.7885 6.38127C11.6293 6.37731 11.6118 6.37154 11.5245 6.38511C11.4372 6.39868 11.3325 6.43759 11.2934 6.30358C11.2507 6.27055 11.1594 6.29974 11.0817 6.41417C11.004 6.5286 10.9769 6.61999 10.8274 6.66467C10.8169 6.73057 10.7938 6.79384 10.7594 6.85103C10.7167 6.92297 10.6487 6.99478 10.5574 7.10153C10.4137 7.27049 10.437 7.54812 10.2079 7.75983C9.97681 7.97142 10.2463 7.17334 10.2463 7.17334L10.6151 6.29014L11.6656 5.26294L13.2968 5.15234L13.456 5.99714L14.2521 6.27094L14.7551 7.03791L14.7553 7.03689Z" fill="#D3AE4D" />
	<path fill-rule="evenodd" clip-rule="evenodd" d="M15.0139 7.22336L14.3284 6.23507L13.8488 5.86605C13.8488 5.86605 13.507 5.23705 13.4837 5.2176C13.4643 5.20403 13.142 5.16909 12.9362 5.15552L12.9746 5.25062C13.0195 5.26521 13.0594 5.29214 13.0898 5.32832C13.181 5.43315 13.2393 5.63117 13.0315 5.84288C13.1131 5.87193 13.1467 5.88128 13.2179 5.87193C13.1461 5.95744 12.983 6.13997 12.9733 6.2992C12.9636 6.42925 13.0451 6.46803 13.0451 6.46803C13.0451 6.46803 12.9208 6.61177 12.915 6.85203C12.9737 6.78584 13.038 6.72478 13.107 6.6695C13.2508 6.5543 13.4488 6.42477 13.5828 6.34323C13.581 6.37745 13.5856 6.4117 13.5964 6.44422C13.5964 6.44422 13.8468 6.2384 14.0572 6.32966C14.1523 6.37241 14.1095 6.50643 14.1095 6.50643C14.1095 6.50643 14.2397 6.45792 14.331 6.54918C14.4222 6.64045 14.5523 6.87533 14.6183 6.96672C14.6474 7.00947 14.7232 7.09101 14.8007 7.21709C14.9067 7.39382 14.9952 7.58047 15.0649 7.7744C15.0688 7.6967 15.0844 7.58803 15.2185 7.58803L15.0146 7.22298L15.0139 7.22336Z" fill="#CAA13E" />
	<path fill-rule="evenodd" clip-rule="evenodd" d="M4.73836 10.0311C4.73836 10.0311 4.68985 9.91062 4.73836 9.67574C4.78687 9.44086 4.86265 9.33014 4.88786 8.98454C4.91308 8.63894 5.13836 8.20783 5.13836 8.20783L5.76159 7.92444L6.20242 8.04476L6.33247 8.6351L5.77516 8.9423C5.77516 8.9423 5.7461 9.07234 5.58879 9.17718C5.43148 9.28201 5.21401 9.36354 5.16165 9.47042C5.13036 9.53587 5.10752 9.60503 5.09369 9.67625C5.09369 9.67625 4.93445 9.64322 4.83935 9.74806C4.73836 9.85494 4.7422 9.95004 4.73836 10.0316V10.0311Z" fill="#F4EFC8" />
	<path fill-rule="evenodd" clip-rule="evenodd" d="M5.99612 9.87374C5.99612 9.87374 5.94364 9.90677 5.90485 9.98894C5.86645 9.92686 5.77468 9.55784 5.77084 9.22581C5.767 8.89378 5.74716 8.81147 5.82396 8.69704C5.90076 8.58261 6.20194 8.46203 6.15919 8.25595C6.11644 8.05985 5.93775 7.97832 5.71836 8.03464C5.56476 8.07304 5.45045 8.39969 5.29122 8.56277C5.17077 8.68706 5.02716 8.6676 4.98837 8.73557C4.93589 8.82683 4.98441 8.9181 4.96892 8.97634C4.96495 8.99579 4.91644 9.10062 4.82901 9.22683C4.65237 9.48117 4.35337 9.84046 4.31445 10.1628C4.32802 9.98024 4.31842 9.9764 4.36693 9.77442L4.33775 9.7259L4.52975 9.09678L4.65404 8.57838L4.9318 7.71029L5.42101 6.82299L5.89679 6.29089L6.39189 6.32392L6.45014 7.0676L6.73366 8.46382L7.32975 9.19778L6.37436 9.84072L5.99573 9.87374H5.99612Z" fill="#EBCC73" />
	<path fill-rule="evenodd" clip-rule="evenodd" d="M6.29363 10.1376C6.29363 10.1376 6.21209 10.157 6.18291 10.1415C6.15372 10.126 6.12479 10.1085 6.13439 10.0891C6.14399 10.0696 6.19647 10.0367 6.19647 10.0211C6.19755 10.007 6.19309 9.993 6.18403 9.98213C6.17497 9.97125 6.16203 9.96434 6.14796 9.96285C6.10329 9.95709 6.08972 9.98614 6.08972 9.98614C6.08972 9.98614 6.04697 9.95325 6.01215 9.94774C6.03275 9.94522 6.05348 9.94389 6.07423 9.94377C6.02057 9.91947 5.96365 9.90312 5.90527 9.89526C5.95379 9.86621 6.04902 9.7807 6.1111 9.7807C6.17318 9.7807 6.21209 9.7711 6.20236 9.73808C6.19263 9.70505 6.14412 9.65654 6.09177 9.63709C6.1111 9.61379 6.12479 9.57885 6.0782 9.48349C6.02956 9.38838 6.04902 9.32425 6.06463 9.30108C6.0782 9.2719 6.12671 9.21955 6.15001 9.18652C6.17331 9.1535 6.19276 9.10883 6.23155 9.08553C6.251 9.07196 6.31308 9.04713 6.37529 9.02345C6.44326 9.00016 6.49958 8.97097 6.53836 9.00016C6.58111 9.02921 6.56166 9.06812 6.56166 9.06812C6.56166 9.06812 6.69567 9.01948 6.81599 9.08169C6.93644 9.1398 7.22969 9.1768 7.22969 9.1768L7.33478 9.38851L6.63961 9.98461L6.35225 10.1283L6.29401 10.1379L6.29363 10.1376Z" fill="#E5C66B" />
	<path fill-rule="evenodd" clip-rule="evenodd" d="M7.25806 9.16311C7.25806 9.16311 7.04251 9.30686 6.994 9.35921C7.02305 9.36318 7.07157 9.38263 7.05211 9.41169C7.02881 9.44074 6.88904 9.54174 6.81134 9.63697C6.7298 9.73207 6.65211 9.85252 6.62497 9.91076C6.59592 9.96311 6.37448 10.1166 6.29883 10.1359C6.45806 10.1359 6.77844 9.93982 6.89876 9.93982C6.89492 9.99806 6.93179 10.0641 6.99976 10.0699C7.06772 10.0756 7.26382 10.1126 7.52789 9.94954C7.79195 9.79031 7.70465 9.67178 7.81525 9.59422C8.02696 9.45431 8.11233 9.33002 8.22881 9.25246C8.34529 9.17489 8.40558 9.15722 8.40558 9.15722C8.40558 9.15722 8.40942 9.09898 8.44398 9.10487C8.45344 9.10596 8.46242 9.10961 8.46996 9.11543C8.47749 9.12125 8.4833 9.12902 8.48673 9.1379C8.48673 9.1379 8.68872 8.99415 8.94753 8.95537C8.9415 8.95267 8.93667 8.94784 8.93397 8.9418C8.93397 8.9418 8.95329 8.93207 8.95726 8.92234C8.95726 8.92234 8.97083 8.90289 8.98056 8.91262C8.99029 8.92234 9.00385 8.99415 9.02331 9.02334C9.06606 9.00388 9.1476 8.82135 9.1476 8.82135L9.34382 8.2602V7.74756L9.19022 7.77674L8.03822 8.26596L7.33909 8.99031L7.25755 9.16311H7.25806Z" fill="#E6BD62" />
	<path fill-rule="evenodd" clip-rule="evenodd" d="M10.5744 6.64861C10.6367 6.63349 10.6965 6.60925 10.7517 6.57668C10.7284 6.63888 10.7284 6.70685 10.6274 6.85444C10.5264 7.00202 10.5226 7.0234 10.441 7.17674C10.3595 7.33597 10.3498 7.56509 10.2721 7.66596C10.3069 7.64904 10.3443 7.63792 10.3827 7.63306C10.3827 7.63306 10.3051 7.70103 10.2721 7.77284C10.2391 7.84465 10.1808 7.99415 10.0372 8.08554C9.89358 8.17693 9.71092 8.23505 9.51483 8.4506C9.3186 8.66218 9.11675 8.93021 9.01562 9.0266C9.06811 8.93533 9.13991 8.75281 9.15937 8.63249C9.17882 8.51217 9.1554 8.36829 9.18843 8.20919C9.22145 8.05009 9.22145 7.9354 9.38043 7.65764C9.5394 7.37988 9.81153 6.41488 9.81153 6.41488L10.3979 6.22852L10.5747 6.64797L10.5744 6.64861Z" fill="#B6933F" />
	<path fill-rule="evenodd" clip-rule="evenodd" d="M10.1511 6.29321C10.1511 6.29321 9.97445 6.54754 9.92594 6.77282C9.87743 6.9981 9.92197 6.97865 9.89292 7.08937C9.87554 7.15687 9.87554 7.22768 9.89292 7.29519C9.95409 7.19664 10.0379 7.11406 10.1373 7.05429C10.3043 6.95343 10.4402 6.88149 10.5213 6.79612C10.6028 6.70485 10.6708 6.55535 10.8474 6.44079C10.7756 6.43106 10.6746 6.39804 10.6554 6.40239C10.7273 6.32085 10.9428 6.19657 11.1602 6.04706C11.3758 5.89346 11.3622 5.83151 11.7118 5.67817C11.5972 5.69762 11.5428 5.66844 11.4476 5.67817C11.486 5.59663 11.6204 5.55772 11.7548 5.42383C11.8892 5.28994 11.6694 5.0918 11.6694 5.0918L10.6454 5.71119L10.1503 6.29372L10.1511 6.29321Z" fill="#C49937" />
	<path fill-rule="evenodd" clip-rule="evenodd" d="M7.37305 5.831L7.39634 5.64464L7.68959 5.17475L7.99641 4.34953V3.22134L7.97311 2.56892L8.02162 2.14166L8.05849 2.00585L8.0974 1.95337L8.34777 2.08342L8.6935 2.55331L8.72652 3.46019L8.39052 4.89123L7.43129 5.93788L7.37305 5.831Z" fill="#DFC068" />
	<path fill-rule="evenodd" clip-rule="evenodd" d="M8.13573 1.90093C8.13573 1.90093 7.98213 1.9049 7.94936 2.54375C7.91659 3.1826 7.90072 3.51847 7.87742 3.83501C7.85413 4.15156 7.79985 4.34369 7.77259 4.53018C7.74533 4.71668 7.72984 4.97089 7.64254 5.12628C7.60414 5.19809 7.52209 5.42337 7.32984 5.59233C7.11429 5.77869 6.79224 5.90887 6.74347 5.9186C6.65797 5.93793 6.22494 5.98068 6.0483 6.07783C5.98622 6.11085 5.87934 6.14964 5.76094 6.26036C5.52593 6.47194 5.21336 6.85057 4.98808 7.30689C4.64248 7.98849 4.29688 9.91271 4.29688 9.91271L4.37457 9.78267C4.37457 9.78267 4.3843 9.60987 4.5571 9.30689C4.72606 9.00404 4.67755 8.6642 4.91243 8.08359C5.00369 7.86228 5.11825 7.57492 5.25803 7.33018C5.47947 6.9321 5.74737 6.59034 6.01732 6.40398C6.45803 6.10113 6.94353 6.03508 6.94353 6.03508L7.4659 5.68948C7.4659 5.68948 7.55717 5.51284 7.67761 5.31085C7.84645 5.02746 8.06161 4.71092 8.10859 4.25076C8.18053 3.56916 8.0076 3.12256 8.01733 2.71872C8.02705 2.31488 8.03089 2.01779 8.11256 1.94586C8.19422 1.87392 8.13585 1.90119 8.13585 1.90119L8.13573 1.90093Z" fill="#A88F33" />
	<path fill-rule="evenodd" clip-rule="evenodd" d="M8.136 4.94946C8.136 4.94946 8.3664 4.38242 8.47187 3.87951C8.49132 3.77851 8.53011 3.67765 8.53984 3.59611C8.58835 3.12034 8.60192 2.92424 8.53984 2.66402C8.49132 2.47202 8.30496 2.29896 8.2078 2.16482C8.1127 2.02491 8.06803 1.97282 8.08748 1.94338C8.10694 1.91394 8.18259 1.86581 8.25632 1.87157C8.33469 1.87385 8.41178 1.89205 8.4829 1.92505C8.55401 1.95806 8.61768 2.00519 8.67001 2.06357C8.81952 2.23637 8.93792 2.82286 8.93792 2.82286L9.06246 3.59675L9.379 4.57147L8.13625 4.95023L8.136 4.94946Z" fill="#C99E3D" />
	<path fill-rule="evenodd" clip-rule="evenodd" d="M10.3009 4.35936C10.3009 4.35936 10.2581 4.37869 10.1806 4.35936C10.1839 4.39106 10.1784 4.42305 10.1647 4.45183C10.151 4.4806 10.1296 4.50503 10.1029 4.52243C10.0213 4.48941 9.25808 4.55546 9.25808 4.55546C9.25808 4.55546 8.90275 4.49325 8.79203 4.02336C8.71446 3.71065 8.85027 3.27968 8.8056 2.99616C8.73763 2.57862 8.64253 2.49696 8.6328 2.36704C8.62307 2.23712 8.61334 2.20396 8.61334 2.12243C8.57059 2.1127 8.54537 2.09913 8.50275 2.09913C8.49302 2.06073 8.51235 2.0272 8.46973 1.95923C8.49302 1.96896 8.65225 1.98841 8.83862 2.16505C8.99222 2.3088 8.99222 2.36115 9.01539 2.39033C9.04445 2.41939 9.27945 2.62073 9.38045 2.82144C9.48144 3.02214 9.67754 3.66214 9.72221 3.76697C9.73578 3.80973 9.76496 3.85248 9.83741 3.9495C9.95005 4.08941 10.115 4.3207 10.3014 4.3591L10.3009 4.35936Z" fill="#B58634" />
	<path fill-rule="evenodd" clip-rule="evenodd" d="M9.04297 2.40002C9.1606 2.59004 9.26627 2.7872 9.35939 2.99036C9.47395 3.24854 9.54191 3.46025 9.68566 3.63305C9.60796 3.4079 9.47011 2.96514 9.38857 2.80783C9.2973 2.64143 9.11094 2.46223 9.04297 2.40015V2.40002Z" fill="#A88F33" />
	<path fill-rule="evenodd" clip-rule="evenodd" d="M7.72244 5.59229C7.72244 5.59229 7.52634 5.6408 7.16128 5.83306C7.04084 5.89514 6.9264 5.94749 6.81568 5.99613C6.52807 6.12618 6.21959 6.24637 5.97485 6.31268C5.99431 6.33597 6.00391 6.34557 6.00391 6.34557C6.00391 6.34557 6.00391 6.4408 6.05639 6.49508C6.02733 6.52426 5.63885 6.78832 5.75354 7.67178C5.83111 7.64272 5.92237 7.60381 5.93594 7.60381C5.95936 7.60778 5.96512 7.67178 5.99418 7.67178C6.02324 7.67178 6.11847 7.63338 6.21946 7.50282C6.21562 7.5553 6.15738 8.08343 6.46996 8.43876C6.5282 8.37079 6.67578 8.14551 6.67578 8.14551L6.67962 8.0737C6.67962 8.0737 6.69319 7.8232 6.77485 7.59408C6.85652 7.36496 7.01562 7.196 7.01562 7.196L7.84647 6.00957L7.72218 5.59216L7.72244 5.59229Z" fill="#E6C367" />
	<path fill-rule="evenodd" clip-rule="evenodd" d="M6.94525 7.33437C6.90721 7.36125 6.8653 7.38218 6.82096 7.39645C6.8074 7.34794 6.78794 7.1809 6.9025 7.01783C7.03652 6.8216 7.32964 6.56727 7.41117 6.36503C7.46365 6.23485 7.44036 5.9087 7.90641 5.49117C8.37245 5.07363 8.55485 4.93002 8.55485 4.93002L9.30826 4.55139L10.2345 4.91645L9.77431 6.71997L9.41706 7.56477L7.99626 7.29687L6.94512 7.33437H6.94525Z" fill="#DCBA5A" />
	<path fill-rule="evenodd" clip-rule="evenodd" d="M7.48828 6.84468L7.66505 6.62337V6.46606C7.66505 6.46606 7.86115 6.41358 8.07273 6.19802C8.28431 5.98247 8.57756 5.5689 8.83587 5.59412C9.09417 5.6233 9.11939 6.15527 9.12911 6.3049C9.13884 6.45454 9.17187 6.79412 9.22422 6.97678C9.28246 7.1593 8.5951 7.85051 8.5951 7.85051L8.12828 8.20583L7.48828 6.84468Z" fill="#E9CE77" />
	<path fill-rule="evenodd" clip-rule="evenodd" d="M8.03516 8.68741C8.03516 8.68741 8.1789 8.46213 8.07356 8.41362C8.13564 8.27384 8.2502 8.12626 8.2502 8.12626C8.2502 8.12626 8.33173 7.9244 8.5958 7.67582C8.85986 7.42725 9.02306 7.26213 9.06581 7.09522C9.09217 6.98644 9.10651 6.87509 9.10857 6.76318C9.13711 6.78651 9.16765 6.80728 9.19983 6.82526C9.24258 6.84472 9.44444 7.01163 9.41538 7.34763C9.38633 7.68363 9.26178 7.82341 9.26178 7.82341C9.26178 7.82341 9.14146 7.94373 9.05609 8.00594C8.96469 8.06802 8.9318 8.13983 8.77833 8.14571C8.7941 8.13317 8.81183 8.12331 8.83081 8.11653C8.83081 8.11653 8.67157 8.0972 8.58607 8.17477C8.50057 8.25234 8.3188 8.49131 8.22754 8.56325C8.13628 8.62149 8.03554 8.68754 8.03554 8.68754L8.03516 8.68741Z" fill="#CDAE50" />
	<path fill-rule="evenodd" clip-rule="evenodd" d="M14.4914 4.91064C14.262 4.82703 14.0209 4.77987 13.7769 4.77086C13.3691 4.7573 12.773 4.78059 12.1886 4.78443C11.5594 4.78827 10.9886 4.56888 10.1964 4.53009C10.0663 4.4524 9.73557 4.11256 8.70312 4.83294C8.76521 4.8291 9.45269 4.67371 9.69141 4.97285C9.93218 5.26994 9.86421 5.77477 9.83132 5.89509C9.76911 6.16312 9.56713 6.55339 9.48572 6.82719C9.40431 7.10098 9.42351 7.24485 9.36527 7.43685C9.30703 7.62885 9.1789 7.72421 9.25455 7.94552C9.35554 7.88344 9.40815 7.88344 9.57685 7.50482C9.74556 7.12619 9.71087 6.85624 9.99055 6.53586C10.2643 6.21355 10.7202 5.77272 10.8935 5.662C11.0668 5.55128 12.4429 4.83678 13.8838 5.51838C14.2313 5.48152 14.4915 4.91051 14.4915 4.91051L14.4914 4.91064Z" fill="#D2A83E" />
	<path fill-rule="evenodd" clip-rule="evenodd" d="M9.28394 4.64642C9.28252 4.63183 9.27929 4.61747 9.27434 4.60367C9.26087 4.57527 9.24317 4.54908 9.22186 4.52597C9.22186 4.52597 8.8801 4.46389 8.7073 4.48322C8.40432 4.51625 8.13053 4.89103 8.0024 5.08329C7.87428 5.27554 7.71504 5.5725 7.54224 5.72598C7.54414 5.71102 7.54069 5.69588 7.53252 5.68322C7.53252 5.68322 7.54224 5.69679 7.52292 5.71625C7.50359 5.7357 7.50346 5.7453 7.51319 5.75465L7.54237 5.7837C7.55197 5.7837 7.82 5.66326 8.18506 5.3229C8.57341 4.96757 8.8705 4.7853 9.02589 4.72284C9.10876 4.68762 9.19538 4.66198 9.28407 4.64642H9.28394Z" fill="#C29637" />
	<path fill-rule="evenodd" clip-rule="evenodd" d="M15.9126 3.1864C15.9126 3.1864 15.8503 3.26397 15.7726 3.34947C15.5998 3.532 15.3746 3.7377 15.1823 3.94941C14.9999 4.15139 14.7941 4.30871 14.5629 4.57277C14.3317 4.83684 14.0637 5.12996 13.9959 5.21546C13.9338 5.30096 13.8853 5.44074 13.8853 5.51255C13.8523 5.48925 13.8135 5.46404 13.8135 5.46404C13.8298 5.49452 13.8493 5.52318 13.8717 5.54954C13.9202 5.61751 13.9959 5.70314 14.0348 5.75536C14.0825 5.82185 14.1168 5.89703 14.1357 5.97668C14.1589 5.98052 14.3085 6.0097 14.495 5.70288C14.6814 5.39607 14.9259 5.0602 14.9259 5.0602L15.3143 4.48343L15.559 3.99421L15.8662 3.44663L15.9129 3.1864H15.9126Z" fill="#AC8132" />
	<path fill-rule="evenodd" clip-rule="evenodd" d="M16.3112 2.79419C16.3112 2.79419 16.0762 2.98619 15.9849 3.10139C15.8937 3.21659 15.6777 3.51893 15.6777 3.51893L15.7554 3.5092L16.1497 3.15976L16.3033 2.88597L16.3111 2.7947L16.3112 2.79419Z" fill="#A88F33" />
	<path fill-rule="evenodd" clip-rule="evenodd" d="M16.2393 18.2253C16.2393 18.2253 16.2355 18.066 16.3248 17.9709C16.4161 17.8757 16.6471 17.7359 16.8724 17.2116C17.0977 16.6873 17.1228 16.5689 17.1228 16.5689C17.1228 16.5689 16.7189 16.9145 16.47 16.9961C16.5282 16.8756 16.5612 16.7903 16.5904 16.7281C16.5574 16.699 16.4176 16.666 16.404 16.6505C16.4816 16.5728 16.5244 16.3824 16.6817 16.2562C16.8837 16.1026 17.2526 15.8387 17.5393 15.6034C17.826 15.3682 18.3897 14.821 18.4616 14.6617C18.5044 14.7238 18.514 14.7626 18.514 14.7626C18.514 14.7626 18.2306 15.1316 18.083 15.3665C17.9528 15.5685 17.9626 15.6831 17.9626 15.6831L18.2306 15.5679C18.2306 15.5679 18.3082 15.8552 17.9568 16.2922C18.1104 16.234 18.1724 16.2689 18.2597 16.2203C18.1159 16.3117 17.9179 16.436 17.7315 16.7776C17.549 17.1193 17.3004 17.5174 16.8811 17.7659C16.4733 18.028 16.2383 18.2241 16.2383 18.2241L16.2393 18.2253Z" fill="#A67A2E" />
	<path fill-rule="evenodd" clip-rule="evenodd" d="M15.1862 5.11266C15.1862 5.11266 15.027 5.44456 15.0037 5.70287C14.9998 5.76508 14.9842 5.81359 14.9842 5.8854C14.9804 6.11644 14.9978 6.37474 14.9458 6.49506C14.9263 6.44655 14.9166 6.41353 14.8972 6.3942C14.8681 6.47573 14.8156 6.73007 14.7729 6.82517C14.7535 6.76309 14.7108 6.54754 14.7148 6.29321C14.7187 6.03887 14.7244 5.99023 14.7244 5.93788C14.7148 6.01544 14.6623 6.12041 14.6428 6.18249C14.6138 6.13013 14.5807 6.06217 14.5418 6.00585C14.5185 6.04425 14.4895 6.10095 14.4643 6.13013C14.4603 6.10684 14.4507 6.04463 14.4448 5.95733C14.441 5.85634 14.4351 5.72629 14.441 5.69903C14.4506 5.64668 14.5322 5.44085 14.705 5.25244C14.9109 5.02716 15.1226 4.59426 15.1847 4.46024C15.2467 4.32623 15.5108 3.76904 15.5108 3.76904H15.7128L15.4195 4.43695C15.4195 4.43695 15.2429 4.802 15.1516 4.93615C15.0604 5.07029 14.8681 5.45468 14.7826 5.60418C14.8447 5.52264 14.8972 5.47989 14.9594 5.4022C15.0195 5.3478 15.1864 5.11292 15.1864 5.11292L15.1862 5.11266Z" fill="#8C6228" />
	<path fill-rule="evenodd" clip-rule="evenodd" d="M16.3146 2.76892C16.2816 2.87047 16.2295 2.96475 16.161 3.04668C16.0406 3.19043 15.7822 3.38255 15.6562 3.5359C15.541 3.6854 15.3106 4.09321 15.4153 4.57667C15.4537 4.47183 15.526 4.26409 15.7182 4.02908C15.9105 3.79407 16.1163 3.52425 16.2174 3.31459C16.3183 3.10287 16.3319 2.93596 16.3319 2.93596L16.3703 2.88745L16.347 2.77673L16.314 2.76892H16.3146Z" fill="#CBA94C" />
	<path fill-rule="evenodd" clip-rule="evenodd" d="M20.247 15.6485C20.247 15.6485 20.1693 15.4369 20.146 15.2446C20.1227 15.0524 20.1844 15.0142 20.113 14.7942C20.0702 14.6602 19.9927 14.679 19.9732 14.6602C19.9537 14.6414 19.9402 14.4389 19.944 14.3282C19.9479 14.2174 19.9402 14.0738 19.9207 14.0116C19.8917 13.9883 19.8722 13.9689 19.8295 13.8253C19.7809 13.6815 19.7576 13.6097 19.7344 13.5671C19.7111 13.5245 19.643 13.4855 19.643 13.4428C19.643 13.3573 19.7207 13.3127 19.7207 13.2892C19.7168 13.2407 19.6586 13.2796 19.643 13.2659C19.6236 13.2426 19.6916 13.1028 19.6664 13.0834C19.6567 13.0738 19.5887 13.1553 19.5712 13.132C19.5517 13.1086 19.5284 12.8775 19.4935 12.7242C19.4606 12.5747 19.4255 12.466 19.4216 12.4213C19.4178 12.3786 19.1536 11.6252 19.0896 11.4427C19.038 11.2884 18.9946 11.1316 18.9596 10.9728C18.9401 10.8815 18.9265 10.695 18.9168 10.7145C18.9071 10.7339 18.913 10.829 18.8974 10.8252C18.8838 10.8212 18.8353 10.4893 18.8198 10.4368C18.8062 10.3844 18.7246 10.2064 18.7046 10.0777C18.6851 9.94749 18.6425 9.60765 18.6133 9.37661C18.5841 9.14557 18.5706 9.05047 18.5706 8.99261C18.5753 8.8511 18.5676 8.70944 18.5473 8.56931C18.5089 8.32458 18.4321 8.02749 18.3647 7.85482C18.2347 7.52854 17.889 6.6936 17.8271 6.48586C17.8271 6.43338 17.8951 6.46256 17.8951 6.46256C17.8951 6.46256 18.0639 6.88586 18.1882 7.212C18.3087 7.53827 18.4232 7.82563 18.4524 7.85482C18.4757 7.88387 18.6583 8.20426 18.7398 8.72855C18.8213 9.25283 18.8504 9.73629 18.899 10.0586C18.9223 10.2122 18.9418 10.3751 18.9903 10.5382C19.0426 10.715 19.1242 10.8975 19.2311 11.1771C19.3223 11.4121 19.3903 11.6082 19.4272 11.7771C19.4699 11.9927 19.4699 12.1557 19.4951 12.2626C19.5185 12.3539 19.5534 12.5363 19.635 12.8002C19.7167 13.0642 19.8369 13.4041 19.9184 13.6157C20.0778 14.039 20.1488 14.3924 20.1729 14.5808C20.1941 14.775 20.2661 15.4469 20.2466 15.6487L20.247 15.6485Z" fill="#A88F33" />
	<path fill-rule="evenodd" clip-rule="evenodd" d="M16.3248 2.74564L16.3151 2.76894C16.3151 2.76894 16.3442 2.77866 16.3384 2.81758C16.3388 2.87081 16.3356 2.92402 16.3287 2.97681C16.3191 3.04478 16.2996 3.09713 16.2958 3.13988C16.2958 3.23114 16.3093 3.33598 16.1806 3.5962C16.1422 3.66801 16.1185 3.73009 16.099 3.77284C16.0505 3.87767 16.0408 3.89329 15.998 3.9418C16.066 3.9034 16.3107 3.7498 16.4349 3.77284C16.3495 3.82135 16.2194 3.91659 16.1378 4.04087C16.1573 4.04471 16.2388 4.06033 16.3682 4.04087C16.5838 4.00785 16.8245 3.93015 17.0361 3.94564C17.2673 3.95921 17.176 3.66801 17.176 3.66801L16.9093 3.08164L16.4044 2.72644L16.3248 2.74577V2.74564Z" fill="#BE9C44" />
	<path fill-rule="evenodd" clip-rule="evenodd" d="M17.6407 7.13787C17.6407 7.13787 17.4155 6.91259 17.3242 6.13947C17.2329 5.36276 17.2524 4.21947 17.2524 4.21947L17.0699 3.77287C17.0699 3.77287 17.0315 3.47579 16.9358 3.36519C16.8402 3.2546 16.6524 3.06811 16.5669 2.97684C16.4814 2.88558 16.3844 2.76129 16.3262 2.74183C16.3552 2.69332 16.4854 2.41953 16.9843 2.41569C17.4833 2.41185 17.6371 2.68948 17.6892 2.79047C17.7413 2.89147 17.9766 3.32807 18.0639 4.16007C18.1454 4.99105 18.1494 5.05326 18.1358 5.34062C18.1261 5.49985 18.0736 5.86875 17.9822 6.26286C17.8988 6.59694 17.8075 6.96981 17.6405 7.13864L17.6407 7.13787Z" fill="#A17C34" />
	<path fill-rule="evenodd" clip-rule="evenodd" d="M16.9344 7.80004C17.0095 7.80545 17.0845 7.78853 17.15 7.7514C17.2218 7.74756 17.482 7.78058 17.6819 7.52625C17.6955 7.58436 17.7306 7.7418 17.6392 7.88157C17.6878 7.83293 17.7596 7.81361 17.7694 7.80004C17.7732 7.87185 17.8412 8.09316 17.5538 8.63101C17.6314 8.54564 17.7226 8.54948 17.8042 8.53975C17.8081 8.64074 17.8624 8.98045 17.7188 9.16311C17.6237 9.2874 17.4683 9.24849 17.4683 9.24849C17.4706 9.22136 17.4706 9.19408 17.4683 9.16695C17.4645 9.11447 17.445 9.06212 17.4587 9.02717C17.3836 8.99288 17.3152 8.94551 17.2567 8.88727C17.0878 8.72804 16.8684 8.45629 16.8529 8.25431C16.8334 8.02903 17.0354 7.98052 17.0354 7.98052C17.0185 7.96538 17.0041 7.94767 16.9927 7.92804C16.9829 7.89514 16.9732 7.84266 16.9344 7.80004Z" fill="#8C6228" />
	<path fill-rule="evenodd" clip-rule="evenodd" d="M15.4371 5.35733C15.4371 5.35733 15.4274 5.34376 15.375 5.40584C15.3847 5.34376 15.3945 5.28539 15.3983 5.22907C15.4231 5.17693 15.4551 5.12857 15.4935 5.08545C15.4643 5.14356 15.4449 5.19605 15.4449 5.19605C15.4449 5.19605 15.5168 5.06203 15.6217 4.98049C15.6935 4.92225 15.7847 4.89512 15.8235 4.84072C15.8663 4.78248 15.8565 4.77275 15.8663 4.76302C15.8663 4.76302 15.9615 4.70094 16.1072 4.51828C16.1265 4.49499 16.1557 4.46977 16.1751 4.44648C16.208 4.43291 16.2857 4.39796 16.377 4.35124C16.4722 4.29889 16.579 4.22708 16.645 4.19764C16.7751 4.1394 16.913 4.14529 16.977 4.0539C17.0256 4.04033 17.0779 3.89467 17.0683 3.77051C17.1401 3.79956 17.509 4.02868 17.6354 4.52968C17.7266 4.885 17.5634 5.43259 17.4955 5.69678C17.4275 5.96097 17.4179 6.15694 17.3227 6.27726C17.2022 6.43662 16.814 6.66126 16.7187 6.77249C16.6372 6.86376 16.3926 7.0948 16.4022 7.26171C16.4119 7.386 16.5653 7.45371 16.5984 7.47726C16.6316 7.50081 16.6313 7.52974 16.6935 7.51566C16.7557 7.50158 16.7789 7.47291 16.8042 7.47291C16.8333 7.47675 16.8333 7.48264 16.8469 7.48264C16.8567 7.48235 16.8665 7.48102 16.8761 7.47867C16.8761 7.47867 16.8663 7.65544 16.4528 7.70907C16.4236 7.71304 16.3945 7.72264 16.3575 7.72853C16.4062 7.70523 16.4352 7.70523 16.4877 7.63342C16.4295 7.6237 16.2624 7.61397 16.2197 7.6004C16.2332 7.5771 16.2779 7.5149 16.3148 7.48584C16.3478 7.45678 16.3109 7.44744 16.2819 7.46254C16.2319 7.49658 16.1839 7.53351 16.1381 7.57314C16.0896 7.61589 16.0469 7.67413 15.9692 7.72674C15.9459 7.64904 15.9497 7.50146 16.0411 7.3947C16.0177 7.39854 15.973 7.46651 15.9304 7.45294C15.9227 7.38212 15.9273 7.31049 15.944 7.24123C15.9673 7.15381 16.0935 7.00046 16.0935 7.00046L16.7031 5.91105L16.8332 5.08584L15.4371 5.35707V5.35733Z" fill="#92723A" />
	<path fill-rule="evenodd" clip-rule="evenodd" d="M15.4043 5.40397C15.4043 5.40397 15.3713 5.42726 15.4373 5.47194C15.4276 5.4855 15.4043 5.53402 15.3751 5.56704C15.3422 5.60544 15.3072 5.62925 15.2936 5.66227C15.2645 5.73024 15.2412 5.77683 15.2412 5.80602C15.2412 5.8352 15.2315 6.02157 15.15 6.14189C15.1208 6.18464 15.0878 6.25645 15.0645 6.30496C15.016 6.39034 14.9732 6.45856 14.9635 6.49696C14.9442 6.56493 14.9306 6.7513 14.9306 6.7513C14.9306 6.7513 14.9733 6.69882 14.9888 6.67949C14.9654 6.728 14.9402 6.78035 14.9033 6.81927C14.9266 6.79981 14.9946 6.7513 15.1091 6.65031C15.2684 6.51642 15.517 6.29114 15.8199 6.1127C15.7285 6.14573 15.651 6.14573 15.5889 6.15546C15.6374 6.10694 16.0743 5.5943 16.3034 5.54579C16.3173 5.52815 16.3242 5.50601 16.3228 5.48358L16.1266 5.46426L15.7285 5.54963L15.6704 5.24243L15.4043 5.40358V5.40397Z" fill="#B18E3E" />
	<path fill-rule="evenodd" clip-rule="evenodd" d="M16.0373 7.15155C16.0373 7.15155 15.9848 7.2039 15.9363 7.33407C15.899 7.29508 15.8669 7.2513 15.8411 7.2039C15.7693 7.08358 15.6587 6.93011 15.4004 7.01753C15.3965 6.93599 15.3907 6.89324 15.4004 6.835C15.4431 6.8254 15.5732 6.72057 15.7032 6.5671C15.7946 6.46227 15.88 6.34182 15.9382 6.18847C15.9766 6.15929 16.0431 6.11078 16.1302 6.05446C16.2545 5.96908 16.404 5.85247 16.4273 5.72243C16.3691 5.74572 16.2448 5.80396 16.0583 5.79436C16.1302 5.76134 16.2408 5.72639 16.2273 5.58265C16.2564 5.56319 16.2797 5.54963 16.2797 5.54963C16.2579 5.54233 16.2348 5.53903 16.2118 5.5399C16.2078 5.52633 16.202 5.507 16.169 5.5166C16.136 5.5262 16.1306 5.52633 16.1263 5.5399C16.1127 5.54387 16.068 5.5399 16.035 5.56332C16.002 5.58675 15.9107 5.66419 15.8758 5.67775C15.8893 5.65446 15.9087 5.61964 15.9087 5.61964C15.9087 5.61964 15.8136 5.62924 15.7456 5.65804C15.6213 5.70079 15.4777 5.77849 15.332 5.85414C15.3456 5.83084 15.3515 5.81574 15.3611 5.81139C15.3707 5.80703 15.3941 5.80179 15.3941 5.79782C15.3941 5.79385 15.3845 5.75942 15.3903 5.74547C15.4338 5.65321 15.4852 5.56486 15.5439 5.4814C15.6118 5.39001 15.6254 5.25996 15.6254 5.25996L15.9225 5.11046L16.7574 4.91846L17.2993 4.95148L17.2313 5.32627L16.9113 5.9806L16.6375 6.5767L16.3248 6.94188L16.0374 7.15155H16.0373Z" fill="#543E26" />
	<path fill-rule="evenodd" clip-rule="evenodd" d="M17.3906 5.52965C17.3906 5.52965 17.0643 5.93349 16.973 5.9957C17.0313 5.87141 17.3906 5.13157 17.5206 4.92575C17.4916 4.90245 17.4526 4.90245 17.5439 4.54175C17.4663 4.72415 17.4391 4.81938 17.3751 4.86789C17.3111 4.9164 17.3031 4.90092 17.2599 4.90092C17.268 4.88614 17.2714 4.86918 17.2695 4.8524C17.2695 4.8524 16.9957 4.81938 16.8087 4.81938C16.6217 4.81938 16.2515 4.92037 16.0455 5.00191C15.8825 5.06988 15.7912 5.06988 15.733 5.1125C15.6747 5.16101 15.6417 5.21349 15.6125 5.22706C15.5892 5.24063 15.4786 5.27557 15.4533 5.31244C15.43 5.35084 15.3912 5.39397 15.3912 5.4037C15.3912 5.41343 15.3815 5.42712 15.4107 5.41727C15.4203 5.41343 15.4922 5.37452 15.5737 5.326C15.6843 5.26392 15.8183 5.19212 15.9155 5.14936C16.1931 5.03864 16.2805 5.0581 16.4047 5.0348C16.5348 5.01151 16.7213 4.95711 16.8454 4.95711C16.9697 4.95327 17.2047 4.95711 17.2591 4.96684C17.2358 4.98629 17.2164 5.00959 17.2261 5.09112C17.2261 5.11442 17.2066 5.13964 17.1877 5.19596C17.1296 5.35519 17.0189 5.61925 16.9573 5.75327C16.8719 5.93567 16.7749 6.08914 16.7269 6.18425C16.6789 6.27935 16.5733 6.52985 16.4687 6.66386C16.3641 6.79788 16.3095 6.87941 16.2767 6.9086C16.2439 6.93778 16.0087 7.11045 16.0262 7.17266C16.069 7.15909 16.3389 7.05746 16.5349 6.83679C16.7309 6.61612 16.7699 6.48146 16.9232 6.36101C17.0766 6.24057 17.197 6.03871 17.2688 5.8718C17.329 5.71641 17.3154 5.66789 17.3911 5.53004L17.3906 5.52965Z" fill="#806031" />
	<path fill-rule="evenodd" clip-rule="evenodd" d="M10.3588 8.54374C10.3588 8.54374 10.3161 8.72038 10.2189 8.8078C10.1238 8.89331 9.95488 8.96704 9.93555 9.11078C9.91226 9.2544 10.1045 9.32633 10.1045 9.32633C10.1045 9.32633 9.99955 9.49913 9.99955 9.62918C9.99955 9.7632 9.99571 9.78841 10.0093 9.91654C9.99388 9.92645 9.98079 9.93954 9.97088 9.95494C9.97088 9.95494 9.98048 10.0792 10.0757 10.1568C10.1709 10.2344 10.2524 10.2811 10.3009 10.2616C10.3083 10.2775 10.3148 10.2937 10.3203 10.3103C10.3203 10.3103 10.3923 10.1277 10.4408 9.96851C10.4893 9.80544 10.532 9.8286 10.5514 9.60921C10.5707 9.38982 10.7818 9.01312 10.7818 9.01312L10.9258 8.6912L10.6909 8.50867L10.3588 8.54361V8.54374Z" fill="#B6903C" />
	<path fill-rule="evenodd" clip-rule="evenodd" d="M10.7962 8.86011C10.7477 8.90983 10.703 8.96305 10.6624 9.01934C10.6003 9.10484 10.5518 9.18241 10.4605 9.21556C10.3693 9.24872 10.311 9.24846 10.3168 9.33985C10.3226 9.43124 10.4081 9.4699 10.4566 9.51649C10.5091 9.565 10.5518 9.64654 10.5285 9.73793C10.5576 9.72436 10.61 9.70875 10.6586 9.60392C10.7071 9.49908 11.0464 8.86024 11.0464 8.86024H10.7962V8.86011Z" fill="#685026" />
	<path fill-rule="evenodd" clip-rule="evenodd" d="M12.1343 7.38639C12.1343 7.38639 12.1633 7.30882 12.1343 7.2525C12.1051 7.19426 11.9284 7.1748 11.841 7.10876C11.7497 7.04079 11.639 6.99356 11.5478 7.02338C11.5613 6.99036 11.6157 6.91842 11.5711 6.90293C11.5283 6.88936 11.3692 6.96117 11.3264 6.99419C11.2837 7.02722 11.1865 7.066 11.1672 7.08943C11.1479 7.11285 11.1147 7.1574 11.0953 7.13794C11.0758 7.12437 11.0662 7.08943 11.0332 7.10876C11.0002 7.12808 10.8412 7.25826 10.8119 7.33404C10.7826 7.40981 10.7167 7.57877 10.5186 7.7709C10.3206 7.96303 10.2351 8.08744 10.2934 8.15925C10.3516 8.23106 10.3789 8.17871 10.3886 8.24079C10.3961 8.30173 10.3928 8.36352 10.3789 8.42332C10.3556 8.52431 10.3168 8.61941 10.3691 8.63887C10.5031 8.68162 10.6333 8.60047 10.6624 8.6253C10.7206 8.67765 10.6294 8.86607 10.7672 8.90293C10.9071 8.94133 11.045 8.86991 11.045 8.86991L11.5536 8.59612L12.043 8.33794L12.2934 7.84271L12.1591 7.42914L12.1335 7.38639H12.1343Z" fill="#D4B968" />
	<path fill-rule="evenodd" clip-rule="evenodd" d="M11.6539 8.56891C11.6539 8.56891 11.5684 8.43886 11.6734 8.32417C11.7783 8.20948 11.9277 8.1611 11.986 8.08929C11.9749 8.07562 11.96 8.06551 11.9432 8.06024C11.9819 7.99106 12.0408 7.93543 12.1122 7.90088C12.0831 7.87182 12.0442 7.84852 12.0016 7.84852C11.9063 7.84852 11.848 7.90676 11.7607 7.90676C11.6753 7.90676 11.6656 7.86401 11.6656 7.86401C11.6656 7.86401 11.8093 7.85044 11.7956 7.78632C11.7821 7.71835 11.7572 7.71835 11.7572 7.71835C11.7572 7.71835 12.0349 7.60315 12.0834 7.54171C12.1319 7.48027 12.1261 7.40769 12.1358 7.37864C12.1687 7.37864 12.361 7.27764 12.4387 7.32039C12.5164 7.36315 12.462 7.47963 12.462 7.47963C12.462 7.47963 12.6971 7.30286 12.8169 7.12955C12.9218 7.13928 12.9705 7.05774 13.0473 7.05774C13.1426 7.05774 13.2921 7.18779 13.3211 7.46542C13.3406 7.62465 13.3696 7.71592 13.3406 7.99752C13.327 8.15675 13.3309 8.49672 13.379 8.66542C13.4119 8.79944 13.4896 8.78587 13.4896 8.78587C13.4777 8.82671 13.454 8.86315 13.4216 8.8907C13.3691 8.93921 13.3634 9.06747 13.3691 9.11598C13.3769 9.15145 13.3866 9.18645 13.3983 9.22081C13.3983 9.22081 13.3362 9.29262 13.3206 9.34126C13.307 9.38977 13.243 9.4228 13.1963 9.4228C13.1496 9.4228 13.173 9.41883 13.111 9.4228C13.0489 9.42676 13.0294 9.43636 12.9905 9.4228C12.9516 9.40923 12.9225 9.39361 12.9382 9.2692C12.9517 9.14491 12.4585 8.85563 12.4585 8.85563L11.6521 8.56827L11.6539 8.56891Z" fill="#CCA849" />
	<path fill-rule="evenodd" clip-rule="evenodd" d="M10.7282 9.79612C10.7282 9.79612 10.9048 10.0311 11.6311 10.0311C11.9767 10.0311 12.0971 9.99811 12.1687 9.97865C12.2464 9.9592 12.5376 9.84476 12.8308 9.49903C13.0949 9.18646 13.0367 9.05833 13.0367 9.05833L12.8831 9.03503L12.3839 9.103L10.9067 9.73212L10.7275 9.79612H10.7282Z" fill="#585136" />
	<path fill-rule="evenodd" clip-rule="evenodd" d="M11.2697 9.85433C11.2697 9.85433 10.6406 9.99423 10.6406 9.59615C10.6406 9.2078 11.029 8.79999 11.1261 8.72819C11.2271 8.65625 11.4679 8.57458 11.4679 8.57458H12.0485L12.1591 8.86783L12.1106 9.50079L11.2697 9.8542V9.85433Z" fill="#252211" />
	<path fill-rule="evenodd" clip-rule="evenodd" d="M11.8508 8.69323C11.8508 8.69323 11.7305 8.58251 11.4567 8.73163C11.1829 8.88075 10.9614 9.19243 10.9479 9.47543C10.9343 9.7258 11.1537 9.9123 11.4954 9.92203C11.7498 9.93163 11.9033 9.90257 11.9809 9.88363C11.9615 9.86033 11.8605 9.73412 11.8605 9.73412L11.8509 8.69335L11.8508 8.69323Z" fill="#C3B378" />
	<path fill-rule="evenodd" clip-rule="evenodd" d="M11.7321 8.75521C11.7321 8.75521 11.7031 8.73192 11.6169 8.77851C11.5451 8.81691 11.4403 8.91841 11.3588 8.99022C11.3063 9.03297 11.2733 9.0523 11.2436 9.08533C11.1231 9.22907 11.0221 9.46408 11.0805 9.58056C11.1389 9.69704 11.331 9.83105 11.8203 9.73979L11.7307 8.75534L11.7321 8.75521Z" fill="#E6D89C" />
	<path fill-rule="evenodd" clip-rule="evenodd" d="M11.5726 8.99611C11.5726 8.99611 11.4949 9.11656 11.4949 9.30882C11.4949 9.50491 11.6056 9.81749 12.0134 9.84079C12.326 9.86024 12.5357 9.39035 12.7629 9.20783C12.9357 9.06805 13.0405 9.06408 13.0405 9.06408C13.0405 9.06408 12.8639 8.87208 12.3921 8.62338C11.926 8.37288 11.4036 8.33986 11.1201 8.72437C11.2541 8.71464 11.6872 8.60392 11.6872 8.60392L11.8989 8.67189L11.5726 8.99624V8.99611Z" fill="#252211" />
	<path fill-rule="evenodd" clip-rule="evenodd" d="M12.1828 9.2504C12.1692 9.22134 12.1595 9.18243 12.2158 9.17283C12.2722 9.16323 12.2974 9.16886 12.3168 9.21123C12.3363 9.2536 12.3552 9.28892 12.3264 9.30646C12.2974 9.32195 12.2216 9.30646 12.1827 9.25014L12.1828 9.2504ZM12.0916 8.9766C12.0916 8.9766 12.0721 8.99017 12.0818 8.96304C12.0857 8.93014 12.111 8.87177 12.1731 8.88547C12.2352 8.89916 12.2217 8.967 12.2115 8.98646C12.2012 9.00592 12.1494 9.03881 12.1105 9.02486C12.1056 9.0236 12.101 9.02119 12.0972 9.01784C12.0933 9.01448 12.0904 9.01027 12.0885 9.00554C12.0866 9.00081 12.0858 8.99571 12.0863 8.99064C12.0867 8.98556 12.0883 8.98067 12.091 8.97635L12.0916 8.9766Z" fill="#6F674D" />
	<path fill-rule="evenodd" clip-rule="evenodd" d="M6.83496 9.10083C6.83496 9.10083 6.98856 9.21603 7.16699 9.21155C7.34363 9.20759 7.57083 9.02519 7.67567 8.90858C7.73775 8.84061 7.79087 8.7688 7.84847 8.71248C7.89711 8.66397 7.93 8.64067 7.9533 8.60765C7.98632 8.56925 8.02127 8.49706 8.0388 8.47363C7.99605 8.50666 7.93397 8.56502 7.86984 8.60381C7.80776 8.64221 7.67375 8.7144 7.61935 8.73386C7.56699 8.75331 7.02325 9.04106 7.02325 9.04106L6.83496 9.10083Z" fill="#AC924C" />
	<path fill-rule="evenodd" clip-rule="evenodd" d="M7.07031 7.66601C7.07031 7.66601 7.15569 7.60777 7.32081 7.57078C7.48004 7.53238 7.80043 7.50281 7.80043 7.50281L8.06449 7.61801L8.16932 8.01609L7.97732 8.42978L7.73271 8.58338L7.45495 8.13679L7.07095 7.66678L7.07031 7.66601Z" fill="#9F8E57" />
	<path fill-rule="evenodd" clip-rule="evenodd" d="M6.7242 8.02138L6.63281 8.0896C6.63281 8.0896 6.65624 8.04685 6.67556 7.9168C6.69489 7.78676 6.79601 7.47021 6.9436 7.28768C7.09118 7.10516 7.08734 7.11488 7.08734 7.11488C7.07376 7.1124 7.05981 7.11284 7.04641 7.11617C7.03301 7.1195 7.02048 7.12565 7.00964 7.13421C7.0291 7.0912 7.15339 6.9376 7.27768 6.8608C7.40197 6.784 7.45048 6.75981 7.58053 6.8224C7.71057 6.885 7.7436 6.91751 7.83883 6.91367C7.93406 6.90983 8.01547 6.80884 8.01547 6.80884C8.01547 6.80884 8.03493 6.87092 7.96312 7.01466C7.89131 7.1584 7.60779 7.45152 7.60779 7.45152L7.01745 7.85536L6.7242 8.02176V8.02138Z" fill="#EAC970" />
	<path fill-rule="evenodd" clip-rule="evenodd" d="M7.16067 7.61749C7.16067 7.61749 7.58793 7.67573 7.71798 7.55541C7.72182 7.56898 7.73744 7.56898 7.73744 7.5787C7.73639 7.58604 7.73297 7.59282 7.72771 7.59803C7.74185 7.59577 7.75614 7.59449 7.77046 7.59419C7.78756 7.59928 7.80515 7.60254 7.82294 7.60392C7.83727 7.60361 7.85155 7.60228 7.86569 7.59995C7.86434 7.6096 7.86106 7.61888 7.85605 7.62724C7.85104 7.6356 7.84439 7.64286 7.83651 7.64859C7.85597 7.64859 7.87491 7.65243 7.87491 7.66792C7.87491 7.68341 7.87875 7.73013 7.85545 7.73986C7.83615 7.74519 7.81561 7.74379 7.79721 7.73589C7.79875 7.77265 7.80874 7.80857 7.8264 7.84085C7.8648 7.91266 7.94672 7.99445 8.0568 7.9709C8.0568 7.9709 8.11491 8.11067 7.8703 8.42133C7.83741 8.46408 7.80233 8.52232 7.75971 8.57083C7.74287 8.60754 7.72999 8.64595 7.72131 8.68539C7.72131 8.68539 8.13501 8.52616 8.25341 8.16302C8.37385 7.79797 8.39715 7.4388 8.37385 7.10293C8.36989 7.0077 8.3544 6.93986 8.3311 6.89122C8.27286 6.77077 8.10966 6.79022 8.04374 6.85819C7.94851 6.95342 7.78928 7.19022 7.56797 7.3533C7.34268 7.51637 7.33308 7.5453 7.16016 7.61749H7.16067Z" fill="#D7BC6B" />
	<path fill-rule="evenodd" clip-rule="evenodd" d="M6.64903 8.1418C6.64903 8.1418 6.5675 8.19031 6.52474 8.3722C6.48199 8.55857 6.56314 8.78577 6.61012 8.85758C6.6571 8.92938 6.76372 9.12561 6.9849 9.13534C7.03965 9.13505 7.09379 9.12382 7.14414 9.10231C7.22135 9.06691 7.29378 9.02188 7.35969 8.9683C7.45492 8.89649 7.53249 8.83441 7.52276 8.82852C7.49947 8.81879 6.93639 8.35274 6.93639 8.35274L6.72468 8.11646L6.6489 8.14206L6.64903 8.1418Z" fill="#585136" />
	<path fill-rule="evenodd" clip-rule="evenodd" d="M7.1804 8.91461C7.1804 8.91461 7.29496 8.90501 7.36292 8.86225C7.43089 8.8195 6.96484 8.35742 6.96484 8.35742L6.99787 8.85662L7.1804 8.91461Z" fill="#453A25" />
	<path fill-rule="evenodd" clip-rule="evenodd" d="M6.68516 8.10679C6.68516 8.10679 6.62692 8.21751 6.62692 8.24669C6.61719 8.3418 6.64638 8.6408 6.66967 8.73591C6.69297 8.8369 6.81918 8.99024 6.98238 8.99024C7.08324 8.99024 7.22315 8.92816 7.22315 8.91268C7.22315 8.89322 7.0794 8.87428 7.04062 8.80196C7.01732 8.76356 7.0076 8.66807 7.00222 8.57156C6.99838 8.50948 6.99838 8.44151 7.02168 8.41796C7.07416 8.35972 7.08376 8.19268 7.08376 8.19268L7.27012 7.84644H7.025L6.73175 8.02896L6.68516 8.10679Z" fill="#84754B" />
	<path fill-rule="evenodd" clip-rule="evenodd" d="M6.61328 8.21362C6.61328 8.21362 6.80528 7.95928 6.97834 7.90091C7.15139 7.84254 7.22883 7.87762 7.22883 7.87762L7.12784 8.13592L6.9841 8.29515L6.99383 8.37669C6.99383 8.37669 6.9704 8.59224 7.11415 8.74175C7.25789 8.89125 7.36464 8.88549 7.42685 8.88549C7.48906 8.88549 7.66762 8.83301 7.75888 8.61746C7.84042 8.4156 7.90839 8.15666 7.74531 7.89707C7.58595 7.63877 7.30448 7.62878 7.25008 7.62878C7.19568 7.62878 6.76855 7.65016 6.61328 8.21323V8.21362Z" fill="#252211" />
	<path fill-rule="evenodd" clip-rule="evenodd" d="M11.5433 9.07758C11.4714 9.04456 11.5394 8.8427 11.6112 8.78049C11.683 8.71829 11.7743 8.64661 11.9337 8.63675C11.9918 8.63291 12.0481 8.66977 12.0385 8.70869C12.0249 8.78049 11.9239 8.88149 11.8327 8.95329C11.7065 9.05237 11.6248 9.11445 11.5433 9.07758Z" fill="#F7F7E7" />
	<path fill-rule="evenodd" clip-rule="evenodd" d="M7.66042 7.97668C7.7129 7.97284 7.78087 8.01508 7.79444 8.07192C7.80801 8.134 7.76141 8.25828 7.66042 8.25828C7.57889 8.25828 7.53613 8.15729 7.53613 8.12824C7.53705 8.10434 7.54373 8.08103 7.55559 8.06027C7.55943 8.05438 7.56916 7.98641 7.66042 7.97668Z" fill="#F8F6DE" />
	<path fill-rule="evenodd" clip-rule="evenodd" d="M6.90329 8.02136C6.90329 8.02136 6.76927 8.08344 6.70719 8.21336C6.66283 8.3093 6.64941 8.41666 6.66879 8.52056C6.67852 8.56907 6.72703 8.6894 6.76006 8.73215C6.79308 8.7749 6.83775 8.80408 6.87078 8.80012C6.9038 8.79615 6.97164 8.70885 6.97164 8.6565C6.97164 8.60415 6.97561 8.38271 7.03961 8.26226C7.09593 8.14194 6.90367 8.02149 6.90367 8.02149L6.90329 8.02136Z" fill="#D4C38B" />
	<path fill-rule="evenodd" clip-rule="evenodd" d="M6.92214 8.01169C6.89885 8.02526 6.86006 8.04471 6.86966 8.06993C6.87939 8.09323 6.96093 8.10833 6.99011 8.16516C7.02313 8.2234 7.02313 8.28548 7.01341 8.31467C7.03877 8.30262 7.06178 8.28615 7.08137 8.26603C7.12413 8.21751 7.17648 8.15159 7.22115 8.15159C7.25033 8.15159 7.27939 8.16516 7.30665 8.16516C7.34941 8.16516 7.39203 8.15159 7.39792 8.10692C7.40752 8.04868 7.31638 7.9962 7.2639 8.00593C7.27363 7.96753 7.2872 7.91083 7.24445 7.87191C7.20169 7.833 7.06781 7.9011 7.03862 7.92055C7.00944 7.94001 6.92214 8.01182 6.92214 8.01182V8.01169Z" fill="#E2D59D" />
	<path fill-rule="evenodd" clip-rule="evenodd" d="M10.0082 12.0913L10.2955 12.0065L10.3771 12.0647C10.3771 12.0647 10.4352 12.189 10.5266 12.2045C10.4974 12.2666 10.4216 12.3197 10.4256 12.3637C10.4295 12.4077 10.4683 12.4414 10.4683 12.4414C10.4683 12.4414 10.21 12.8686 10.7188 13.299C10.5984 13.3475 10.445 13.4142 10.3635 13.4526C10.4216 13.4662 10.5459 13.491 10.5984 13.5381C10.6509 13.5852 10.6509 13.6002 10.6994 13.6294C10.7479 13.6586 10.7769 13.6974 10.7673 13.7148C10.7343 13.6953 10.6236 13.6372 10.6043 13.6915C10.5849 13.7457 10.1247 13.7245 10.1247 13.7245L9.34795 13.874C9.34795 13.874 9.377 13.7963 9.29547 13.7245C9.20036 13.6391 9.08388 13.7283 8.95959 13.6332C8.79652 13.5089 8.79063 13.3652 8.73828 13.3109C8.79063 13.2779 8.89751 13.2294 9.15185 13.1957C9.14212 13.1763 9.1091 13.118 9.12855 13.0657C9.15185 12.9977 9.24887 12.955 9.21982 12.8737C9.26257 12.8639 9.2819 12.8639 9.38878 12.7299C9.48977 12.5959 9.55185 12.5669 9.62955 12.5571C9.70724 12.5474 9.75383 12.5571 9.89758 12.4231C9.99844 12.328 9.96555 12.2465 9.96555 12.2465C9.96555 12.2465 10.0315 12.2251 10.0083 12.0911L10.0082 12.0913Z" fill="#CBAC5A" />
	<path fill-rule="evenodd" clip-rule="evenodd" d="M9.15963 12.1344C9.16347 12.115 9.17909 12.1052 9.28392 12.115C9.38875 12.1247 10.0528 12.0529 10.2334 12.0432C10.416 12.0296 11.0586 12.0392 11.3713 12.1052C11.684 12.1713 12.0005 12.249 12.1538 12.2878C12.3074 12.3305 12.3558 12.3459 12.3499 12.3653C12.3461 12.3848 12.3115 12.4037 12.2917 12.3984C12.2723 12.3945 11.7635 12.2391 11.6064 12.2064C11.4492 12.1736 10.9053 12.0859 10.608 12.0912C10.3303 12.0951 10.2196 12.0873 9.98472 12.1145C9.74971 12.1436 9.36136 12.1824 9.24488 12.1669C9.12968 12.1534 9.15348 12.1534 9.15937 12.1339L9.15963 12.1344Z" fill="#D6BC6F" />
	<path fill-rule="evenodd" clip-rule="evenodd" d="M10.7226 13.6563C10.7226 13.6563 11.1207 13.8719 11.2644 14.1359C11.3692 14.332 11.2023 14.4292 11.2023 14.4292C11.2023 14.4292 11.4276 14.4292 11.3984 14.5535C11.3848 14.631 11.0101 14.8407 10.7596 14.9514C10.5052 15.0621 10.515 15.0564 10.3907 15.0757C10.2702 15.0952 9.94011 15.0373 9.87214 15.1339C9.80417 15.2306 9.83374 15.3302 9.85268 15.3457C9.87214 15.3592 10.0295 15.3787 10.0295 15.3787C10.0295 15.3787 9.99643 15.4699 9.67028 15.4797C9.34414 15.4894 9.26248 15.5126 9.24302 15.5476C9.22356 15.5805 9.3051 15.5612 9.45473 15.586C9.60424 15.6093 9.8139 15.6244 9.8139 15.6244C9.8139 15.6244 9.74593 15.6827 9.56929 15.7293C9.36731 15.7816 9.05076 15.8303 8.95566 15.8885C9.00417 15.9215 9.07611 15.97 9.10926 15.9739C9.02772 15.9933 8.91303 16.0361 8.89371 16.0516C8.92276 16.071 8.96167 16.0943 8.96167 16.0943C8.96167 16.0943 8.79847 16.2904 8.70337 16.3391C8.60827 16.3877 8.06068 16.6419 7.87227 16.5934C7.40238 16.4691 7.34414 15.9546 7.22958 15.9158C7.05678 15.8575 6.97524 15.9739 6.82177 15.8923C6.88974 15.8438 6.92673 15.8148 6.99854 15.7818C6.92084 15.7434 6.51892 15.4885 6.51892 15.4885C6.47689 15.3969 6.43024 15.3075 6.37914 15.2206C6.30145 15.0866 6.18714 14.9079 6.10138 14.7506C5.91502 14.405 5.90529 14.2458 5.73633 14.0497C5.76551 14.0113 5.86638 14.0166 5.86638 14.0166L7.28206 14.4827L9.79227 14.5554L10.4451 13.6234L10.7227 13.6564L10.7226 13.6563Z" fill="#DFC677" />
	<path fill-rule="evenodd" clip-rule="evenodd" d="M7.00391 15.0776C7.01905 15.0945 7.03671 15.1089 7.05626 15.1204C7.1049 15.1534 7.17671 15.1923 7.22522 15.2504C7.24467 15.2213 7.29319 15.1689 7.37882 15.2504C7.46445 15.3319 7.57082 15.2738 7.637 15.2932C7.70496 15.3166 7.7088 15.3262 7.7088 15.3262C7.7088 15.3262 7.7472 15.2932 7.83309 15.2582C7.88557 15.2388 7.94765 15.2252 8.01562 15.2059C8.0777 15.1923 8.14567 15.1728 8.19239 15.1728C8.23514 15.2019 8.38848 15.3648 9.00404 15.1243C9.58464 14.899 9.71853 14.8738 9.81568 14.9086C9.82541 14.8853 9.83514 14.8407 9.98464 14.8466C9.98464 14.7845 9.86036 14.5728 9.86036 14.5728L9.17492 14.3379H8.8L7.67578 14.5437L7.0528 14.8992L7.00429 15.0784L7.00391 15.0776Z" fill="#C4A859" />
	<path fill-rule="evenodd" clip-rule="evenodd" d="M6.62891 14.6836C6.62891 14.6836 6.64247 14.7884 6.79787 14.8991C6.95147 15.0097 6.99972 15.0758 6.99972 15.0758C6.99972 15.0758 7.02891 15.0374 7.0522 14.9982C7.0755 14.9554 7.09495 14.9069 7.13374 14.8934C7.21143 14.8603 7.38807 14.9224 7.42699 14.9127C7.46001 14.9031 7.45028 14.8351 7.48523 14.8351C7.56676 14.8312 7.61911 14.8875 7.6483 14.8875C7.67748 14.8875 7.74916 14.8836 7.75889 14.8681C7.76862 14.8527 7.77246 14.6914 7.88318 14.6137C8.00363 14.5283 8.15121 14.5652 8.19038 14.5846C8.19038 14.6137 8.19422 14.6856 8.27192 14.6895C8.34961 14.6933 8.35729 14.6797 8.42552 14.703C8.49374 14.7263 8.57502 14.6992 8.61188 14.8136C8.64491 14.804 8.7226 14.7943 8.70315 14.6836C8.74155 14.6545 8.77508 14.6351 8.85675 14.5205C8.8762 14.4914 8.9091 14.4584 8.93444 14.4157C9.00241 14.4157 9.08395 14.4021 9.19262 14.4972C9.1596 14.5205 9.14014 14.5356 9.13054 14.5593C9.15896 14.5874 9.18491 14.618 9.20811 14.6505C9.23729 14.6889 9.25675 14.736 9.29361 14.7458C9.37515 14.7691 9.50916 14.736 9.65867 14.7458C9.80241 14.7555 9.92273 14.8079 9.97521 14.8409C9.99467 14.8313 9.99467 14.8273 10.0432 14.837C10.0917 14.8468 10.1286 14.8506 10.0762 14.7885C10.1053 14.8021 10.1383 14.8313 10.1675 14.8021C10.1967 14.7729 10.2198 14.7303 10.3014 14.7206C10.3829 14.7108 10.4121 14.7244 10.4451 14.639C10.4879 14.5342 10.3403 14.5342 10.3403 14.5342C10.3403 14.5342 10.4082 14.472 10.484 14.3904C10.5753 14.3051 10.6801 14.1944 10.7053 14.0584C10.7481 13.8079 10.5035 13.775 10.5035 13.775L9.31704 14.1401L7.86654 14.0681L6.62967 14.6837L6.62891 14.6836Z" fill="#927D49" />
	<path fill-rule="evenodd" clip-rule="evenodd" d="M5.56326 11.2563C5.56326 11.2563 5.52486 11.3048 5.50118 11.4194C5.4775 11.5339 5.48761 11.5203 5.46815 11.6019C5.4487 11.6834 5.20972 12.4951 5.29932 12.7689C5.38892 13.0427 5.54406 13.1436 5.64108 13.365C5.66054 13.4135 5.67948 13.4427 5.68959 13.4854C5.72262 13.629 5.69356 13.7397 5.73235 13.8835C5.74591 13.932 5.78099 13.9883 5.83334 14.0466C5.94854 14.1669 6.13632 14.2814 6.21734 14.363C6.33177 14.4834 6.49497 14.7282 6.70272 14.7513C6.81344 14.7649 6.97075 14.7183 7.1008 14.6407C7.216 14.5688 7.28716 14.4679 7.408 14.4103C7.49337 14.3676 7.58464 14.3521 7.66617 14.3326C7.83513 14.2996 7.9886 14.2942 8.07987 14.3132C8.21964 14.3424 8.54976 14.4434 8.73267 14.4434C8.8756 14.4411 9.01773 14.4215 9.15597 14.3851C9.4336 14.3036 9.76947 14.1637 9.99091 14.1016C10.121 14.0632 10.2258 14.0531 10.3327 14.0298C10.5152 13.987 10.6685 13.9288 10.756 13.8181C10.6977 13.7501 10.6259 13.6453 10.2374 13.6491C9.79673 13.6588 9.28793 13.9035 9.03744 13.9424C8.78694 13.9813 8.67827 14.0142 8.39859 13.9132C8.12441 13.8112 8.11532 13.7437 8.11532 13.7437C8.11532 13.7437 7.82745 13.5424 7.707 13.0291C7.58656 12.5158 7.707 12.1418 8.01971 11.7863C8.10125 11.6951 8.08179 11.6135 8.08179 11.6135C8.08179 11.6135 8.28761 11.3359 8.23129 11.0759C8.16921 10.8176 7.77113 10.8701 7.77113 10.8701L5.56339 11.2563H5.56326Z" fill="#6E6342" />
	<path fill-rule="evenodd" clip-rule="evenodd" d="M5.89563 12.1205C5.87851 12.1527 5.87046 12.1889 5.87234 12.2253C5.87618 12.2777 5.89179 12.3456 6.04898 12.4991C6.18299 12.633 6.15381 12.7825 6.15381 12.7825C6.15381 12.7825 6.22126 12.7961 6.40431 12.7104C6.54805 12.6425 6.59631 12.7629 6.59631 12.7629C6.63815 12.741 6.6835 12.7265 6.73032 12.7202C6.77274 12.7163 6.8138 12.7032 6.85064 12.6818C6.85064 12.6818 7.0196 12.8546 7.16719 12.9361C7.3012 13.008 7.3789 13.0565 7.44495 13.008C7.50703 12.9653 7.50703 12.8779 7.50306 12.8391C7.48766 12.8033 7.46815 12.7694 7.44495 12.7381C7.40219 12.676 7.33423 12.6041 7.32975 12.5461C7.32002 12.4122 7.43074 12.2528 7.40731 12.2141C7.38389 12.1753 7.29672 12.1655 7.08117 12.2432C6.85794 12.317 5.89474 12.1209 5.89474 12.1209L5.89563 12.1205Z" fill="#39331F" />
	<path fill-rule="evenodd" clip-rule="evenodd" d="M6.40427 12.9885C6.40427 12.9885 6.29368 12.8836 6.33247 12.3748C6.37942 12.3741 6.4263 12.3787 6.47224 12.3884C6.47224 12.3884 6.53253 12.7826 6.40427 12.9885Z" fill="#292311" />
	<path fill-rule="evenodd" clip-rule="evenodd" d="M5.61577 10.868C5.6312 10.8566 5.64552 10.8437 5.65852 10.8296C5.62012 10.9014 5.44284 11.1888 5.58659 11.6413C5.73033 12.0917 6.09142 12.4276 6.53609 12.4432C6.98076 12.4588 7.21449 12.2412 7.48176 11.9151C7.58659 11.785 7.70704 11.6218 7.81379 11.5112C7.97302 11.3383 8.09731 11.2898 8.09731 11.1229C8.09731 10.7811 7.74774 10.6276 7.23318 10.4743C6.71862 10.321 6.25449 10.3399 6.01372 10.4449C5.77884 10.5593 5.67785 10.6797 5.61564 10.8682L5.61577 10.868Z" fill="#252211" />
	<path fill-rule="evenodd" clip-rule="evenodd" d="M7.26796 13.1418L7.30636 13.1224C7.30636 13.1224 7.31596 12.9688 7.37817 12.9729C7.44025 12.9826 7.46943 13.0643 7.46355 13.0933C7.45971 13.1224 7.44422 13.171 7.38201 13.1651C7.30047 13.167 7.26758 13.1418 7.26758 13.1418H7.26796Z" fill="#3F3824" />
	<path fill-rule="evenodd" clip-rule="evenodd" d="M7.09473 12.4894C7.09473 12.4894 7.13313 12.4758 7.1801 12.5224C7.2185 12.5224 7.38593 12.503 7.43841 12.536C7.49089 12.569 7.50637 12.5981 7.50637 12.5981C7.50637 12.5981 7.31028 12.6408 7.2034 12.5981C7.09473 12.5612 7.09473 12.4894 7.09473 12.4894Z" fill="#2D2815" />
	<path fill-rule="evenodd" clip-rule="evenodd" d="M7.95976 12.5184C7.95976 12.5087 7.85493 12.4369 7.74421 12.4134C7.72475 12.4096 7.72079 12.4232 7.70581 12.4232C7.69608 12.4193 7.69224 12.3901 7.69224 12.3901L7.62927 12.4233C7.62927 12.4233 7.61954 12.4369 7.65256 12.4617C7.68162 12.485 7.73026 12.5044 7.74383 12.5432C7.75739 12.582 7.75739 12.5956 7.76328 12.6015C7.76712 12.6053 7.83509 12.6015 7.86811 12.582C7.90114 12.5626 7.96335 12.5308 7.95938 12.518L7.95976 12.5184Z" fill="#82764F" />
	<path fill-rule="evenodd" clip-rule="evenodd" d="M6.97852 12.9126C6.97852 12.9126 6.99784 12.7787 7.12802 12.7729C7.26191 12.7631 7.28725 12.8932 7.28725 12.8932L7.20956 12.9709C7.20956 12.969 7.15132 12.8874 6.97916 12.9126H6.97852Z" fill="#2D2816" />
	<path fill-rule="evenodd" clip-rule="evenodd" d="M7.82374 12.3359C7.82374 12.3359 7.75181 12.4136 7.5927 12.4369C7.57913 12.4174 7.54995 12.3786 7.5927 12.3166C7.63545 12.2545 7.68397 12.235 7.73248 12.2544C7.75388 12.2578 7.77385 12.2673 7.79002 12.2818C7.80619 12.2962 7.81789 12.315 7.82374 12.3359Z" fill="#574F35" />
	<path fill-rule="evenodd" clip-rule="evenodd" d="M8.11688 12.4311C8.12085 12.4117 8.10728 12.4078 8.11688 12.3981C8.12648 12.3884 8.17909 12.369 8.18882 12.3786C8.19266 12.3826 8.18882 12.3981 8.18882 12.417C8.18882 12.436 8.18882 12.4554 8.17909 12.4694C8.16552 12.4888 8.12674 12.4986 8.10728 12.4928C8.08782 12.487 8.08398 12.4598 8.08398 12.4544C8.09358 12.4506 8.11688 12.4408 8.11688 12.4311ZM8.4484 12.2214C8.4484 12.2117 8.48142 12.1923 8.50088 12.1923C8.52994 12.1923 8.52994 12.2156 8.5339 12.2214C8.5435 12.2253 8.5435 12.2175 8.55323 12.235C8.56296 12.2525 8.57666 12.2835 8.5668 12.303C8.55694 12.3224 8.51829 12.3359 8.50869 12.332C8.49512 12.3223 8.45237 12.235 8.4484 12.2214Z" fill="#82764F" />
	<path fill-rule="evenodd" clip-rule="evenodd" d="M7.78027 12.4758C7.78027 12.4758 7.82303 12.4854 7.88127 12.5341C7.86181 12.5476 7.83263 12.5631 7.83263 12.5631C7.83263 12.5631 7.82879 12.5185 7.78027 12.4757V12.4758Z" fill="#6E6342" />
	<path fill-rule="evenodd" clip-rule="evenodd" d="M7.68513 12.0485C7.6754 12.0389 7.71419 12.0156 7.73748 12.0195C7.76078 12.0233 7.7705 12.0389 7.79572 12.0428C7.82094 12.0466 7.8249 12.033 7.83412 12.0233C7.84334 12.0136 7.87687 12.0195 7.88263 12.0233C7.88622 12.0276 7.88947 12.0321 7.89236 12.0369C7.89277 12.0295 7.89469 12.0223 7.89802 12.0156C7.90135 12.009 7.906 12.0032 7.91169 11.9985C7.91914 11.993 7.92773 11.9893 7.93681 11.9876C7.9459 11.9859 7.95525 11.9863 7.96417 11.9887C7.96801 12.0023 7.98746 12.0508 7.98362 12.0605C7.97978 12.0703 7.92155 12.084 7.91169 12.0741C7.92142 12.0975 7.96417 12.146 7.96993 12.1556C7.97569 12.1652 7.92718 12.1887 7.90785 12.1848C7.88071 12.1829 7.71367 12.0858 7.68462 12.0489L7.68513 12.0485ZM7.93946 11.7262C7.93587 11.7164 7.92899 11.7082 7.92001 11.7029C7.90644 11.6991 7.86177 11.7029 7.86177 11.7262C7.86177 11.7495 7.90017 11.8798 7.9433 11.9476C7.99194 12.0156 8.02484 12.0718 8.05786 12.0874C8.06823 12.0921 8.08001 12.0928 8.09081 12.0892C8.10162 12.0855 8.11066 12.078 8.1161 12.068C8.11994 12.0582 8.12967 11.9864 8.12583 11.8175C8.12199 11.6485 8.11611 11.4854 8.10638 11.4757C8.09665 11.466 8.05786 11.4661 8.0443 11.4854C8.03073 11.5048 7.9433 11.6972 7.93934 11.7262H7.93946Z" fill="#585136" />
	<path fill-rule="evenodd" clip-rule="evenodd" d="M7.7675 12.7204C7.7675 12.7204 7.69953 12.6777 7.63348 12.7068C7.5714 12.736 7.57524 12.8506 7.57524 12.8506C7.58921 12.8561 7.6043 12.858 7.6192 12.8563C7.6341 12.8546 7.64837 12.8493 7.66075 12.8409C7.7035 12.8118 7.75777 12.7633 7.7675 12.7205V12.7204Z" fill="#574F35" />
	<path fill-rule="evenodd" clip-rule="evenodd" d="M7.89485 12.8738C7.89101 12.8354 7.85645 12.8354 7.85645 12.8156C7.85882 12.8061 7.86432 12.7977 7.87205 12.7917C7.87978 12.7857 7.88929 12.7825 7.89907 12.7826C7.91853 12.7826 7.93747 12.8059 7.96128 12.821C7.98457 12.8345 8.01952 12.8594 8.02336 12.8889C8.0272 12.9185 7.98496 12.9995 7.93798 12.9995C7.89101 12.9995 7.90496 12.9121 7.89523 12.8733L7.89485 12.8738ZM8.26963 12.8214C8.26963 12.8214 8.19193 12.8447 8.19769 12.8214C8.20345 12.7981 8.22112 12.7923 8.24633 12.7923C8.25915 12.7789 8.27638 12.7706 8.29485 12.7689C8.30541 12.7684 8.31578 12.7718 8.3239 12.7786C8.3239 12.7786 8.37638 12.7553 8.39187 12.7689C8.40736 12.7824 8.39584 12.7824 8.40544 12.7981C8.41766 12.8154 8.42568 12.8353 8.42886 12.8563C8.42886 12.8718 8.37062 12.9048 8.3239 12.8991C8.26963 12.8874 8.27923 12.8311 8.26963 12.8214ZM8.72198 12.7339C8.72198 12.7339 8.74528 12.7475 8.72595 12.7631C8.71238 12.7767 8.64441 12.8015 8.58605 12.8059C8.52781 12.8059 8.47545 12.8155 8.47545 12.7961C8.47545 12.7768 8.52397 12.7379 8.55302 12.7282C8.55885 12.7209 8.56625 12.715 8.57467 12.711C8.5831 12.7069 8.59232 12.7048 8.60166 12.7049C8.62496 12.7049 8.71609 12.6951 8.74144 12.6913C8.76473 12.6873 8.78419 12.7009 8.77049 12.7204C8.76473 12.7339 8.72198 12.7339 8.72198 12.7339ZM8.856 12.1344C8.856 12.1344 8.82681 12.1965 8.79392 12.1965C8.76089 12.1926 8.76089 12.1829 8.76089 12.1732C8.76089 12.1596 8.79392 12.1246 8.78995 12.1149C8.78035 12.1149 8.75693 12.1149 8.76089 12.0916C8.76089 12.0722 8.79392 12.0489 8.82297 12.0532C8.84493 12.0352 8.87226 12.025 8.90067 12.0242C8.93369 12.0242 8.96275 12.0338 8.96275 12.0532C8.96275 12.0727 8.92435 12.1153 8.91027 12.1252C8.89478 12.1407 8.87533 12.1508 8.856 12.1348V12.1344ZM8.41325 13.2819C8.41325 13.2819 8.37485 13.2859 8.37485 13.3052C8.37485 13.3149 8.38445 13.3149 8.39814 13.3092C8.40603 13.3087 8.41385 13.3074 8.42144 13.3052C8.42528 13.3092 8.42528 13.3285 8.45446 13.3285C8.47843 13.3253 8.50152 13.3173 8.52243 13.3052C8.54573 13.2956 8.56518 13.2857 8.56518 13.2668C8.55545 13.2338 8.536 13.2182 8.50694 13.2182C8.49205 13.2172 8.47721 13.2206 8.46419 13.2279C8.46419 13.2279 8.45446 13.2084 8.42144 13.2279C8.38841 13.2473 8.39225 13.2473 8.40198 13.2571C8.41939 13.2726 8.41363 13.2827 8.41363 13.2827L8.41325 13.2819ZM8.19385 13.4839C8.19385 13.4742 8.24237 13.4547 8.25593 13.4606C8.2695 13.4644 8.30829 13.5382 8.30829 13.546C8.30829 13.5557 8.25977 13.579 8.24032 13.579C8.22086 13.579 8.18797 13.546 8.18797 13.5406C8.18797 13.5367 8.21126 13.531 8.21126 13.527C8.21702 13.5174 8.19385 13.494 8.19385 13.4843V13.4839ZM8.04025 13.2004C8.04998 13.1965 8.04998 13.1868 8.06355 13.1771C8.0678 13.1742 8.07264 13.1724 8.0777 13.1718C8.08275 13.1711 8.0879 13.1716 8.09273 13.1732C8.09616 13.1671 8.1009 13.1618 8.10661 13.1578C8.11232 13.1537 8.11886 13.151 8.12576 13.1498C8.14905 13.146 8.16851 13.1498 8.16416 13.1595C8.16416 13.1887 8.18361 13.208 8.18361 13.2313C8.18361 13.2546 8.17005 13.2838 8.12153 13.3033C8.07302 13.3168 8.00697 13.3168 7.99725 13.313C7.98752 13.3092 7.97779 13.2703 7.98752 13.2508C7.99725 13.2313 8.02438 13.2101 8.04 13.2004H8.04025Z" fill="#82764F" />
	<path fill-rule="evenodd" clip-rule="evenodd" d="M8.10236 13.2136C8.10236 13.2136 8.06934 13.2331 8.06934 13.2428C8.06641 13.2522 8.06511 13.262 8.0655 13.2719C8.0655 13.2776 8.10825 13.268 8.11401 13.2621C8.11593 13.2583 8.10236 13.2237 8.10236 13.2136Z" fill="#6E6342" />
	<path fill-rule="evenodd" clip-rule="evenodd" d="M7.81325 13.1223C7.83257 13.1263 7.8656 13.1223 7.89081 13.1321C7.91027 13.1418 7.92384 13.1612 7.90438 13.1845C7.88493 13.2078 7.86598 13.2428 7.82285 13.2369C7.77433 13.2331 7.72774 13.2078 7.72774 13.1884C7.72693 13.1761 7.72857 13.1637 7.73257 13.1521C7.73657 13.1404 7.74284 13.1296 7.75104 13.1204C7.77049 13.1049 7.78009 13.1147 7.81312 13.1223H7.81325Z" fill="#585136" />
	<path fill-rule="evenodd" clip-rule="evenodd" d="M7.7899 13.1417C7.7899 13.1417 7.72782 13.1902 7.71221 13.2137C7.69275 13.237 7.59765 13.3573 7.56859 13.3825C7.57824 13.3655 7.58924 13.3492 7.60149 13.334C7.56309 13.3585 7.5343 13.3955 7.51995 13.4388C7.49665 13.5107 7.65013 13.5495 7.75099 13.5787C7.85185 13.6079 7.89089 13.6171 7.89089 13.6171C7.85376 13.5613 7.82188 13.5022 7.79566 13.4405C7.75726 13.3492 7.73742 13.3395 7.76264 13.2967C7.78209 13.254 7.81128 13.2249 7.81128 13.1919C7.79963 13.1612 7.7899 13.1417 7.7899 13.1417Z" fill="#574F35" />
	<path fill-rule="evenodd" clip-rule="evenodd" d="M5.57643 13.2953C5.59056 13.2979 5.60505 13.2979 5.61918 13.2953C5.64824 13.2913 5.95121 13.1801 6.26776 13.2C6.50473 13.2143 6.7396 13.253 6.96869 13.3152C7.36677 13.4201 7.86187 13.6278 8.18225 13.7463C8.26763 13.7792 8.35121 13.8376 8.41265 13.8608C8.65739 13.956 8.66699 13.956 8.81073 13.9812C8.9797 14.0045 9.1525 13.9482 9.3331 13.9094C9.55442 13.8608 9.93304 13.8375 10.2651 13.789C10.3724 13.7741 10.4783 13.7501 10.5816 13.7171C10.5816 13.7171 10.3176 13.9812 9.68446 14.0763C9.42857 14.1152 9.16852 14.1184 8.91173 14.086C8.70974 14.0666 8.57586 14.0374 8.47486 14.0083C8.3603 13.9753 8.12529 13.8879 7.83601 13.8163C7.63403 13.7639 7.40875 13.7251 7.15057 13.6766C6.51364 13.56 5.82244 13.4261 5.57617 13.296L5.57643 13.2953Z" fill="#252211" />
	<path fill-rule="evenodd" clip-rule="evenodd" d="M4.86184 12.0952C4.70824 12.2253 4.5453 12.3496 4.3862 12.4699L3.90658 12.8384C3.74351 12.9587 3.58428 13.083 3.42108 13.2034C3.25788 13.3239 3.09493 13.4383 2.92188 13.549C3.07548 13.419 3.23842 13.2985 3.40149 13.1801C3.56456 13.0617 3.73365 12.9456 3.89096 12.8256L4.37058 12.4566C4.53557 12.3362 4.6948 12.212 4.86184 12.0955V12.0952ZM4.01333 13.4544C4.01333 13.4544 4.18613 13.3107 4.40168 13.1088C4.66959 12.8585 4.99778 12.538 5.10261 12.4799L4.0132 13.4546L4.01333 13.4544Z" fill="#CFB66C" />
	<path fill-rule="evenodd" clip-rule="evenodd" d="M4.01367 13.4544C4.09918 13.369 4.19044 13.2856 4.2817 13.2039L4.42148 13.0836C4.46423 13.0452 4.51287 13.002 4.5555 12.9593C4.64087 12.8739 4.72446 12.7825 4.80983 12.6952C4.85215 12.6513 4.89689 12.6098 4.94385 12.5709C4.96733 12.5502 4.9934 12.5325 5.02142 12.5185C5.04484 12.5049 5.07006 12.4801 5.10295 12.4757C5.08363 12.5049 5.06033 12.5185 5.04087 12.5437C5.01758 12.5631 4.99812 12.5864 4.97879 12.6058C4.93604 12.6485 4.88753 12.6873 4.84478 12.7262C4.75351 12.8039 4.65841 12.8798 4.56714 12.9611C4.47588 13.0424 4.3905 13.13 4.29911 13.2116C4.20017 13.2952 4.1089 13.3767 4.01367 13.4548V13.4544ZM5.17489 12.6777C5.17489 12.6777 4.54193 13.2972 4.41175 13.3981L5.17489 12.6777Z" fill="#CFB66C" />
	<path fill-rule="evenodd" clip-rule="evenodd" d="M5.17525 12.6776C5.11831 12.7435 5.05726 12.8058 4.99246 12.864L4.80046 13.0465C4.73838 13.1086 4.68001 13.1708 4.61409 13.2329C4.54613 13.2911 4.48405 13.3481 4.41211 13.4018L4.59848 13.2193C4.66069 13.1572 4.72865 13.1049 4.7947 13.0427L4.98107 12.8601C5.04507 12.7961 5.10728 12.7339 5.17525 12.6776ZM5.2043 13.0135C5.14596 13.1763 5.07721 13.3352 4.99848 13.4893C4.83541 13.8155 4.5908 14.2232 4.48392 14.4311L5.2043 13.0135Z" fill="#CFB66C" />
	<path fill-rule="evenodd" clip-rule="evenodd" d="M5.20382 13.0137C5.20382 13.0855 5.18436 13.1477 5.16106 13.2098C5.13836 13.2719 5.11247 13.3328 5.0835 13.3923C5.05431 13.4505 5.02129 13.5127 4.98826 13.5691C4.95524 13.6254 4.91646 13.6835 4.88727 13.7419L4.69118 14.0875C4.62321 14.2027 4.55716 14.3185 4.48535 14.4292C4.53386 14.3049 4.59991 14.1885 4.66212 14.0739C4.73009 13.9587 4.79217 13.8435 4.85412 13.7243C4.88437 13.6649 4.91158 13.6041 4.93566 13.5419C4.96471 13.4797 4.99377 13.4215 5.01719 13.3652C5.04625 13.3031 5.06954 13.2447 5.09873 13.1885C5.13162 13.1282 5.15889 13.07 5.20356 13.0137H5.20382Z" fill="#CFB66C" />
	<path fill-rule="evenodd" clip-rule="evenodd" d="M5.89485 14.6058C5.89485 14.6058 5.70285 14.8602 5.72205 15.1825C5.7744 15.0136 5.84045 14.7553 5.89485 14.6058ZM6.07738 14.8608C6.07738 14.8608 6.00941 15.552 5.95309 15.8919C6.03271 15.499 6.0482 15.532 6.07738 14.8608ZM7.34919 15.9327C7.34919 15.9327 7.06183 16.7775 7.05594 17.0122C7.11815 16.7708 7.23847 16.2776 7.34919 15.932V15.9327Z" fill="#DEC270" />
	<path fill-rule="evenodd" clip-rule="evenodd" d="M8.02148 14.5536C8.02148 14.5536 8.48753 15.3225 8.8371 15.9787C8.74251 15.6485 8.52491 15.0428 8.02148 14.5536Z" fill="#CBAF59" />
	<path fill-rule="evenodd" clip-rule="evenodd" d="M9.27344 15.6855C9.52932 16.1379 9.76007 16.6039 9.96464 17.0816C9.92585 16.7515 9.82089 16.1865 9.27344 15.6855Z" fill="#E3C677" />
	<path fill-rule="evenodd" clip-rule="evenodd" d="M12.9557 16.8192C13.0333 16.7707 13.1868 16.5065 13.3208 16.4405C13.4547 16.3726 13.5557 16.359 13.6761 16.225C13.7964 16.0851 13.8297 15.9997 14.0935 15.8891C14.4626 15.7298 14.2087 15.5239 14.2087 15.5239C14.2494 15.484 14.2928 15.4471 14.3388 15.4133C14.434 15.3415 14.5446 15.2541 14.535 15.1006C14.5214 14.8425 14.4729 14.4677 14.2612 14.2502C14.467 14.2075 14.8611 14.1784 15.106 14.1163C15.3894 14.0444 15.5196 13.9434 15.5196 13.9434C15.5196 13.9434 15.3565 13.6658 15.6206 13.3862C15.8846 13.1067 16.1002 12.9396 16.2594 12.6269C16.0769 12.6036 15.7986 12.5066 15.0885 12.7764C15.1268 12.7945 15.1638 12.8152 15.1992 12.8385C15.1992 12.8385 14.7623 12.9589 14.6031 13.093C14.3253 13.3278 14.2904 13.5201 13.9895 13.6638C13.6885 13.8076 13.3856 13.7687 13.1352 13.8852C12.8848 14.0016 12.8478 14.1007 12.7564 14.1435C12.7759 14.1668 12.7526 14.2055 12.7895 14.2386C12.7662 14.2716 12.6302 14.4929 12.4924 14.4929C12.5059 14.5454 12.6224 14.5842 12.6224 14.5842C12.6224 14.5842 12.537 14.6464 12.3196 14.6619C12.4302 14.7771 12.5351 14.9026 12.8244 15.0852C12.8011 15.1337 12.704 15.2056 12.7429 15.2969C12.7856 15.3881 12.8965 15.5124 13.339 15.6134C13.1137 15.623 12.8498 15.6755 12.4942 15.627C12.1388 15.5842 12.0806 15.559 11.8612 15.6134C11.8845 15.6367 11.9466 15.6367 12.001 15.6988C11.9427 15.7026 11.5777 15.656 11.4534 15.8192C11.3233 15.9881 11.267 16.2658 11.2768 16.4522C11.2088 16.4852 11.1427 16.5435 11.1758 16.6639C11.2088 16.7844 11.3816 16.8231 11.4923 16.8988C11.6029 16.9803 11.6126 17.0094 11.7176 16.9901C11.8282 16.9668 11.9913 16.8562 12.0865 16.8562C12.1817 16.8562 12.2496 16.928 12.2496 16.928C12.2496 16.928 12.5079 16.8037 12.5331 16.827C12.5564 16.8503 12.5369 16.9998 12.5621 17.0231C12.5877 17.0406 12.8787 16.8678 12.9564 16.8192H12.9557Z" fill="#ECD592" />
	<path fill-rule="evenodd" clip-rule="evenodd" d="M18.6002 9.04855C17.3866 5.91459 14.3865 5.33398 14.3865 5.33398H5.82728L5.8603 8.52618H7.56488V15.6544H5.82715V18.8408H14.1496C16.1553 18.8408 17.7632 16.8252 17.7632 16.8252C20.3379 13.1709 18.6 9.04855 18.6 9.04855H18.6002ZM14.1943 14.6776C14.1943 14.6776 13.5415 15.6194 12.8312 15.6194H11.4104L11.3767 8.53399H13.2001C13.2001 8.53399 14.0449 8.71063 14.6351 10.3824C14.6351 10.3824 15.4176 12.776 14.1943 14.6776Z" fill="white" fill-opacity="0.8" />
</svg>
