<svg class="woox-icon" data-name="Layer 1" viewBox="0 0 22.62 36.84">
    <g id="Ethereum_ETH" data-name="Ethereum ETH">
        <path d="M32 15.52L41.93 32 32 37.86 22.07 32 32 15.52zm0-1.94L20.69 32.34 32 39.02l11.3-6.68L32 13.58z" class="cls-1" transform="translate(-20.69 -13.58)"></path>
        <path d="M32 28.67l9.09 3.82L32 37.86l-9.09-5.37L32 28.67zm0-1.09l-11.31 4.76L32 39.02l11.3-6.68L32 27.58z" class="cls-1" transform="translate(-20.69 -13.58)"></path>
        <path d="M39.78 37.73L32 48.7l-7.78-10.96 7.27 4.3.5.3.52-.3 7.27-4.3zm3.53-3.24L32 41.16 20.7 34.5 32 50.41l11.31-15.94z" class="cls-1" transform="translate(-20.69 -13.58)"></path>
        <path d="M10.81 1.88h1v22.79h-1zM10.81 27.75h1v7.87h-1z" class="cls-1"></path>
    </g>
</svg>