<svg xmlns="http://www.w3.org/2000/svg" width="25" height="24" viewBox="0 0 25 24" fill="none">
	<g clip-path="url(#clip0_2_23)">
		<mask id="mask0_2_23" style="mask-type:luminance" maskUnits="userSpaceOnUse" x="0" y="0" width="25" height="24">
			<path d="M24.5 6.10352e-05H0.5V24.0001H24.5V6.10352e-05Z" fill="white" />
		</mask>
		<g mask="url(#mask0_2_23)">
			<path fill-rule="evenodd" clip-rule="evenodd" d="M24.5 12.0001C24.5 18.627 19.127 24.0001 12.5 24.0001C5.87305 24.0001 0.5 18.627 0.5 12.0001C0.5 5.37311 5.87305 6.10352e-05 12.5 6.10352e-05C19.127 6.10352e-05 24.5 5.37311 24.5 12.0001Z" fill="white" />
			<path d="M12.5 6.10352e-05C10.1266 6.10352e-05 7.80656 0.70385 5.83317 2.02243C3.85978 3.34101 2.3217 5.21515 1.41345 7.40787C0.505199 9.60058 0.267559 12.0134 0.730582 14.3412C1.19361 16.6689 2.3365 18.8071 4.01473 20.4854C5.69296 22.1636 7.83116 23.3065 10.1589 23.7695C12.4867 24.2325 14.8995 23.9949 17.0922 23.0866C19.2849 22.1784 21.1591 20.6403 22.4777 18.6669C23.7962 16.6935 24.5 14.3735 24.5 12.0001C24.5046 10.4288 24.1997 8.87198 23.6026 7.41855C23.0055 5.96512 22.128 4.64352 21.0202 3.52921C19.9124 2.41491 18.5959 1.52972 17.146 0.924183C15.696 0.31865 14.141 0.00463315 12.5698 6.10352e-05H12.5ZM12.7034 12.4069L11.454 16.6199H18.1368C18.1811 16.6184 18.2252 16.6256 18.2667 16.6411C18.3082 16.6566 18.3462 16.6801 18.3786 16.7104C18.411 16.7406 18.4371 16.7769 18.4554 16.8172C18.4738 16.8575 18.484 16.9011 18.4855 16.9454V17.0558L17.9044 19.0606C17.8788 19.1554 17.8217 19.2387 17.7425 19.2968C17.6633 19.3549 17.5667 19.3843 17.4685 19.3802H7.24093L8.95522 13.54L7.03754 14.1211L7.47338 12.7846L9.39106 12.2035L11.8027 4.00975C11.8292 3.91547 11.8866 3.83279 11.9655 3.77487C12.0445 3.71695 12.1406 3.68712 12.2385 3.69014H14.8245C14.8687 3.68858 14.9129 3.69577 14.9544 3.71129C14.9959 3.72681 15.0339 3.75035 15.0663 3.78058C15.0986 3.8108 15.1248 3.84711 15.1431 3.88743C15.1614 3.92775 15.1716 3.97129 15.1731 4.01556V4.12597L13.1392 11.0412L15.0569 10.4601L14.6501 11.8548L12.7034 12.4069Z" fill="#345D9D" />
		</g>
	</g>
	<defs>
		<clipPath id="clip0_2_23">
			<rect width="25" height="24" fill="white" />
		</clipPath>
	</defs>
</svg>
