<svg xmlns="http://www.w3.org/2000/svg" width="24" height="24" viewBox="0 0 24 24" fill="none">
	<path d="M12 24C18.6274 24 24 18.6274 24 12C24 5.37258 18.6274 0 12 0C5.37258 0 0 5.37258 0 12C0 18.6274 5.37258 24 12 24Z" fill="#8247E5" />
	<path d="M15.8575 9.26144C15.7124 9.18458 15.5512 9.14443 15.3875 9.14443C15.2238 9.14443 15.0626 9.18458 14.9175 9.26144L12.7241 10.5465L11.2363 11.3641L9.08257 12.6492C8.93756 12.726 8.7763 12.7662 8.61261 12.7662C8.44892 12.7662 8.28766 12.726 8.14265 12.6492L6.45833 11.637C6.31589 11.5545 6.19742 11.4355 6.11483 11.292C6.03223 11.1485 5.98844 10.9855 5.98784 10.8194V8.87222C5.98951 8.70636 6.03376 8.54378 6.11624 8.40045C6.19873 8.25712 6.31662 8.13795 6.45833 8.05464L8.14265 7.08051C8.28769 7.00373 8.44893 6.96363 8.61261 6.96363C8.77629 6.96363 8.93753 7.00373 9.08257 7.08051L10.7658 8.0927C10.9083 8.17517 11.0267 8.29415 11.1093 8.43766C11.1919 8.58118 11.2357 8.74419 11.2363 8.91028V10.1964L12.7241 9.33863V8.01551C12.7227 7.84956 12.6787 7.68683 12.5964 7.5433C12.5141 7.39977 12.3963 7.28038 12.2546 7.19684L9.12124 5.36707C8.97623 5.29021 8.81497 5.25006 8.65128 5.25006C8.48759 5.25006 8.32633 5.29021 8.18132 5.36707L4.96951 7.23707C4.82662 7.30871 4.7067 7.41985 4.62363 7.55761C4.54055 7.69537 4.49772 7.85413 4.50009 8.01551V11.6761C4.50176 11.842 4.54601 12.0046 4.6285 12.1479C4.71098 12.2912 4.82887 12.4104 4.97059 12.4937L8.14265 14.3246C8.28766 14.4014 8.44892 14.4416 8.61261 14.4416C8.7763 14.4416 8.93756 14.4014 9.08257 14.3246L11.2363 13.0775L12.7241 12.2208L14.8778 10.9749C15.0228 10.898 15.1841 10.8579 15.3478 10.8579C15.5114 10.8579 15.6727 10.898 15.8177 10.9749L17.502 11.949C17.6445 12.0315 17.7629 12.1505 17.8455 12.294C17.9281 12.4375 17.9719 12.6005 17.9725 12.7666V14.7127C17.971 14.8787 17.9269 15.0415 17.8444 15.1851C17.7619 15.3286 17.6439 15.448 17.502 15.5314L15.8575 16.5055C15.7124 16.5824 15.5512 16.6225 15.3875 16.6225C15.2238 16.6225 15.0626 16.5824 14.9175 16.5055L13.2332 15.5314C13.091 15.4487 12.9727 15.3297 12.8903 15.1862C12.8079 15.0427 12.7643 14.8798 12.7638 14.7138V13.4678L11.275 14.3246V15.6096C11.2766 15.7755 11.3209 15.9381 11.4034 16.0814C11.4859 16.2247 11.6038 16.3439 11.7455 16.4272L14.9175 18.2581C15.0626 18.3349 15.2238 18.3751 15.3875 18.3751C15.5512 18.3751 15.7124 18.3349 15.8575 18.2581L19.0295 16.4272C19.172 16.3447 19.2904 16.2258 19.373 16.0822C19.4556 15.9387 19.4994 15.7757 19.5 15.6096V11.9099C19.4985 11.7438 19.4544 11.581 19.3719 11.4375C19.2894 11.2939 19.1714 11.1746 19.0295 11.0912L15.8575 9.26144Z" fill="white" />
</svg>
