<svg xmlns="http://www.w3.org/2000/svg" width="25" height="24" viewBox="0 0 25 24" fill="none">
	<g clip-path="url(#clip0_1_154)">
		<path d="M24.5 12.0001C24.5 5.37265 19.1274 6.10352e-05 12.5 6.10352e-05C5.87259 6.10352e-05 0.5 5.37265 0.5 12.0001C0.5 18.6275 5.87259 24.0001 12.5 24.0001C19.1274 24.0001 24.5 18.6275 24.5 12.0001Z" fill="#E6007A" />
		<mask id="mask0_1_154" style="mask-type:luminance" maskUnits="userSpaceOnUse" x="4" y="3" width="17" height="18">
			<path d="M20.3 3.60004H4.69995V20.4H20.3V3.60004Z" fill="white" />
		</mask>
		<g mask="url(#mask0_1_154)">
			<path d="M12.4996 7.12372C14.1518 7.12372 15.4911 6.33491 15.4911 5.36188C15.4911 4.38884 14.1518 3.60004 12.4996 3.60004C10.8474 3.60004 9.50806 4.38884 9.50806 5.36188C9.50806 6.33491 10.8474 7.12372 12.4996 7.12372Z" fill="white" />
			<path d="M12.4996 20.3989C14.1518 20.3989 15.4911 19.6101 15.4911 18.6371C15.4911 17.664 14.1518 16.8752 12.4996 16.8752C10.8474 16.8752 9.50806 17.664 9.50806 18.6371C9.50806 19.6101 10.8474 20.3989 12.4996 20.3989Z" fill="white" />
			<path d="M8.33037 9.56249C9.15646 8.11364 9.1511 6.54444 8.31839 6.05759C7.48568 5.57074 6.14096 6.35061 5.31487 7.79946C4.48878 9.24832 4.49414 10.8175 5.32685 11.3044C6.15955 11.7912 7.50427 11.0114 8.33037 9.56249Z" fill="white" />
			<path d="M19.6826 16.1994C20.5087 14.7505 20.5038 13.1816 19.6716 12.6951C18.8395 12.2085 17.4952 12.9887 16.6691 14.4375C15.843 15.8864 15.8479 17.4553 16.6801 17.9418C17.5122 18.4284 18.8565 17.6482 19.6826 16.1994Z" fill="white" />
			<path d="M8.31888 17.9414C9.15158 17.4546 9.15694 15.8854 8.33085 14.4365C7.50476 12.9877 6.16004 12.2078 5.32734 12.6947C4.49463 13.1815 4.48927 14.7507 5.31536 16.1996C6.14145 17.6484 7.48617 18.4283 8.31888 17.9414Z" fill="white" />
			<path d="M19.6721 11.3047C20.5042 10.8182 20.5091 9.24924 19.6831 7.80038C18.857 6.35152 17.5127 5.57139 16.6806 6.05791C15.8484 6.54443 15.8435 8.11336 16.6696 9.56222C17.4957 11.0111 18.84 11.7912 19.6721 11.3047Z" fill="white" />
		</g>
	</g>
	<defs>
		<clipPath id="clip0_1_154">
			<rect width="25" height="24" fill="white" />
		</clipPath>
	</defs>
</svg>
