<svg class="woox-icon" data-name="Layer 1" viewBox="0 0 29.098 31.372">
	<path d="M22.248 31.372a6.778 6.778 0 0 1-3.427-.949 6.924 6.924 0 0 1-3.424-5.952 7.569 7.569 0 0 1 1.006-3.651 2.135 2.135 0 0 0-.763-2.736 1.891 1.891 0 0 0-2.717.761 6.955 6.955 0 0 1-2.657 2.774 6.788 6.788 0 0 1-6.842-.005 6.9 6.9 0 0 1 0-11.917 6.777 6.777 0 0 1 6.854 0 11.248 11.248 0 0 1 2.731 2.717 2.056 2.056 0 0 0 2.751.811 1.691 1.691 0 0 0 1.025-1.3 2.618 2.618 0 0 0-.274-1.455 7.517 7.517 0 0 1-1.113-3.631A6.94 6.94 0 0 1 18.821.885a6.483 6.483 0 0 1 3.386-.886 6.6 6.6 0 0 1 3.479.9 6.887 6.887 0 0 1-.013 11.9 7.892 7.892 0 0 1-3.78.893 1.967 1.967 0 1 0 0 3.933 7.566 7.566 0 0 1 3.771.887 6.889 6.889 0 0 1 .009 11.915 6.809 6.809 0 0 1-3.425.945zm-7.636-14.587a3.051 3.051 0 0 1 1.53.436 3.119 3.119 0 0 1 1.142 4.064 6.608 6.608 0 0 0-.89 3.186 5.923 5.923 0 0 0 2.93 5.09 5.753 5.753 0 0 0 5.84 0 5.89 5.89 0 0 0 0-10.186 6.6 6.6 0 0 0-3.274-.754 2.966 2.966 0 1 1 0-5.933 6.89 6.89 0 0 0 3.284-.761 5.887 5.887 0 0 0-.01-10.175 5.56 5.56 0 0 0-2.922-.755 5.616 5.616 0 0 0-2.9.741 5.943 5.943 0 0 0-2.943 5.1 6.61 6.61 0 0 0 1 3.163 3.6 3.6 0 0 1 .381 2.063 2.63 2.63 0 0 1-1.535 2.036 2.785 2.785 0 0 1-1.423.383 3.1 3.1 0 0 1-2.639-1.514 9.809 9.809 0 0 0-2.435-2.425 5.777 5.777 0 0 0-5.816.014 5.9 5.9 0 0 0 0 10.193 5.763 5.763 0 0 0 5.839 0 6.017 6.017 0 0 0 2.282-2.4 3.058 3.058 0 0 1 2.559-1.566z" data-name="Ripple XRP">
	</path>
</svg>
