<svg xmlns="http://www.w3.org/2000/svg" width="24" height="24" viewBox="0 0 24 24" fill="none">
	<path d="M12 24C18.6274 24 24 18.6274 24 12C24 5.37258 18.6274 0 12 0C5.37258 0 0 5.37258 0 12C0 18.6274 5.37258 24 12 24Z" fill="#010101" />
	<path fill-rule="evenodd" clip-rule="evenodd" d="M6.44861 10.7939H16.0357C16.1558 10.7939 16.2698 10.8414 16.3527 10.926L17.8693 12.4467C18.1491 12.7274 17.9502 13.2061 17.5523 13.2061H7.96525C7.84513 13.2061 7.73118 13.1586 7.64825 13.074L6.13161 11.5533C5.84979 11.2726 6.05076 10.7939 6.44861 10.7939ZM6.13161 8.77788L7.64825 7.25704C7.73318 7.17246 7.84722 7.125 7.96525 7.125H17.5502C17.9481 7.125 18.1491 7.60372 17.8672 7.88438L16.3527 9.40512C16.2677 9.4898 16.1537 9.53726 16.0357 9.53726H6.44861C6.05076 9.53726 5.84979 9.05854 6.13161 8.77788ZM17.8672 15.2221L16.3506 16.743C16.2657 16.8276 16.1516 16.875 16.0336 16.875H6.44861C6.05076 16.875 5.84979 16.3963 6.13161 16.1156L7.64825 14.5949C7.73318 14.5102 7.84722 14.4628 7.96525 14.4628H17.5502C17.9481 14.4628 18.1491 14.9415 17.8672 15.2221Z" fill="url(#paint0_linear_2_22)" />
	<defs>
		<linearGradient id="paint0_linear_2_22" x1="6.68315" y1="17.2945" x2="17.272" y2="6.66199" gradientUnits="userSpaceOnUse">
			<stop stop-color="#CB4EE8" />
			<stop offset="1" stop-color="#10F4B1" />
		</linearGradient>
	</defs>
</svg>
