<svg xmlns="http://www.w3.org/2000/svg" width="24" height="24" viewBox="0 0 24 24" fill="none">
	<g clip-path="url(#clip0_2_7)">
		<path fill-rule="evenodd" clip-rule="evenodd" d="M12 0C18.6276 0 24 5.37247 24 12.0001C24 18.6271 18.6276 24.0001 12 24.0001C5.37246 24.0001 0 18.6271 0 12.0001C0 5.37247 5.37246 0 12 0Z" fill="#2775CA" />
		<path d="M9.75107 20.124C9.75107 20.4031 9.53008 20.5617 9.25715 20.4774C5.62989 19.333 3 15.9691 3 11.9999C3 8.0309 5.62989 4.66687 9.25715 3.52242C9.53008 3.43869 9.75107 3.59671 9.75107 3.87581V4.5648C9.75107 4.7506 9.60547 4.96929 9.42647 5.02983C6.55665 6.07208 4.50083 8.79876 4.50083 11.9952C4.50083 15.1916 6.55665 17.9189 9.42647 18.9606C9.60547 19.0258 9.75107 19.2397 9.75107 19.4261V20.124Z" fill="white" />
		<path d="M12.7482 17.5601C12.7482 17.7651 12.5789 17.9325 12.3719 17.9325H11.6237C11.4168 17.9325 11.2475 17.7651 11.2475 17.5601V16.3878C9.61019 16.1692 8.81063 15.2617 8.59414 14.0288C8.55638 13.8191 8.72569 13.6285 8.94218 13.6285H9.79845C9.97718 13.6285 10.1278 13.7543 10.1654 13.9308C10.3255 14.666 10.7536 15.2291 12.066 15.2291C13.0351 15.2291 13.7222 14.6939 13.7222 13.894C13.7222 13.0933 13.3175 12.791 11.8967 12.5582C9.79845 12.2791 8.80586 11.6508 8.80586 10.0223C8.80586 8.76606 9.76574 7.78907 11.2523 7.57954V6.43024C11.2523 6.22544 11.4217 6.05784 11.6285 6.05784H12.3767C12.5836 6.05784 12.7529 6.22544 12.7529 6.43024V7.61217C13.962 7.82655 14.7289 8.50543 14.9783 9.6314C15.0252 9.84578 14.8559 10.0455 14.6349 10.0455H13.8444C13.6751 10.0455 13.534 9.93369 13.4823 9.77095C13.2706 9.05473 12.7529 8.74772 11.8543 8.74772C10.8617 8.74772 10.3488 9.22219 10.3488 9.88745C10.3488 10.5901 10.6407 10.9434 12.1651 11.1625C14.2254 11.4416 15.2889 12.0232 15.2889 13.7591C15.2889 15.0757 14.3008 16.1413 12.7529 16.3878V17.5601H12.7482Z" fill="white" />
		<path d="M14.249 20.124C14.249 20.4031 14.4702 20.5616 14.7429 20.4774C18.3701 19.3282 20.9955 15.9689 21 12.0093C21 8.04029 18.3701 4.67639 14.7429 3.53127C14.4702 3.44336 14.249 3.6061 14.249 3.8852V4.57365C14.249 4.76012 14.3948 4.97396 14.5736 5.03922C17.4434 6.08146 19.4992 8.80815 19.4992 12.0046C19.4992 15.201 17.4434 17.9277 14.5736 18.97C14.376 19.0401 14.249 19.2307 14.249 19.4355V20.124Z" fill="white" />
	</g>
	<defs>
		<clipPath id="clip0_2_7">
			<rect width="24" height="24" fill="white" />
		</clipPath>
	</defs>
</svg>
