<svg xmlns="http://www.w3.org/2000/svg" width="24" height="24" viewBox="0 0 24 24" fill="none">
	<g clip-path="url(#clip0_2_18)">
		<path d="M24 12C24 5.37258 18.6274 0 12 0C5.37258 0 0 5.37258 0 12C0 18.6274 5.37258 24 12 24C18.6274 24 24 18.6274 24 12Z" fill="white" />
		<path d="M23.641 14.9029C22.0381 21.3315 15.5262 25.2439 9.09607 23.6408C2.66864 22.0381 -1.24415 15.5265 0.359423 9.09838C1.96159 2.66903 8.47349 -1.24361 14.9016 0.359082C21.3313 1.96177 25.244 8.47395 23.641 14.9029Z" fill="#50AF95" />
		<path fill-rule="evenodd" clip-rule="evenodd" d="M13.526 12.8182C13.4408 12.8246 13.0004 12.8509 12.0181 12.8509C11.2368 12.8509 10.6821 12.8275 10.4875 12.8182C7.46818 12.6856 5.21452 12.1606 5.21452 11.5321C5.21452 10.9036 7.46818 10.3793 10.4875 10.2445V12.2954C10.685 12.3096 11.2503 12.3429 12.0316 12.3429C12.9692 12.3429 13.4386 12.3039 13.5232 12.2961V10.2459C16.5361 10.38 18.7848 10.905 18.7848 11.5321C18.7848 12.1592 16.5368 12.6842 13.5232 12.8175L13.526 12.8182ZM13.526 10.0338V8.19862H17.7308V5.40002H6.28276V8.19862H10.4868V10.0331C7.06973 10.1899 4.5 10.866 4.5 11.6761C4.5 12.4862 7.06973 13.1616 10.4868 13.3191V19.2H13.5253V13.317C16.9346 13.1602 19.5 12.4848 19.5 11.6754C19.5 10.866 16.9374 10.1913 13.526 10.0338Z" fill="white" />
	</g>
	<defs>
		<clipPath id="clip0_2_18">
			<rect width="24" height="24" fill="white" />
		</clipPath>
	</defs>
</svg>
