<svg xmlns="http://www.w3.org/2000/svg" width="24" height="24" viewBox="0 0 24 24" fill="none">
	<g clip-path="url(#clip0_1_136)">
		<mask id="mask0_1_136" style="mask-type:luminance" maskUnits="userSpaceOnUse" x="0" y="0" width="24" height="24">
			<path d="M24 0H0V24H24V0Z" fill="white" />
		</mask>
		<g mask="url(#mask0_1_136)">
			<path d="M12 24C18.6274 24 24 18.6274 24 12C24 5.37258 18.6274 0 12 0C5.37258 0 0 5.37258 0 12C0 18.6274 5.37258 24 12 24Z" fill="black" />
			<path d="M19.1719 6H17.0906L13.7975 9.27821C13.318 9.75371 12.6719 10.0203 11.9987 10.0203C11.3256 10.0203 10.6794 9.75371 10.2 9.27821L6.90936 6H4.82642L9.15936 10.3155C10.729 11.8774 13.2721 11.8774 14.8406 10.3155L19.1719 6Z" fill="white" />
			<path d="M4.80005 18H6.88271L10.2026 14.6952C10.682 14.2197 11.3282 13.9531 12.0013 13.9531C12.6745 13.9531 13.3206 14.2197 13.8001 14.6952L17.1188 18H19.2001L14.8407 13.6579C13.271 12.0959 10.728 12.0959 9.15943 13.6579L4.80005 18Z" fill="white" />
		</g>
	</g>
	<defs>
		<clipPath id="clip0_1_136">
			<rect width="24" height="24" fill="white" />
		</clipPath>
	</defs>
</svg>
