<svg xmlns="http://www.w3.org/2000/svg" width="196" height="50" viewBox="0 0 196 50" fill="none">
	<path d="M46.7135 12.6014L45.6296 10.7082C45.5449 10.56 45.4272 10.4333 45.2855 10.338C45.1439 10.2427 44.9822 10.1814 44.813 10.1587C44.6438 10.1361 44.4717 10.1528 44.31 10.2075C44.1483 10.2622 44.0014 10.3534 43.8807 10.4741L41.405 12.9498C41.2227 13.1322 41.1093 13.3721 41.0839 13.6287C41.0586 13.8854 41.1229 14.1428 41.266 14.3574C42.1706 15.7387 42.8949 17.2299 43.4214 18.7949V18.7949C44.405 21.719 44.6788 24.8351 44.2203 27.8859C43.7618 30.9367 42.5842 33.8346 40.7846 36.3405C38.9851 38.8463 36.6153 40.8882 33.8709 42.2974C31.1265 43.7066 28.0862 44.4427 25.0011 44.445C21.8229 44.454 18.6918 43.6766 15.8869 42.1823L20.0833 37.9876C22.1851 38.7832 24.4487 39.0568 26.6796 38.7849C28.9105 38.513 31.042 37.7036 32.8912 36.4264C34.7403 35.1491 36.2518 33.4422 37.2959 31.452C38.34 29.4619 38.8855 27.248 38.8854 25.0007C38.8845 24.5204 38.8581 24.0406 38.8062 23.5631C38.6417 21.9603 38.1986 20.3985 37.4972 18.9479C37.4188 18.7904 37.3042 18.6536 37.1628 18.5489C37.0214 18.4442 36.8572 18.3745 36.6836 18.3455C36.51 18.3164 36.3321 18.329 36.1643 18.382C35.9965 18.435 35.8437 18.5271 35.7183 18.6506L33.2057 21.1632C33.0719 21.2966 32.9744 21.462 32.9223 21.6436C32.8703 21.8253 32.8655 22.0172 32.9084 22.2013L33.1195 23.1039C33.4908 24.6829 33.393 26.3359 32.838 27.86C32.2831 29.3842 31.2953 30.7132 29.9958 31.6838C28.6962 32.6545 27.1416 33.2246 25.5226 33.3243C23.9037 33.4239 22.2908 33.0486 20.8821 32.2446L19.7771 31.6111C19.5657 31.4892 19.3199 31.4403 19.0778 31.4721C18.8358 31.5039 18.611 31.6146 18.4382 31.7871L8.18725 42.0257C8.07543 42.1374 7.98877 42.2718 7.93305 42.4197C7.87734 42.5676 7.85386 42.7258 7.86419 42.8835C7.87452 43.0413 7.91841 43.195 7.99294 43.3344C8.06747 43.4738 8.17091 43.5957 8.29634 43.6919L9.806 44.8497C14.1593 48.2049 19.505 50.0167 25.0011 49.9998C38.7851 49.9998 50.0003 38.7847 50.0003 25.0007C50.0014 20.6521 48.8685 16.3784 46.7135 12.6014Z" fill="url(#paint0_linear_20_1791)" />
	<path d="M40.1942 5.15008C35.8415 1.79515 30.4965 -0.0166459 25.0009 -8.50317e-06C11.2151 -8.50317e-06 3.80014e-07 11.2151 3.80014e-07 25.0009C-0.000757491 29.3494 1.13208 33.623 3.28676 37.4001L4.37062 39.2934C4.45518 39.4433 4.57343 39.5715 4.71605 39.6679C4.85867 39.7643 5.02175 39.8262 5.1924 39.8487C5.36305 39.8712 5.53661 39.8538 5.69935 39.7977C5.86209 39.7416 6.00957 39.6485 6.13013 39.5256L8.604 37.0518C8.7863 36.8694 8.89978 36.6294 8.92512 36.3728C8.95046 36.1162 8.88611 35.8587 8.74301 35.6441C7.83912 34.2625 7.11483 32.7713 6.58761 31.2067V31.2067C5.60393 28.283 5.32976 25.1674 5.78771 22.1169C6.24567 19.0664 7.42262 16.1686 9.2214 13.6626C11.0202 11.1567 13.3892 9.11458 16.1329 7.70481C18.8766 6.29505 21.9162 5.55808 25.0009 5.55476C28.1785 5.54601 31.3089 6.32333 34.1134 7.81749L29.9117 12.0139C27.8099 11.2178 25.5463 10.9438 23.3154 11.2155C21.0844 11.4873 18.9527 12.2966 17.1035 13.5739C15.2544 14.8513 13.743 16.5586 12.6992 18.5489C11.6555 20.5393 11.1106 22.7534 11.1113 25.0009C11.1113 25.2314 11.1729 26.2836 11.1922 26.4648C11.3621 28.0576 11.8049 29.6093 12.5013 31.0518C12.5786 31.2118 12.6929 31.351 12.8349 31.4577C12.9769 31.5645 13.1424 31.6358 13.3175 31.6656C13.4927 31.6953 13.6724 31.6828 13.8417 31.629C14.011 31.5752 14.1649 31.4817 14.2907 31.3562L16.8033 28.8454C16.9377 28.7109 17.0354 28.5442 17.0872 28.3613C17.1389 28.1784 17.1429 27.9852 17.0989 27.8002L16.8913 26.9047C16.7454 26.2805 16.671 25.6418 16.6696 25.0009C16.6696 23.5426 17.0526 22.1099 17.7802 20.8462C18.5079 19.5824 19.5547 18.532 20.8159 17.7999C22.0771 17.0679 23.5084 16.6799 24.9667 16.6748C26.4249 16.6698 27.8589 17.0478 29.1252 17.771L30.2319 18.4045C30.4432 18.526 30.6886 18.5746 30.9303 18.5428C31.172 18.511 31.3965 18.4006 31.5691 18.2285L41.813 7.98465C41.9248 7.87274 42.0115 7.73826 42.0673 7.59018C42.123 7.44209 42.1465 7.28382 42.1362 7.12594C42.1258 6.96805 42.0819 6.81419 42.0074 6.67463C41.9328 6.53506 41.8294 6.41301 41.7039 6.31663L40.1942 5.15008Z" fill="url(#paint1_linear_20_1791)" />
	<path d="M82.3047 31.8949C82.1176 31.7432 81.8828 31.6629 81.642 31.6684C81.4012 31.6739 81.1703 31.7648 80.9903 31.9248C79.3839 33.1723 77.5206 34.3266 74.7968 34.3266C69.8122 34.3266 65.7565 30.1266 65.7565 24.9625C65.7565 19.7983 69.7946 15.5632 74.7599 15.5632C76.9223 15.5632 79.2449 16.4693 80.9587 17.9719C81.0544 18.0847 81.174 18.1748 81.3088 18.2356C81.4436 18.2965 81.5902 18.3266 81.7381 18.3238C81.8648 18.313 81.9877 18.2749 82.0983 18.212C82.2089 18.1491 82.3045 18.063 82.3786 17.9596L84.0008 16.2898C84.1036 16.1892 84.1847 16.0686 84.2391 15.9354C84.2936 15.8023 84.3203 15.6595 84.3176 15.5157C84.3119 15.3696 84.276 15.2263 84.2121 15.0949C84.1482 14.9634 84.0577 14.8467 83.9463 14.752C81.1311 12.2887 78.2789 11.1873 74.7229 11.1873C67.1324 11.1873 60.9565 17.4018 60.9565 25.0399C60.9593 28.6911 62.4103 32.1921 64.9911 34.7748C67.5719 37.3576 71.0718 38.8113 74.7229 38.8168C78.2948 38.8168 81.5023 37.5289 84.0008 35.0867C84.1083 34.9773 84.1926 34.8474 84.2488 34.7047C84.3051 34.562 84.332 34.4095 84.3281 34.2562C84.3267 34.1327 84.3001 34.0107 84.2499 33.8979C84.1997 33.785 84.1269 33.6836 84.036 33.5999L82.3047 31.8949Z" fill="white" />
	<path d="M94.1055 11.5603H91.6422C91.366 11.568 91.1034 11.6821 90.9093 11.8788C90.7151 12.0756 90.6046 12.3397 90.6006 12.616V37.3952C90.6068 37.67 90.7184 37.9319 90.9122 38.1267C91.1061 38.3216 91.3675 38.4345 91.6422 38.4421H94.1055C94.3805 38.4345 94.642 38.3217 94.8361 38.1269C95.0303 37.9321 95.1423 37.6702 95.1489 37.3952V12.6072C95.1427 12.3321 95.0309 12.07 94.8366 11.8751C94.6424 11.6802 94.3806 11.5675 94.1055 11.5603V11.5603Z" fill="white" />
	<path d="M123.166 19.9074C123.166 15.3081 119.376 11.5603 114.72 11.5603H104.598C104.32 11.564 104.055 11.6769 103.86 11.8744C103.665 12.072 103.556 12.3384 103.556 12.616V37.3952C103.558 37.6712 103.669 37.9354 103.863 38.1311C104.058 38.3268 104.322 38.4384 104.598 38.4421H107.017C107.292 38.4341 107.553 38.321 107.747 38.1263C107.94 37.9315 108.052 37.6699 108.059 37.3952V28.1824H113.137L117.993 37.9195C118.081 38.0795 118.21 38.213 118.368 38.3058C118.525 38.3987 118.704 38.4476 118.887 38.4474H121.79C121.973 38.4537 122.155 38.4112 122.317 38.3244C122.478 38.2375 122.614 38.1093 122.71 37.953C122.804 37.7873 122.853 37.6003 122.853 37.4102C122.853 37.22 122.804 37.033 122.71 36.8673L117.784 27.6792C121.116 26.1924 123.166 23.247 123.166 19.9074ZM118.626 19.9831C118.626 22.3179 116.701 24.2904 114.423 24.2904H108.133V15.8623H114.421C116.7 15.8623 118.625 17.7503 118.625 19.9831H118.626Z" fill="white" />
	<path d="M149.61 31.8949C149.423 31.7432 149.188 31.6629 148.947 31.6684C148.706 31.6739 148.475 31.7648 148.295 31.9248C146.689 33.1723 144.826 34.3266 142.102 34.3266C137.117 34.3266 133.061 30.1266 133.061 24.9625C133.061 19.7983 137.108 15.5632 142.065 15.5632C144.226 15.5632 146.55 16.4693 148.264 17.9719C148.359 18.0848 148.479 18.1749 148.614 18.2358C148.748 18.2967 148.895 18.3267 149.043 18.3238C149.17 18.313 149.293 18.2749 149.403 18.212C149.514 18.1491 149.609 18.063 149.684 17.9596L151.306 16.2898C151.408 16.189 151.489 16.0684 151.543 15.9352C151.597 15.8021 151.624 15.6593 151.621 15.5157C151.615 15.3697 151.58 15.2265 151.516 15.0951C151.453 14.9637 151.362 14.8468 151.251 14.752C148.436 12.2887 145.584 11.1873 142.028 11.1873C134.436 11.1855 128.269 17.4001 128.269 25.0381C128.271 28.6896 129.723 32.1909 132.304 34.7737C134.885 37.3565 138.385 38.81 142.037 38.8151C145.607 38.8151 148.814 37.5271 151.315 35.0849C151.422 34.9752 151.506 34.845 151.563 34.702C151.619 34.559 151.646 34.4062 151.642 34.2527C151.64 34.1295 151.613 34.008 151.563 33.8955C151.513 33.783 151.44 33.6818 151.35 33.5981L149.61 31.8949Z" fill="white" />
	<path d="M172.2 34.2876H162.452V12.6069C162.448 12.3306 162.337 12.0665 162.143 11.8697C161.949 11.673 161.686 11.5589 161.41 11.5512H158.947C158.669 11.5549 158.404 11.6678 158.209 11.8654C158.015 12.0629 157.905 12.3293 157.905 12.6069V37.3949C157.908 37.6709 158.018 37.9351 158.213 38.1308C158.407 38.3265 158.671 38.4381 158.947 38.4418H172.192C172.469 38.4386 172.733 38.3271 172.928 38.1314C173.123 37.9357 173.234 37.6712 173.236 37.3949V35.3345C173.234 35.0594 173.124 34.796 172.93 34.6004C172.737 34.4049 172.475 34.2926 172.2 34.2876V34.2876Z" fill="white" />
	<path d="M194.264 15.7493C194.541 15.7456 194.806 15.6328 195.001 15.4352C195.196 15.2376 195.305 14.9712 195.305 14.6936V12.6069C195.305 12.3293 195.196 12.0629 195.001 11.8653C194.806 11.6677 194.541 11.5548 194.264 11.5511H179.38C179.102 11.5548 178.838 11.6677 178.643 11.8653C178.448 12.0629 178.338 12.3293 178.338 12.6069V37.3948C178.341 37.6709 178.451 37.935 178.646 38.1307C178.84 38.3264 179.104 38.4381 179.38 38.4417H194.264C194.54 38.4381 194.803 38.3264 194.998 38.1307C195.193 37.935 195.303 37.6709 195.305 37.3948V35.3344C195.303 35.0584 195.193 34.7942 194.998 34.5985C194.803 34.4028 194.54 34.2912 194.264 34.2875H182.841V26.9081H192.439C192.717 26.9049 192.982 26.7923 193.178 26.5946C193.373 26.397 193.483 26.1303 193.482 25.8524V23.7657C193.476 23.4906 193.364 23.2284 193.17 23.0335C192.976 22.8386 192.714 22.7259 192.439 22.7188H182.841V15.7493H194.264Z" fill="white" />
	<defs>
		<linearGradient id="paint0_linear_20_1791" x1="16.1842" y1="51.5921" x2="51.378" y2="16.3984" gradientUnits="userSpaceOnUse">
			<stop stop-color="#B090F5" />
			<stop offset="1" stop-color="#5FBFFF" />
		</linearGradient>
		<linearGradient id="paint1_linear_20_1791" x1="3.80014e-07" y1="19.9264" x2="42.1385" y2="19.9264" gradientUnits="userSpaceOnUse">
			<stop stop-color="#68D7FA" />
			<stop offset="1" stop-color="#7EF1B3" />
		</linearGradient>
	</defs>
</svg>
