<svg width="119" height="40" viewBox="0 0 119 40" fill="none" xmlns="http://www.w3.org/2000/svg">
	<mask id="mask0_298_2" style="mask-type:luminance" maskUnits="userSpaceOnUse" x="8" y="8" width="24" height="24">
		<path d="M31.4365 8H8V31.4365H31.4365V8Z" fill="white" />
	</mask>
	<g mask="url(#mask0_298_2)">
		<path fill-rule="evenodd" clip-rule="evenodd" d="M9.50019 10.5782L8.61686 10.5314L8.61286 11.4235L8.61241 11.6095C8.61215 11.7543 8.6118 12.0044 8.61145 12.4257C8.61074 13.2683 8.61004 14.7963 8.61004 17.5383V17.8905L9.65667 18.9461C9.24225 19.2091 8.82588 19.469 8.40759 19.7259L8.00328 19.9742L8 25.8549L12.8276 30.7269L13.1446 30.7477C19.0682 31.138 25.1604 30.705 30.8683 28.719L31.4365 28.5213V21.4548L30.2016 20.2094C30.412 19.9999 30.6219 19.7887 30.8303 19.5761L31.0739 19.3276V18.9782C31.0739 18.737 31.0746 17.474 31.0753 16.2707L31.0769 13.5725L26.1045 8.55762L25.6096 8.72484C20.4705 10.4611 14.9587 10.8672 9.50019 10.5782ZM25.8774 9.53112L30.2336 13.9245C30.2336 13.9245 30.2308 18.4952 30.2308 18.9782C30.0237 19.1894 29.8149 19.3996 29.6054 19.6081C29.4048 19.8078 29.2035 20.0061 29.0024 20.2025L30.5933 21.807V27.9151C25.0227 29.8534 19.05 30.2847 13.1995 29.8992L8.84333 25.503L8.84614 20.4521C9.32251 20.1596 9.79648 19.8631 10.268 19.5626C10.5113 19.4075 10.7539 19.2514 10.9959 19.0942L9.45317 17.5383C9.45317 14.6279 9.45397 13.0855 9.45471 12.2788C9.45537 11.5655 9.45599 11.4273 9.45599 11.4273C9.73675 11.4422 10.0178 11.4553 10.299 11.4664C15.5513 11.6749 20.8739 11.2216 25.8774 9.53112Z" fill="white" />
		<path fill-rule="evenodd" clip-rule="evenodd" d="M25.8773 9.53125C20.606 11.3123 14.9803 11.7201 9.45592 11.4275C9.45592 11.4275 9.45311 12.0548 9.45311 17.5385L10.9958 19.0944C10.285 19.5562 9.56828 20.0088 8.84607 20.4523L8.84326 25.5032L13.1994 29.8994C19.05 30.2849 25.0226 29.8536 30.5933 27.9153V21.8072L29.0023 20.2027C29.4133 19.8012 29.8253 19.3919 30.2307 18.9784C30.2307 18.4954 30.2335 13.9246 30.2335 13.9246L25.8773 9.53125ZM28.5444 18.5958V16.1469L28.5416 16.144C24.7475 17.2126 20.9534 17.6179 17.1593 17.6179C16.6029 17.6179 16.0492 17.6094 15.4927 17.5924V20.3021C16.0548 20.3191 16.6141 20.3276 17.1762 20.3276C19.1294 20.3276 21.0827 20.2199 23.036 19.9676C20.3211 22.17 17.6034 24.0945 14.8857 25.8377V28.2866C15.6445 28.3178 16.4033 28.3348 17.1621 28.3348C21.0771 28.3348 24.992 27.9012 28.9098 26.7561V24.0464C26.0684 24.874 23.2327 25.3303 20.3942 25.5203C23.109 23.488 25.8267 21.2091 28.5444 18.5958Z" fill="#0D0D0D" />
		<path d="M28.5445 16.1465V18.5954C25.8268 21.2087 23.1091 23.4876 20.3942 25.5199C23.2327 25.33 26.0685 24.8736 28.9098 24.046C28.9098 24.9502 28.9098 25.8515 28.9098 26.7557C24.9921 27.9008 21.0771 28.3345 17.1622 28.3345C16.4034 28.3345 15.6446 28.3174 14.8857 28.2863V25.8373C17.6034 24.0942 20.3211 22.1696 23.036 19.9673C21.0828 20.2195 19.1295 20.3272 17.1762 20.3272C16.6141 20.3272 16.0549 20.3187 15.4928 20.3017C15.4928 19.3975 15.4928 18.4962 15.4928 17.592C16.0492 17.609 16.6029 17.6175 17.1594 17.6175C20.9535 17.6175 24.7476 17.2122 28.5417 16.1436L28.5445 16.1465Z" fill="white" />
	</g>
	<path d="M55.2803 25.1619V22.0192H47.1669L54.7463 17.2743V14.2754H41.4567V17.4181H48.502L40.9226 22.163V25.1619H55.2803Z" fill="white" />
	<path d="M71.3292 21.6487H66.6871C66.2763 22.265 65.7422 22.4704 63.7087 22.4704C61.4698 22.4704 60.6893 22.2444 60.6277 20.4574H71.4114V19.3482C71.4114 15.2812 68.9876 14.0693 63.7909 14.0693H63.4623C58.2655 14.0693 56.0061 15.2812 56.0061 19.3482V20.0877C56.0061 24.1547 58.2655 25.3666 63.4623 25.3666H63.832C69.1109 25.3666 70.7336 24.3395 71.3292 21.6487ZM63.7087 16.6985C65.8655 16.6985 66.7898 17.0272 66.7898 18.3417V18.4239H60.6482C60.792 16.9245 61.6547 16.6985 63.7087 16.6985Z" fill="white" />
	<path d="M87.5502 25.1612V18.7115C87.5502 15.158 86.0508 14.0693 80.7103 14.0693H80.32C75.1849 14.0693 73.6033 15.3223 72.8433 17.6023H77.6497C77.9784 16.9861 78.5124 16.719 80.2378 16.719C82.2713 16.719 82.9286 17.0272 82.9286 18.2801V18.4444L76.2325 18.6704C73.8498 18.7525 72.3708 19.5536 72.3708 21.6898V21.8541C72.3708 24.1752 73.9319 25.3666 77.6908 25.3666C80.7308 25.3666 82.2508 24.6066 82.8054 23.2304H82.9286V25.1612H87.5502ZM77.0335 21.772V21.6898C77.0335 21.0531 77.4854 20.786 78.6151 20.745L82.9286 20.6012V20.745C82.9286 22.1006 81.5524 22.8812 79.293 22.8812C77.6497 22.8812 77.0335 22.5731 77.0335 21.772Z" fill="white" />
	<path d="M93.5076 25.1615V10.7832H88.886V25.1615H93.5076Z" fill="white" />
	<path d="M102.619 28.6537L110.116 14.2754H105.392L102.434 20.7457H102.29L99.209 14.2754H94.2383L99.8047 25.2235L97.7712 28.6537H102.619Z" fill="white" />
</svg>
